<svg width="342" height="238" viewBox="0 0 342 238" fill="none" xmlns="http://www.w3.org/2000/svg">
<path d="M80.6323 162.969C78.5366 151.698 75.9697 140.42 77.4282 128.798C78.0615 123.753 77.0547 117.908 78.1843 112.986C78.3829 112.12 78.5099 108.415 79.7323 108.145C81.1044 107.841 82.8438 108.109 84.2324 108.109C90.4117 108.109 96.5943 108.049 102.773 108.145C115.884 108.349 128.925 109.4 142.05 109.4C146.658 109.4 151.266 109.4 155.874 109.4C156.959 109.4 157.283 109.775 157.602 110.834C160.114 119.175 160.366 127.521 159.654 136.149C159.28 140.689 157.82 145.074 157.746 149.631C157.723 151.084 158.044 152.859 157.422 154.22C156.8 155.584 156.529 157.611 156.45 159.097C156.374 160.545 154.723 160.423 153.642 160.352C146.808 159.898 140.2 160.038 133.338 160.244C119.663 160.655 105.299 159.144 91.9366 162.646C89.7048 163.231 80.4474 165.182 79.3363 162.969" stroke="#27AE60" stroke-width="3" stroke-linecap="round"/>
<path d="M89.0001 108.455C89.0001 98.3853 88.8602 88.9025 97.5846 82.0834C104.383 76.7695 110.496 76.9909 117.712 80.7401C124.477 84.2543 131.288 86.5118 133.712 94.1379C135.44 99.5718 137 105.228 137 111" stroke="#27AE60" stroke-width="3" stroke-linecap="round"/>
<path d="M174 64C174 69.5727 174 75.7397 174 81.4107C174 83.9405 174 86.4702 174 89" stroke="#27AE60" stroke-width="3" stroke-linecap="round"/>
<path d="M163 79C171.685 79 180.312 79 189 79" stroke="#27AE60" stroke-width="3" stroke-linecap="round"/>
<path d="M185 71C179.47 74.8471 172.953 77.7968 168.012 82.3187C167.29 82.9794 165 85.9047 165 84.7211" stroke="#27AE60" stroke-width="3" stroke-linecap="round"/>
<path d="M165 73C167.875 77.7839 173.078 82.6429 178.062 85.0456C178.911 85.455 180.111 86 181 86" stroke="#27AE60" stroke-width="3" stroke-linecap="round"/>
<path d="M215 62C216.441 69.0738 215.901 76.7695 215.901 84" stroke="#27AE60" stroke-width="3" stroke-linecap="round"/>
<path d="M199 75C209.934 75 242.733 74 231.799 74" stroke="#27AE60" stroke-width="3" stroke-linecap="round"/>
<path d="M226 65C222.167 68.8333 218.64 72.9293 214.816 76.7546C213.105 78.4654 211.625 80.2617 210.094 82.124C209.605 82.7178 209 83.5982 209 82.4143" stroke="#27AE60" stroke-width="3" stroke-linecap="round"/>
<path d="M207 68C211.242 72.2166 215.392 75.8467 220.61 78.8333C221.724 79.4709 222.822 80.6097 224 81" stroke="#27AE60" stroke-width="3" stroke-linecap="round"/>
<path d="M261 62C261 68.4307 264 74.6456 264 81" stroke="#27AE60" stroke-width="3" stroke-linecap="round"/>
<path d="M271 71.4098C264.768 70.6835 258.588 70.9929 252.372 71.7878C251.713 71.8721 248.614 72.3909 249.04 71.4098" stroke="#27AE60" stroke-width="3" stroke-linecap="round"/>
<path d="M251 65C254.999 68.613 258.978 70.9775 264.174 72.9093C265.105 73.2557 271.659 76.55 272 75.9202" stroke="#27AE60" stroke-width="3" stroke-linecap="round"/>
<path d="M270 63C266.033 67.0213 262.785 71.6816 259.199 76.0594C257.289 78.3918 255.08 79.8911 253 82" stroke="#27AE60" stroke-width="3" stroke-linecap="round"/>
</svg>
