<svg width="342" height="238" viewBox="0 0 342 238" fill="none" xmlns="http://www.w3.org/2000/svg">
<path d="M63.2549 166.338C60.5179 146.837 60.0502 127.026 63.0922 107.422C64.9034 95.7501 66.4782 81.8887 77.9027 75.3605C85.4262 71.0615 93.5298 67.8454 101.705 64.9445C106.376 63.2873 111.41 62.773 116.068 61.1605C119.358 60.0218 123.612 58.0817 127.136 57.9462C131.962 57.7606 136.47 55.7491 141.295 55.7491C147.546 55.7491 154.033 55.0167 160.419 55.0167C168.02 55.0167 175.791 54.7769 183.285 56.1153C187.001 56.7788 190.692 58.2718 194.353 58.6786C201.05 59.4227 207.158 68.3705 207.536 74.7909C207.727 78.0447 212.556 87.5893 215.592 89.2757C217.108 90.1178 218.29 90.1708 219.986 90.1708C220.275 90.1708 218.268 89.2125 217.382 88.7061C214.351 86.9738 213.992 83.3245 211.564 81.3823C210.062 80.1805 210.559 76.368 210.425 74.7502C210.191 71.9441 209.026 68.6648 209.896 65.8396C210.884 62.6272 213.351 58.9527 216.731 57.9869C222.689 56.2847 229.001 57.0332 232.844 61.9743C234.881 64.5934 236.877 66.9523 238.866 69.6642C239.472 70.4912 240.64 68.6702 241.226 68.3622C241.839 68.0392 242.723 68.4662 243.26 68.0367C244.38 67.1409 245.997 67.4671 247.451 67.4671C252.559 67.4671 257.684 67.2349 262.628 68.7691C263.918 69.1696 265.967 71.0476 267.225 71.0476C268.335 71.0476 269.652 66.7391 269.952 65.8396C271.311 61.7611 274.467 59.827 278.577 59.3703C284.647 58.6959 286.966 58.7312 292.493 61.7708C299.371 65.5539 302.42 73.6536 298.922 80.6499C295.764 86.9648 286.868 89.3758 283.541 96.0298C282.416 98.2811 279.31 100.29 279.31 102.987C279.31 106.169 280.042 109.725 280.042 112.508C280.042 120.147 289.998 119.687 295.016 118.774C302.193 117.469 297.959 107.016 306.042 107.016C313.151 107.016 313 112.53 313 118.408C313 125.402 312.575 135.795 303.845 137.735C300.139 138.558 296.028 139.24 292.167 139.24C288.88 139.24 279.657 139.563 277.072 137.409C275.575 136.162 273.306 136.519 271.66 135.578C270.724 135.043 269.715 133.633 268.894 132.811C266.823 130.741 265.917 127.563 263.563 125.732C261.819 124.375 256.592 125.325 254.409 125.325C252.041 125.325 249.891 126.057 247.492 126.057C244.265 126.057 239.915 125.322 236.831 126.424C233.318 127.678 231.659 125.931 229.345 128.824C227.434 131.212 227.396 139.095 227.31 142.17C227.164 147.432 226.578 152.543 226.578 157.875C226.578 161.006 227.523 165.325 224.95 167.64C222.659 169.702 217.395 170 214.493 170C210.221 170 205.949 170 201.677 170C192.972 170 192.218 159.87 193.783 152.83C194.787 148.313 195.249 141.84 193.254 137.45C191.183 132.893 184.476 134.113 180.437 134.113C163.714 134.113 146.986 133.381 130.228 133.381C119.378 133.381 108.527 133.381 97.6772 133.381C94.9031 133.381 92.3131 138.613 91.8588 141.112C91.0259 145.693 90.3533 151.447 90.3533 156.085C90.3533 158.59 89.3641 166.462 87.0169 167.803C83.0845 170.05 77.6913 167.432 73.5084 169.105C71.0525 170.087 68.2949 168.535 65.859 168.535C64.1122 168.535 62.723 169.268 61.0578 169.268" stroke="#0284EB" stroke-width="3" stroke-linecap="round"/>
<path d="M66 89.9766C56.096 89.9766 40 91.1429 40 77" stroke="#0284EB" stroke-width="3" stroke-linecap="round"/>
</svg>
