<svg width="342" height="238" viewBox="0 0 342 238" fill="none" xmlns="http://www.w3.org/2000/svg">
<path d="M137.46 70.6556C136.645 65.6644 135.287 60.7729 135.287 55.6377C135.287 53.1323 135.167 50.6603 135.698 48.2736C135.934 47.2102 135.722 45.8868 135.722 44.7968C135.722 44.1787 135.951 41.5767 136.253 41.1992C138.938 37.8436 144.131 37.6258 148.349 37.6258C155.878 37.6258 163.433 37.1912 170.925 37.1912C173.604 37.1912 176.741 36.7024 179.375 37.2878C181.58 37.7776 184.041 37.166 186.136 37.9638C186.897 38.2538 188.789 38.495 189.613 38.495C191.352 38.495 193.26 39.1532 194.611 40.2334C196.469 41.7203 196.034 44.7934 196.904 46.7525C198.362 50.0318 198.305 54.2753 198.305 57.859C198.305 60.2215 199.174 62.2947 199.174 64.6678C199.174 66.8906 199.167 70.6431 200.26 72.6113C200.922 73.8022 200.912 77.3443 200.912 78.6716C200.912 81.1722 201.781 83.4345 201.781 85.8667C201.781 90.5586 201.347 95.1129 201.347 99.774C201.347 104.292 197.694 104.131 194.393 105.52C192.589 106.28 189.942 106.293 187.971 106.293C185.346 106.293 182.782 106.728 180.148 106.728C175.85 106.728 171.552 106.728 167.255 106.728C163.587 106.728 159.987 107.162 156.365 107.162C153.834 107.162 151.674 108.031 149.195 108.031C143.979 108.031 143.545 110.626 143.545 115.227C143.545 119.315 143.545 123.403 143.545 127.492C143.545 129.41 142.676 131.545 142.676 133.456C142.676 135.352 143.178 137.893 140.937 138.454" stroke="#DFCA0C" stroke-width="3" stroke-linecap="round"/>
<path d="M140.068 139.323C134.889 139.443 130.008 139.609 124.857 139.323C123.43 139.243 121.27 139.042 119.859 138.671C118.001 138.182 116.067 138.68 114.185 138.429C112.285 138.176 110.623 138.019 108.68 138.019C107.035 138.019 104.204 138.594 102.692 137.922C101.203 137.26 99.3436 137.306 97.7183 136.715C96.5164 136.278 96.7518 134.744 95.9557 134.108C94.5054 132.947 94.8692 128.029 94.8692 126.285C94.8692 122.412 94 118.67 94 114.792C94 107.87 94 100.949 94 94.0275C94 90.6424 94.7742 87.4529 94.8692 84.1282C94.9482 81.3629 94.9896 77.731 95.7143 75.1947C96.6283 71.9955 99.1017 71.9594 102.257 71.9594C105.799 71.9594 109.34 71.9594 112.881 71.9594C123.619 71.9594 134.489 72.394 145.283 72.394C149.275 72.394 153.267 72.394 157.259 72.394C161.403 72.394 166.938 73.9886 170.925 72.394" stroke="#DFCA0C" stroke-width="3" stroke-linecap="round"/>
<path d="M150.933 50.2293C153.612 45.9427 153.64 50.6639 151.995 50.6639C150.245 50.6639 150.954 48.6495 152.671 49.7947" stroke="#DFCA0C" stroke-width="3" stroke-linecap="round"/>
<path d="M200.043 69.7864C204.246 69.7864 208.427 70.221 212.598 70.221C215.471 70.221 218.309 71.0902 221.145 71.0902C222.928 71.0902 225.479 70.6617 227.157 71.3075C229.059 72.039 231.327 71.1127 233.29 71.5489C236.566 72.2769 240.691 72.8286 243.938 72.8286C246.003 72.8286 246.546 78.8211 246.546 80.4341C246.546 86.591 246.546 92.7479 246.546 98.9048C246.546 100.53 246.546 102.156 246.546 103.782C246.546 105.576 247.441 107.427 246.884 109.239C246.293 111.157 247.203 113.628 246.449 115.42C245.509 117.652 246.111 120.783 246.111 123.243C246.111 126.574 246.111 129.906 246.111 133.238" stroke="#DFCA0C" stroke-width="3" stroke-linecap="round"/>
<path d="M246.111 133.238C241.558 137.653 234.462 137.449 228.389 137.584C221.369 137.74 214.197 137.079 207.238 137.922C199.409 138.871 191.794 137.584 183.963 137.584C179.008 137.584 174.125 137.584 169.186 137.584" stroke="#DFCA0C" stroke-width="3" stroke-linecap="round"/>
<path d="M204.824 139.323C204.824 145.066 203.52 150.666 203.52 156.49C203.52 157.44 203.446 160.818 202.868 161.512C201.895 162.679 202.816 166.135 201.564 167.137C200.251 168.187 199.675 170.065 198.498 171.242C196.46 173.279 191.8 173.2 189.202 173.85C183.65 175.238 177.257 175.395 171.577 175.395C167.2 175.395 162.836 175.829 158.49 175.829C153.706 175.829 148.885 174.96 144.172 174.96C141.447 174.96 138.907 175.115 136.591 173.753C134.189 172.34 134.853 166.87 134.853 164.53C134.853 162.8 134.418 161.131 134.418 159.314C134.418 157.275 133.07 154.639 133.645 152.699C134.709 149.11 134.418 137.753 134.418 141.496" stroke="#DFCA0C" stroke-width="3" stroke-linecap="round"/>
<path d="M187.874 160.618C186.44 162.471 186.504 161.945 186.57 160.087C186.616 158.8 187.261 158.188 188.526 158.469C190.586 158.927 187.945 163.004 187.005 160.184" stroke="#DFCA0C" stroke-width="3" stroke-linecap="round"/>
</svg>
