<svg width="342" height="238" viewBox="0 0 342 238" fill="none" xmlns="http://www.w3.org/2000/svg">
<path d="M72.9066 45.9579C84.2743 47.4214 94.5013 45.1783 105.722 45.1783C111.973 45.1783 118.223 45.1783 124.474 45.1783C126.814 45.1783 130.104 44.5658 132.2 45.6114C134.448 46.7327 133.782 57.393 133.893 59.557C134.231 66.1454 134.631 72.5828 134.631 79.2195C134.631 90.995 135.412 102.951 135.412 114.906C135.412 119.011 137.484 147.679 133.849 148.081C127.922 148.739 121.518 149.68 115.445 148.255C106.603 146.179 96.9991 148.857 88.1857 147.259C85.7709 146.821 75.2389 147.762 74.4692 145.266C72.0574 137.445 72.9066 128.534 72.9066 120.45C72.9066 106.429 71.344 92.0291 71.344 77.9202C71.344 72.467 69.7813 67.1039 69.7813 61.5492C69.7813 56.0763 69 50.4831 69 45.1783" stroke="#2BB4AB" stroke-width="3" stroke-linecap="round"/>
<path d="M166 62C168.294 70.8259 171.187 77.6851 171.446 86.6716C171.466 87.3517 172.802 94.3578 173.435 93.9103C174.874 92.8913 175.816 91.1651 177.065 89.9268C178.589 88.417 178.456 86.2562 180.826 87.8709C183.494 89.6887 186.73 91.4516 188.909 93.6104C190.222 94.9113 193.173 98.4951 194.398 96.3089C194.912 95.3934 197.386 91.4468 196.949 90.5265C195.584 87.653 191.289 86.5822 189.946 83.5876C188.658 80.7159 194.676 76.6606 192.453 74.3358C189.319 71.0575 182.088 67.8347 177.671 67.3969C173.584 66.992 170.084 62.771 166 62.771" stroke="#2BB4AB" stroke-width="3" stroke-linecap="round"/>
<path d="M221.68 43.7811C221.68 50.6378 223.29 57.5817 223.29 64.3659C223.29 67.1847 223.826 69.8663 223.826 72.6369C223.826 75.3051 224.453 76.1806 227.404 75.97C236.842 75.2961 246.001 74.3343 255.515 74.3343C259.147 74.3343 262.902 74.8281 266.455 74.8281C270.021 74.8281 269.29 72.7996 267.588 70.1988C263.805 64.4173 265.884 54.2864 264.726 47.5462C264.336 45.2726 264.657 42.5265 263.653 40.448C262.168 37.3724 256.325 38.7815 253.697 38.7815C244.897 38.7815 236.074 38.2259 227.344 38.2259C225.958 38.2259 222.968 37.6432 221.68 38.3494C220.582 38.9509 221.143 42.0871 221.143 43.2256" stroke="#2BB4AB" stroke-width="3" stroke-linecap="round"/>
<path d="M225 86C233.251 87.1951 241.957 86.5413 250.278 86.5413C256.121 86.5413 261.635 87.624 267.403 87.624C269.322 87.624 270.486 87.1066 271.087 89.1276C271.592 90.825 271.208 93.1471 271.208 94.9017C271.208 99.414 271.315 103.747 271.721 108.194C272.566 117.445 272.839 126.698 272.839 136.072C272.839 138.909 272.839 141.746 272.839 144.583C272.839 145.486 273.239 147.69 272.778 148.493C272.148 149.591 268.397 148.599 267.403 148.372C264.972 147.819 262.153 148.309 259.671 148.252C256.636 148.182 253.607 147.711 250.52 147.711C244.928 147.711 239.482 148.252 233.94 148.252C233.366 148.252 230.327 148.637 230.013 148.011C229.087 146.167 229.349 143.035 229.349 141.004C229.349 137.614 227.718 134.368 227.718 130.93C227.718 127.01 228.262 123.204 228.262 119.321C228.262 115.285 227.718 111.39 227.718 107.382C227.718 103.268 226.178 99.6213 226.087 95.6235C226.02 92.6759 225 89.9065 225 87.0826" stroke="#2BB4AB" stroke-width="3" stroke-linecap="round"/>
<path d="M159.228 127.545C156.209 127.545 153.303 126.913 151.145 129.301C149.044 131.627 150.477 134.987 150.477 137.626C150.477 145.717 164.092 144.983 169.195 144.983C180.458 144.983 191.721 144.983 202.984 144.983C207.677 144.983 209 140.506 209 136.536C209 134.481 205.714 132.445 204.351 131.087C202.502 129.245 200.286 129.449 197.94 128.756C195.219 127.953 191.391 128.635 188.52 128.635C184.434 128.635 179.985 129.142 175.94 128.605C172.117 128.097 168.281 128.084 164.454 127.575C162.303 127.289 159.433 128.226 157.587 127" stroke="#2BB4AB" stroke-width="3" stroke-linecap="round"/>
</svg>
