<svg width="32" height="32" viewBox="0 0 32 32" fill="none" xmlns="http://www.w3.org/2000/svg">
<g opacity="0.85">
<path fill-rule="evenodd" clip-rule="evenodd" d="M15.9979 5.59998C13.1749 5.59998 12.8215 5.61216 11.7127 5.6609C10.6078 5.70964 9.84828 5.88837 9.19027 6.14426C8.50382 6.41234 7.92298 6.76572 7.3462 7.34656C6.76535 7.92334 6.41198 8.50418 6.14389 9.18657C5.888 9.84865 5.70928 10.6041 5.66054 11.709C5.61179 12.8219 5.59961 13.1753 5.59961 15.9983C5.59961 18.8212 5.61179 19.1746 5.66054 20.2835C5.70928 21.3883 5.888 22.1479 6.14389 22.8059C6.41198 23.4923 6.76535 24.0732 7.3462 24.65C7.92298 25.2267 8.50382 25.5842 9.1862 25.8482C9.84828 26.1041 10.6038 26.2828 11.7086 26.3315C12.8175 26.3803 13.1709 26.3925 15.9938 26.3925C18.8168 26.3925 19.1702 26.3803 20.2791 26.3315C21.3839 26.2828 22.1434 26.1041 22.8015 25.8482C23.4838 25.5842 24.0647 25.2267 24.6415 24.65C25.2182 24.0732 25.5757 23.4923 25.8397 22.8099C26.0956 22.1479 26.2743 21.3924 26.3231 20.2875C26.3718 19.1787 26.384 18.8253 26.384 16.0023C26.384 13.1793 26.3718 12.826 26.3231 11.7171C26.2743 10.6123 26.0956 9.85271 25.8397 9.19469C25.5838 8.50418 25.2304 7.92334 24.6496 7.34656C24.0728 6.76978 23.492 6.41234 22.8096 6.14832C22.1475 5.89243 21.392 5.71371 20.2872 5.66496C19.1742 5.61216 18.8209 5.59998 15.9979 5.59998ZM15.9976 10.6569C13.0487 10.6569 10.6563 13.0494 10.6563 15.9982C10.6563 18.9471 13.0487 21.3395 15.9976 21.3395C18.9464 21.3395 21.3389 18.9471 21.3389 15.9982C21.3389 13.0494 18.9464 10.6569 15.9976 10.6569ZM15.9976 19.463C14.0844 19.463 12.5328 17.9114 12.5328 15.9982C12.5328 14.0851 14.0844 12.5335 15.9976 12.5335C17.9107 12.5335 19.4623 14.0851 19.4623 15.9982C19.4623 17.9114 17.9107 19.463 15.9976 19.463ZM21.5501 11.6927C22.2366 11.6927 22.7971 11.1362 22.7971 10.4457C22.7971 9.75926 22.2366 9.19873 21.5501 9.19873C20.8637 9.19873 20.3031 9.7552 20.3031 10.4457C20.3031 11.1322 20.8596 11.6927 21.5501 11.6927Z" fill="black"/>
</g>
</svg>
