<svg width="44" height="44" viewBox="0 0 44 44" fill="none" xmlns="http://www.w3.org/2000/svg">
<path d="M21.269 41.1523C21.269 42.4607 19.888 43.3116 18.7142 42.7265L3.17605 34.9809C2.57798 34.6828 2.2002 34.0734 2.2002 33.4067V13.9438C2.2002 12.6354 3.58124 11.7845 4.75501 12.3696L20.2932 20.1152C20.8912 20.4133 21.269 21.0227 21.269 21.6894V41.1523Z" fill="black"/>
<path fill-rule="evenodd" clip-rule="evenodd" d="M20.8149 1.09639C20.814 1.09549 20.8148 1.09399 20.816 1.09422V1.09422C21.1957 1.16387 21.7334 1.33483 22.4099 1.60148C23.755 2.13162 25.5472 2.99875 27.5179 4.0287C31.2629 5.98595 35.5999 8.50342 38.6188 10.326C38.8693 10.4773 39.1943 10.3976 39.3469 10.1479V10.1479C39.4998 9.89748 39.4214 9.57111 39.1701 9.41939C36.1401 7.59006 31.7828 5.06057 28.0117 3.08966C26.0323 2.05517 24.1999 1.16687 22.8009 0.615484C22.1054 0.341363 21.4912 0.140038 21.0085 0.0514836C20.7695 0.00764318 20.5298 -0.0150281 20.3142 0.0110821C20.1046 0.0364773 19.8243 0.121265 19.6471 0.382578C19.4161 0.723208 19.5275 1.08653 19.6456 1.30729C19.7671 1.53466 19.9663 1.75857 20.1887 1.97014C20.6412 2.40052 21.3248 2.90406 22.1314 3.4451C23.5149 4.37314 25.3393 5.46316 27.1704 6.55718C27.4828 6.74386 27.7955 6.93066 28.1062 7.1168C30.2525 8.40266 32.2992 9.65314 33.6094 10.6434C33.7327 10.7366 33.8472 10.8259 33.953 10.9111C34.4086 11.2781 34.1815 11.7605 33.6313 11.5614V11.5614C33.0121 11.3375 32.2674 10.9579 31.4254 10.4629C29.9759 9.61059 28.3038 8.45614 26.5802 7.26609C26.3011 7.0734 26.0207 6.87978 25.7396 6.68635C23.7378 5.30871 21.7035 3.94074 19.9623 3.05122C19.0927 2.60698 18.2674 2.26681 17.5364 2.11089C16.8159 1.95719 16.0917 1.96275 15.5156 2.3404C15.2213 2.53324 14.9948 2.81544 14.9586 3.19223C14.9251 3.54109 15.0674 3.85942 15.2411 4.11684C15.5856 4.62733 16.2366 5.16419 17.0084 5.70026C18.4621 6.71003 20.58 7.87232 22.6834 9.02661C22.8474 9.11659 23.0112 9.20652 23.1747 9.29633C25.4601 10.5519 27.661 11.7809 29.0271 12.8202C29.7291 13.3543 30.1178 13.7716 30.2415 14.0547C30.2937 14.1744 30.2726 14.21 30.2721 14.2113C30.2659 14.2257 30.2235 14.3039 30.0174 14.4052C29.6363 14.5926 29.1427 14.6201 28.5026 14.4566C27.8612 14.2927 27.1231 13.949 26.3025 13.4633C24.7872 12.5665 23.0911 11.2481 21.3323 9.881C21.1828 9.76475 21.0328 9.64815 20.8824 9.53143C18.9835 8.05759 17.0248 6.56501 15.2302 5.61112C13.472 4.67654 11.6679 4.14776 10.2022 4.9483C9.8478 5.14189 9.55085 5.39434 9.39561 5.7335C9.23156 6.09191 9.265 6.45938 9.40366 6.78656C9.5362 7.09928 9.76919 7.39061 10.0424 7.65869C10.3198 7.93085 10.665 8.20434 11.0552 8.47712C12.5935 9.55252 15.0282 10.7494 17.4079 11.9191L17.445 11.9374C19.8685 13.1287 22.2314 14.2919 23.6945 15.3147C24.0566 15.5679 24.3509 15.804 24.5719 16.0208C24.7971 16.2417 24.9215 16.4188 24.977 16.5499C25.0264 16.6665 25.0118 16.7182 24.9972 16.7501C24.9737 16.8013 24.8945 16.9105 24.6471 17.0456C23.7073 17.5589 22.4354 17.3007 20.7887 16.3896C19.2165 15.5197 17.4866 14.1588 15.6902 12.7456C15.6386 12.705 15.5869 12.6643 15.5351 12.6236C13.7054 11.1845 11.8111 9.70576 10.0309 8.7588C8.27031 7.82227 6.45514 7.31567 4.87262 8.09358C4.24681 8.40121 3.80562 8.84911 3.68166 9.45349C3.56222 10.0359 3.768 10.6246 4.10658 11.1591C4.78121 12.224 6.17342 13.3755 7.90979 14.4676C11.277 16.5855 16.1962 18.6379 20.6555 19.5096C20.9429 19.5658 21.2176 19.3729 21.2686 19.0847V19.0847C21.3197 18.7963 21.1272 18.5216 20.8395 18.4652C16.5247 17.6184 11.737 15.6213 8.47722 13.5709C6.76827 12.496 5.54762 11.4483 5.00572 10.5929C4.73603 10.1672 4.68263 9.86546 4.72356 9.6659C4.75997 9.48834 4.89873 9.26286 5.34291 9.04452C6.43536 8.5075 7.83016 8.78986 9.53031 9.69423C11.2108 10.5882 13.0281 12.0023 14.8765 13.456C14.9409 13.5067 15.0054 13.5574 15.0699 13.6082C16.8338 14.996 18.6233 16.404 20.2726 17.3166C21.9529 18.2464 23.6903 18.7771 25.158 17.9755C25.5125 17.7819 25.8094 17.5295 25.9647 17.1903C26.1287 16.8319 26.0953 16.4644 25.9566 16.1372C25.8241 15.8245 25.5911 15.5332 25.3178 15.2651C25.0404 14.9929 24.6952 14.7194 24.305 14.4467C22.7668 13.3713 20.3321 12.1744 17.9524 11.0047L17.9153 10.9864C15.4918 9.79511 13.1289 8.63193 11.6658 7.60904C11.3036 7.35586 11.0094 7.11981 10.7883 6.90298C10.5632 6.68207 10.4388 6.50496 10.3833 6.37389C10.3338 6.25728 10.3485 6.20562 10.3631 6.17366C10.3865 6.12245 10.4657 6.0133 10.7132 5.87815C11.655 5.36377 12.994 5.62395 14.7299 6.5467C16.4296 7.45015 18.3161 8.88328 20.2291 10.368C20.3831 10.4876 20.5374 10.6075 20.6916 10.7275C22.4333 12.0815 24.183 13.4419 25.7596 14.375C26.6192 14.8837 27.4568 15.2838 28.2386 15.4836C29.0217 15.6837 29.7987 15.6948 30.4877 15.3562C30.8166 15.1945 31.1043 14.9646 31.2486 14.6312C31.3985 14.2847 31.3482 13.9331 31.2165 13.6316C30.9723 13.0723 30.3746 12.5117 29.6723 11.9773C28.2297 10.8799 25.95 9.61052 23.688 8.36775C23.5302 8.2811 23.3726 8.19456 23.2152 8.10818C21.0907 6.94212 19.0214 5.80632 17.6163 4.83033C16.8499 4.29802 16.3474 3.8569 16.1234 3.52502C16.0895 3.47478 16.0665 3.43346 16.0507 3.40035C16.0203 3.33633 16.0404 3.2652 16.0997 3.22634V3.22634C16.3261 3.07801 16.7053 3.01783 17.3139 3.14766C17.9121 3.27527 18.6417 3.56791 19.4773 3.99481C21.1467 4.84757 23.1249 6.1752 25.1355 7.55891C25.4133 7.75012 25.6918 7.94241 25.97 8.13451C27.6899 9.32211 29.3992 10.5024 30.8852 11.3761C31.7486 11.8837 32.5587 12.3013 33.2686 12.5581C33.9549 12.8064 34.6531 12.9446 35.2335 12.7545C35.5078 12.6646 35.8216 12.4799 35.9276 12.1108C36.0261 11.7682 35.8873 11.4515 35.753 11.2363C35.478 10.7957 34.9185 10.3023 34.2518 9.79848C32.8871 8.76702 30.7875 7.48626 28.6539 6.20801C28.3403 6.02011 28.0257 5.83217 27.7123 5.6449C25.8787 4.54933 24.0832 3.47649 22.725 2.56543C21.9266 2.02987 21.3062 1.56776 20.9228 1.20302C20.883 1.16521 20.8472 1.12967 20.8149 1.09639ZM20.4172 1.06803C20.4172 1.068 20.4182 1.06766 20.4205 1.06714C20.4184 1.06781 20.4173 1.06807 20.4172 1.06803ZM16.0137 3.30512V3.30512C16.0123 3.30502 16.0151 3.30523 16.0137 3.30512V3.30512ZM34.8981 11.8913C34.8983 11.8922 34.8983 11.8922 34.8981 11.8913V11.8913M34.9641 11.7218C34.9663 11.7201 34.9676 11.7194 34.9677 11.7194C34.9678 11.7195 34.9667 11.7203 34.9641 11.7218Z" fill="black"/>
<path fill-rule="evenodd" clip-rule="evenodd" d="M40.2426 13.1291C40.2667 13.0509 40.3672 13.0469 40.3989 13.1224C40.4906 13.3405 40.5908 13.6366 40.6952 14.0165C41.0476 15.3004 41.3802 17.2777 41.6801 19.5853C42.2521 23.9876 42.6935 29.4978 42.9374 33.428C42.9556 33.7208 43.2072 33.9429 43.5003 33.9255V33.9255C43.7935 33.9081 44.0172 33.6576 43.999 33.3647C43.7543 29.4221 43.3111 23.8848 42.7347 19.4491C42.4341 17.1357 42.0942 15.0962 41.7209 13.7366C41.5388 13.0735 41.3311 12.5019 41.0772 12.1484C40.9543 11.9774 40.7524 11.7603 40.4497 11.703C40.1027 11.6374 39.8298 11.8127 39.6594 11.9956C39.4536 12.2165 39.32 12.5126 39.226 12.8178C39.1296 13.1307 39.0611 13.4995 39.0124 13.9055C38.9149 14.7177 38.8901 15.7366 38.9081 16.8745C38.939 18.8193 39.0966 21.1705 39.255 23.5331C39.282 23.9363 39.3091 24.3398 39.3356 24.7417C39.5179 27.5128 39.6715 30.2042 39.6029 32.2391C39.5684 33.2606 39.4787 34.081 39.3229 34.6518C39.2449 34.9375 39.1583 35.1298 39.0763 35.2479V35.2479C39.0221 35.3259 38.9191 35.3131 38.8746 35.2291C38.8329 35.1503 38.786 35.0405 38.7382 34.8915C38.564 34.3496 38.4421 33.5058 38.3617 32.4245C38.224 30.5738 38.2154 28.1623 38.2065 25.6812C38.2051 25.2796 38.2037 24.8762 38.2017 24.473C38.1875 21.6014 38.1452 18.7355 37.8624 16.7306C37.7235 15.7457 37.5164 14.8805 37.1703 14.3297C36.9924 14.0466 36.7377 13.7824 36.3755 13.6811C36.0022 13.5768 35.6382 13.6792 35.321 13.8731C34.6707 14.2706 34.3072 14.9996 34.0989 15.821C33.8875 16.6542 33.8107 17.6811 33.8119 18.8104C33.814 20.9069 34.0873 23.4715 34.3591 26.0234C34.3802 26.2212 34.4013 26.4189 34.4222 26.6163C34.7155 29.3827 34.9823 32.0903 34.9047 34.2259C34.8659 35.2945 34.7415 36.1826 34.5101 36.8476C34.2785 37.5132 33.9664 37.884 33.5983 38.0468C33.412 38.1292 33.3311 38.1061 33.3005 38.0934C33.2564 38.0751 33.1666 38.0131 33.0606 37.8097C32.8408 37.3879 32.6896 36.6275 32.6131 35.5557C32.4741 33.6079 32.5948 30.9183 32.7195 28.1422C32.7301 27.9057 32.7408 27.6686 32.7513 27.4312C32.8839 24.439 32.9962 21.4054 32.7379 19.2839C32.611 18.2422 32.3846 17.3117 31.9455 16.7262C31.7132 16.4165 31.4001 16.1754 30.9945 16.0967C30.5968 16.0194 30.1906 16.1142 29.7967 16.3126C28.9866 16.7206 28.4749 17.4344 28.1695 18.2988C27.8673 19.1545 27.7549 20.1882 27.753 21.3089C27.7492 23.5384 28.1861 26.2681 28.6136 28.94L28.6188 28.9725C29.0525 31.6825 29.475 34.332 29.4713 36.4673C29.4695 37.5336 29.3606 38.4322 29.1152 39.127C28.8729 39.8129 28.5106 40.2677 28.0116 40.519C27.7478 40.6519 27.588 40.6604 27.4998 40.644C27.4222 40.6295 27.33 40.5831 27.2233 40.4376C26.9823 40.1088 26.7949 39.4481 26.6913 38.4391C26.4939 36.5165 26.6314 33.7455 26.7735 30.8823C26.7776 30.7997 26.7817 30.7171 26.7858 30.6343C26.9302 27.7199 27.0695 24.7315 26.8139 22.6265C26.6881 21.5911 26.4568 20.6606 25.9992 20.0681C25.7577 19.7554 25.438 19.5173 25.0303 19.4313C24.63 19.3468 24.213 19.4235 23.7978 19.6072C22.4426 20.2067 21.7094 21.6798 21.3324 23.4275C20.9497 25.2009 20.8978 27.4155 21.0391 29.7455C21.3084 34.185 22.2878 39.1623 23.1548 42.5822C23.2268 42.8664 23.5169 43.0349 23.8008 42.961V42.961C24.0851 42.8869 24.2555 42.5975 24.1834 42.3128C23.3274 38.9344 22.3644 34.0305 22.1006 29.6815C21.9617 27.3907 22.019 25.2866 22.372 23.6504C22.7306 21.9885 23.3594 20.9611 24.2292 20.5763C24.5093 20.4524 24.693 20.4439 24.8102 20.4686C24.9201 20.4918 25.0349 20.5573 25.1566 20.7149C25.4253 21.0629 25.6349 21.7392 25.7581 22.7539C26.0004 24.7491 25.8697 27.6341 25.7236 30.582C25.7186 30.6846 25.7135 30.7873 25.7084 30.89C25.5686 33.7024 25.4275 36.5422 25.6334 38.547C25.738 39.5661 25.9405 40.4846 26.3647 41.0632C26.5907 41.3714 26.8999 41.6107 27.3042 41.6861C27.6978 41.7595 28.1004 41.6621 28.4911 41.4653C29.3013 41.0573 29.8129 40.3436 30.1183 39.4791C30.4205 38.6235 30.5329 37.5897 30.5348 36.4691C30.5386 34.2396 30.1018 31.5099 29.6742 28.838L29.669 28.8055C29.2353 26.0954 28.8129 23.446 28.8165 21.3107C28.8183 20.2444 28.9272 19.3458 29.1726 18.651C29.4149 17.9651 29.7772 17.5103 30.2762 17.259C30.5368 17.1277 30.6981 17.1193 30.7913 17.1374C30.8766 17.1539 30.9779 17.2066 31.0938 17.3612C31.3512 17.7043 31.5571 18.3845 31.6822 19.4117C31.9277 21.4278 31.8227 24.3645 31.6889 27.3844C31.6781 27.6273 31.6672 27.8707 31.6562 28.1141C31.5324 30.8658 31.4086 33.6179 31.5523 35.6309C31.6295 36.7115 31.7876 37.6663 32.1169 38.2984C32.2854 38.622 32.53 38.9217 32.8909 39.0719C33.2652 39.2276 33.6596 39.1796 34.0296 39.016C34.7739 38.6867 35.2333 38.0044 35.5149 37.195C35.7967 36.385 35.9271 35.376 35.9675 34.2643C36.0483 32.0395 35.7712 29.2538 35.4798 26.5049C35.4594 26.3126 35.4389 26.1206 35.4185 25.9289C35.1447 23.3572 34.8774 20.8472 34.8753 18.8093C34.8742 17.7143 34.9503 16.7889 35.1299 16.0809C35.3124 15.3611 35.5778 14.9598 35.8769 14.7769C35.9559 14.7286 36.0104 14.7101 36.0425 14.7035C36.0713 14.6976 36.0838 14.7007 36.0884 14.702C36.0977 14.7046 36.166 14.7285 36.2691 14.8925C36.4848 15.2359 36.6714 15.9006 36.8093 16.8783C37.0802 18.7986 37.124 21.5885 37.1382 24.4782C37.1402 24.8776 37.1416 25.2787 37.143 25.6793C37.1518 28.1553 37.1604 30.6115 37.3011 32.5029C37.3824 33.5955 37.5104 34.5459 37.7254 35.2151C37.8314 35.5448 37.9757 35.863 38.1908 36.0924C38.4309 36.3485 38.7702 36.4984 39.1647 36.4118C39.5131 36.3354 39.7693 36.1124 39.9505 35.8515C40.1283 35.5956 40.2547 35.2758 40.349 34.9302C40.5379 34.2383 40.6305 33.319 40.6657 32.2747C40.7364 30.1782 40.5785 27.4338 40.3967 24.6723C40.3701 24.2671 40.3429 23.8615 40.3158 23.4572C40.1572 21.0921 40.0018 18.773 39.9714 16.8578C39.9536 15.7361 39.9793 14.7729 40.0683 14.0315C40.1128 13.6608 40.1715 13.3598 40.2426 13.1291V13.1291Z" fill="black"/>
</svg>
