<svg width="25" height="26" viewBox="0 0 25 26" fill="none" xmlns="http://www.w3.org/2000/svg">
<path d="M12.0846 23.3986C12.0846 24.1425 11.3 24.6263 10.633 24.2936L1.80458 19.8896C1.46477 19.7201 1.25012 19.3736 1.25012 18.9946V7.92827C1.25012 7.18436 2.0348 6.70052 2.70171 7.03321L11.5302 11.4372C11.87 11.6067 12.0846 11.9532 12.0846 12.3323V23.3986Z" fill="black"/>
<path fill-rule="evenodd" clip-rule="evenodd" d="M11.8267 0.623389C11.8262 0.622875 11.8266 0.622025 11.8273 0.622155C12.0431 0.661756 12.3486 0.758963 12.733 0.910571C13.4972 1.212 14.5155 1.70504 15.6352 2.29065C17.763 3.40351 20.2272 4.8349 21.9425 5.8712C22.0849 5.95721 22.2695 5.91188 22.3562 5.76992C22.4431 5.62754 22.3985 5.44196 22.2558 5.3557C20.5342 4.31557 18.0584 2.87735 15.9158 1.75673C14.7911 1.16853 13.75 0.663461 12.9551 0.349954C12.5599 0.194093 12.211 0.079623 11.9367 0.0292727C11.8009 0.00434578 11.6647 -0.00854474 11.5422 0.00630112C11.4231 0.0207404 11.2639 0.0689489 11.1632 0.217527C11.0319 0.411203 11.0952 0.61778 11.1623 0.743305C11.2314 0.872582 11.3445 0.999893 11.4709 1.12019C11.728 1.36489 12.1164 1.6512 12.5747 1.95882C13.3608 2.48649 14.3974 3.10626 15.4377 3.7283C15.6153 3.83444 15.7929 3.94066 15.9694 4.04649C17.1889 4.77761 18.3518 5.48861 19.0963 6.05164C19.1663 6.10464 19.2314 6.1554 19.2915 6.20385C19.5504 6.41251 19.4213 6.68679 19.1087 6.57363C18.7569 6.44628 18.3338 6.23046 17.8554 5.949C17.0318 5.46442 16.0818 4.80801 15.1024 4.13137C14.9439 4.02181 14.7845 3.91172 14.6248 3.80175C13.4874 3.01844 12.3316 2.24063 11.3423 1.73487C10.8482 1.48228 10.3793 1.28887 9.96394 1.20021C9.55456 1.11282 9.1431 1.11599 8.81572 1.33071C8.64855 1.44035 8.51986 1.60081 8.49928 1.81505C8.48022 2.0134 8.56108 2.1944 8.65977 2.34076C8.8555 2.63102 9.22541 2.93627 9.66391 3.24107C10.4899 3.81521 11.6933 4.47607 12.8883 5.13238C12.9815 5.18354 13.0746 5.23467 13.1675 5.28573C14.466 5.99964 15.7165 6.69841 16.4927 7.28936C16.8916 7.59301 17.1124 7.8303 17.1827 7.99128C17.2124 8.0593 17.2004 8.07958 17.2001 8.08028C17.1965 8.08848 17.1725 8.13297 17.0554 8.19057C16.8388 8.29708 16.5584 8.31275 16.1947 8.21975C15.8303 8.12656 15.4109 7.93116 14.9446 7.65501C14.0837 7.14511 13.12 6.3955 12.1207 5.61816C12.0357 5.55207 11.9505 5.48577 11.865 5.4194C10.7861 4.58141 9.67323 3.73275 8.65361 3.19039C7.65463 2.659 6.62958 2.35834 5.7968 2.81352C5.59542 2.92359 5.4267 3.06713 5.33849 3.25997C5.24528 3.46375 5.26428 3.67269 5.34307 3.85872C5.41837 4.03653 5.55075 4.20217 5.70601 4.3546C5.86362 4.50934 6.05976 4.66484 6.28145 4.81995C7.15544 5.4314 8.53881 6.1119 9.89089 6.777L9.91199 6.78738C11.289 7.46474 12.6315 8.1261 13.4628 8.7077C13.6686 8.85166 13.8358 8.98587 13.9614 9.10915C14.0893 9.23476 14.16 9.33546 14.1915 9.40998C14.2196 9.47628 14.2113 9.50566 14.203 9.52383C14.1897 9.55295 14.1447 9.61501 14.0041 9.69185C13.4701 9.9837 12.7474 9.83689 11.8118 9.31883C10.9185 8.82421 9.93563 8.05043 8.91498 7.24695C8.88563 7.22384 8.85625 7.20071 8.82684 7.17756C7.7872 6.3593 6.71094 5.51853 5.69946 4.9801C4.69912 4.44761 3.66778 4.15956 2.76862 4.60187C2.41305 4.77678 2.16238 5.03145 2.09194 5.37509C2.02408 5.70622 2.141 6.04097 2.33337 6.34486C2.71668 6.95036 3.50771 7.60506 4.49428 8.22603C6.40745 9.43023 9.20246 10.5972 11.7361 11.0928C11.8994 11.1248 12.0555 11.0151 12.0845 10.8513C12.1135 10.6872 12.0042 10.5311 11.8407 10.499C9.38908 10.0175 6.66884 8.88198 4.81668 7.71618C3.84569 7.10501 3.15214 6.50932 2.84424 6.02295C2.69101 5.7809 2.66067 5.60933 2.68393 5.49586C2.70462 5.39491 2.78345 5.2667 3.03583 5.14256C3.65654 4.83722 4.44903 4.99776 5.41502 5.51197C6.36987 6.02025 7.40242 6.82429 8.4526 7.65085C8.48921 7.67967 8.52585 7.70852 8.56251 7.73738C9.56472 8.52647 10.5815 9.32704 11.5186 9.84593C12.4733 10.3746 13.4605 10.6763 14.2944 10.2205C14.4958 10.1105 14.6645 9.96694 14.7527 9.7741C14.8459 9.57031 14.8269 9.36138 14.7481 9.17535C14.6728 8.99754 14.5404 8.83189 14.3852 8.67947C14.2276 8.52472 14.0314 8.36922 13.8097 8.21412C12.9357 7.60267 11.5524 6.92217 10.2003 6.25707L10.1792 6.24669C8.80221 5.56933 7.45968 4.90797 6.62837 4.32637C6.4226 4.18241 6.25539 4.0482 6.12981 3.92492C6.00188 3.79931 5.93121 3.69861 5.89965 3.62409C5.87157 3.55778 5.87988 3.52841 5.88819 3.51024C5.90151 3.48112 5.94652 3.41906 6.08711 3.34222C6.62221 3.04975 7.38301 3.19768 8.36934 3.72234C9.33505 4.23603 10.407 5.05088 11.4939 5.89508C11.5814 5.96306 11.669 6.03124 11.7567 6.09944C12.7462 6.86935 13.7404 7.64283 14.6362 8.17339C15.1246 8.46264 15.6005 8.69013 16.0447 8.80371C16.4896 8.91749 16.9311 8.92381 17.3226 8.73126C17.5094 8.63933 17.673 8.50858 17.7549 8.31907C17.8401 8.12205 17.8115 7.92213 17.7367 7.75067C17.598 7.43269 17.2583 7.11392 16.8593 6.81011C16.0397 6.18613 14.7444 5.46437 13.4591 4.75776C13.3695 4.70849 13.2799 4.65928 13.1905 4.61017C11.9834 3.94717 10.8077 3.30137 10.0093 2.74644C9.57389 2.44378 9.28836 2.19297 9.16111 2.00426C9.14185 1.9757 9.12873 1.95221 9.1198 1.93338C9.10252 1.89698 9.11396 1.85654 9.14765 1.83444C9.27623 1.7501 9.49171 1.71589 9.83752 1.78971C10.1774 1.86226 10.5919 2.02865 11.0667 2.27138C12.0152 2.75624 13.1392 3.51111 14.2816 4.29786C14.4394 4.40658 14.5977 4.51592 14.7557 4.62514C15.7329 5.30039 16.7041 5.9715 17.5484 6.46826C18.039 6.75688 18.4993 6.99431 18.9026 7.14032C19.2926 7.28148 19.6893 7.3601 20.0191 7.25197C20.1749 7.20086 20.3532 7.09585 20.4135 6.88602C20.4694 6.69121 20.3905 6.51111 20.3142 6.38875C20.158 6.13824 19.8401 5.85774 19.4613 5.57124C18.6859 4.98477 17.4929 4.25656 16.2807 3.52977C16.1025 3.42293 15.9237 3.31607 15.7457 3.20959C14.7039 2.58667 13.6837 1.97667 12.912 1.45866C12.4584 1.15415 12.1059 0.891401 11.888 0.684017C11.8654 0.662519 11.845 0.642311 11.8267 0.623389ZM11.6007 0.607265C11.6007 0.607244 11.6013 0.607052 11.6026 0.606757C11.6014 0.607138 11.6008 0.607286 11.6007 0.607265ZM9.09876 1.87924C9.09794 1.87918 9.09958 1.87929 9.09876 1.87924V1.87924ZM19.8285 6.7612C19.8286 6.76171 19.8286 6.76172 19.8285 6.7612ZM19.866 6.6648C19.8673 6.66386 19.868 6.66344 19.8681 6.66346C19.8681 6.66349 19.8675 6.66396 19.866 6.6648Z" fill="black"/>
<path fill-rule="evenodd" clip-rule="evenodd" d="M22.8651 7.46507C22.8788 7.42059 22.9359 7.41833 22.9539 7.46123C23.006 7.58526 23.063 7.75361 23.1222 7.96964C23.3225 8.69961 23.5115 9.82392 23.6819 11.1359C24.0069 13.639 24.2577 16.7721 24.3963 19.0066C24.4066 19.1731 24.5495 19.2994 24.7161 19.2895C24.8826 19.2796 25.0097 19.1372 24.9994 18.9707C24.8604 16.729 24.6086 13.5806 24.2811 11.0585C24.1103 9.74317 23.9171 8.58352 23.705 7.81048C23.6016 7.43347 23.4836 7.10843 23.3393 6.90746C23.2695 6.81023 23.1548 6.68679 22.9828 6.65424C22.7856 6.61692 22.6305 6.71659 22.5337 6.82058C22.4168 6.94616 22.3409 7.11454 22.2875 7.28808C22.2327 7.466 22.1938 7.67566 22.1661 7.90652C22.1107 8.3683 22.0966 8.94764 22.1069 9.59466C22.1244 10.7004 22.214 12.0372 22.304 13.3806C22.3193 13.6099 22.3347 13.8393 22.3497 14.0678C22.4534 15.6434 22.5406 17.1737 22.5016 18.3307C22.4821 18.9115 22.4311 19.3779 22.3426 19.7025C22.2982 19.865 22.249 19.9743 22.2024 20.0414C22.1716 20.0858 22.1131 20.0785 22.0879 20.0308C22.0642 19.9859 22.0375 19.9235 22.0103 19.8388C21.9114 19.5307 21.8421 19.0509 21.7964 18.4361C21.7182 17.3838 21.7133 16.0127 21.7083 14.602C21.7075 14.3736 21.7066 14.1443 21.7055 13.915C21.6974 12.2822 21.6734 10.6528 21.5127 9.51285C21.4338 8.95284 21.3161 8.46087 21.1195 8.14769C21.0184 7.98672 20.8737 7.8365 20.6679 7.77894C20.4558 7.7196 20.249 7.77782 20.0688 7.88807C19.6992 8.11412 19.4927 8.52857 19.3744 8.99563C19.2543 9.46938 19.2106 10.0532 19.2113 10.6954C19.2125 11.8874 19.3678 13.3456 19.5222 14.7965C19.5342 14.909 19.5462 15.0214 19.5581 15.1337C19.7247 16.7066 19.8763 18.2461 19.8322 19.4604C19.8102 20.0679 19.7395 20.5729 19.608 20.951C19.4765 21.3295 19.2991 21.5403 19.0899 21.6329C18.9841 21.6797 18.9381 21.6666 18.9207 21.6593C18.8957 21.6489 18.8447 21.6137 18.7845 21.498C18.6596 21.2582 18.5736 20.8258 18.5302 20.2164C18.4512 19.1089 18.5198 17.5797 18.5906 16.0012C18.5967 15.8668 18.6027 15.732 18.6087 15.597C18.684 13.8957 18.7479 12.1708 18.6011 10.9646C18.529 10.3723 18.4004 9.84324 18.1509 9.51034C18.0189 9.33422 17.841 9.19714 17.6105 9.15237C17.3845 9.10846 17.1538 9.16236 16.9299 9.27516C16.4697 9.50714 16.1789 9.91296 16.0054 10.4045C15.8337 10.891 15.7699 11.4788 15.7688 12.1159C15.7666 13.3836 16.0148 14.9357 16.2578 16.4548L16.2607 16.4733C16.5071 18.0142 16.7472 19.5206 16.7451 20.7348C16.7441 21.341 16.6822 21.8519 16.5428 22.247C16.4051 22.637 16.1993 22.8956 15.9157 23.0385C15.7658 23.114 15.675 23.1189 15.6249 23.1095C15.5808 23.1013 15.5284 23.0749 15.4678 22.9922C15.3309 22.8053 15.2244 22.4296 15.1655 21.8559C15.0534 20.7628 15.1315 19.1872 15.2122 17.5592C15.2146 17.5123 15.2169 17.4653 15.2192 17.4182C15.3013 15.7612 15.3804 14.062 15.2352 12.8651C15.1637 12.2764 15.0323 11.7473 14.7723 11.4105C14.6351 11.2327 14.4534 11.0973 14.2218 11.0484C13.9943 11.0004 13.7574 11.044 13.5215 11.1484C12.7515 11.4893 12.3349 12.3269 12.1207 13.3205C11.9033 14.3289 11.8738 15.5881 11.9541 16.9129C12.1071 19.4371 12.6635 22.2671 13.1561 24.2116C13.1971 24.3732 13.3619 24.469 13.5232 24.4269C13.6848 24.3848 13.7816 24.2203 13.7406 24.0584C13.2542 22.1375 12.7071 19.3492 12.5572 16.8765C12.4783 15.574 12.5109 14.3776 12.7114 13.4473C12.9152 12.5024 13.2724 11.9182 13.7666 11.6994C13.9258 11.629 14.0301 11.6241 14.0967 11.6382C14.1592 11.6514 14.2244 11.6886 14.2935 11.7782C14.4462 11.9761 14.5653 12.3606 14.6353 12.9376C14.773 14.072 14.6987 15.7123 14.6157 17.3885C14.6128 17.4468 14.61 17.5052 14.6071 17.5636C14.5277 19.1627 14.4475 20.7773 14.5644 21.9173C14.6239 22.4967 14.739 23.0189 14.98 23.3479C15.1084 23.5231 15.2841 23.6592 15.5138 23.7021C15.7374 23.7438 15.9662 23.6885 16.1882 23.5766C16.6485 23.3446 16.9392 22.9388 17.1127 22.4472C17.2844 21.9607 17.3483 21.3729 17.3493 20.7358C17.3515 19.4681 17.1033 17.9161 16.8604 16.3969L16.8574 16.3784C16.611 14.8375 16.371 13.3311 16.373 12.117C16.374 11.5107 16.4359 10.9998 16.5754 10.6047C16.713 10.2147 16.9189 9.95613 17.2024 9.81323C17.3505 9.73859 17.4421 9.73381 17.4951 9.74409C17.5435 9.75351 17.6011 9.78348 17.667 9.87136C17.8132 10.0664 17.9302 10.4532 18.0012 11.0372C18.1407 12.1836 18.0811 13.8533 18.0051 15.5704C17.9989 15.7085 17.9927 15.8469 17.9865 15.9853C17.9162 17.5498 17.8458 19.1146 17.9275 20.2592C17.9713 20.8736 18.0611 21.4165 18.2482 21.7759C18.344 21.9599 18.483 22.1303 18.688 22.2157C18.9007 22.3042 19.1248 22.277 19.335 22.1839C19.7579 21.9967 20.0189 21.6087 20.1789 21.1485C20.339 20.688 20.4131 20.1143 20.4361 19.4822C20.482 18.2172 20.3246 16.6333 20.159 15.0703C20.1474 14.961 20.1358 14.8518 20.1242 14.7428C19.9686 13.2806 19.8167 11.8534 19.8155 10.6947C19.8149 10.0721 19.8581 9.54599 19.9602 9.14341C20.0639 8.73415 20.2147 8.50596 20.3846 8.40199C20.4295 8.37453 20.4605 8.36402 20.4787 8.36027C20.4951 8.35688 20.5022 8.35865 20.5048 8.35939C20.5101 8.36087 20.5489 8.37449 20.6074 8.46773C20.73 8.66297 20.8361 9.04091 20.9144 9.59679C21.0683 10.6886 21.0932 12.2749 21.1013 13.918C21.1024 14.145 21.1032 14.3731 21.104 14.6009C21.109 16.0087 21.1139 17.4052 21.1938 18.4807C21.24 19.1019 21.3127 19.6423 21.4349 20.0228C21.4951 20.2102 21.5771 20.3911 21.6993 20.5216C21.8358 20.6672 22.0285 20.7524 22.2527 20.7032C22.4506 20.6598 22.5962 20.533 22.6992 20.3846C22.8002 20.2392 22.872 20.0573 22.9256 19.8608C23.0329 19.4674 23.0855 18.9447 23.1055 18.3509C23.1457 17.1589 23.056 15.5985 22.9527 14.0283C22.9375 13.7979 22.9221 13.5673 22.9067 13.3375C22.8166 11.9927 22.7283 10.6741 22.711 9.58512C22.7009 8.94734 22.7155 8.39971 22.7661 7.97816C22.7913 7.76736 22.8247 7.59626 22.8651 7.46507Z" fill="black"/>
</svg>
