<svg width="32" height="32" viewBox="0 0 32 32" fill="none" xmlns="http://www.w3.org/2000/svg">
<g opacity="0.85">
<path fill-rule="evenodd" clip-rule="evenodd" d="M6.2297 15.4655C11.8131 12.7559 15.5363 10.9696 17.3992 10.1066C22.7182 7.64236 23.8234 7.2143 24.5438 7.20016C24.7022 7.19705 25.0565 7.24079 25.2859 7.44819C25.4797 7.62332 25.533 7.85989 25.5585 8.02592C25.584 8.19196 25.6158 8.5702 25.5906 8.86575C25.3023 12.2391 24.0551 20.4252 23.4206 24.2033C23.1521 25.802 22.6235 26.338 22.1117 26.3905C20.9995 26.5045 20.1549 25.5718 19.0776 24.7852C17.3919 23.5544 16.4396 22.7882 14.8033 21.5872C12.9124 20.1992 14.1382 19.4363 15.2159 18.1896C15.4979 17.8633 20.3985 12.8984 20.4933 12.448C20.5052 12.3917 20.5162 12.1817 20.4042 12.0709C20.2922 11.96 20.1269 11.9979 20.0076 12.0281C19.8386 12.0708 17.1457 14.0534 11.9289 17.9757C11.1645 18.5604 10.4721 18.8452 9.85181 18.8303C9.16796 18.8138 7.85249 18.3996 6.87458 18.0456C5.67513 17.6113 4.72183 17.3817 4.80484 16.6441C4.84808 16.26 5.32303 15.8671 6.2297 15.4655Z" fill="black"/>
</g>
</svg>
