<svg width="44" height="44" viewBox="0 0 44 44" fill="none" xmlns="http://www.w3.org/2000/svg">
<path d="M11 5V4.5L10.5 5H11ZM33 5H33.5L33 4.5V5ZM33 39L32.6112 39.3144L33.5 39H33ZM11 39H10.5L11.3888 39.3144L11 39ZM22 25.4L22.3888 25.0856H21.6112L22 25.4ZM11 5.5H33V4.5H11V5.5ZM32.5 5V39H33.5V5H32.5ZM11.5 39V5H10.5V39H11.5ZM33.3888 38.6856L22.3888 25.0856L21.6112 25.7144L32.6112 39.3144L33.3888 38.6856ZM21.6112 25.0856L10.6112 38.6856L11.3888 39.3144L22.3888 25.7144L21.6112 25.0856Z" fill="black"/>
</svg>
