<svg width="44" height="44" viewBox="0 0 44 44" fill="none" xmlns="http://www.w3.org/2000/svg">
<path d="M27.4752 7.28148L30.0248 10.4685C30.1671 10.6464 30.3826 10.75 30.6105 10.75H39.25C39.6642 10.75 40 11.0858 40 11.5V37C40 37.4142 39.6642 37.75 39.25 37.75H4.75C4.33579 37.75 4 37.4142 4 37V11.5C4 11.0858 4.33579 10.75 4.75 10.75H13.3895C13.6174 10.75 13.8329 10.6464 13.9752 10.4685L16.5248 7.28148C16.6671 7.10357 16.8826 7 17.1105 7H26.8895C27.1174 7 27.3329 7.10357 27.4752 7.28148Z" stroke="black"/>
<circle cx="22.0002" cy="23.4998" r="9.75" stroke="black"/>
<circle cx="22" cy="23.5002" r="5.25" stroke="black"/>
</svg>
