<svg width="44" height="44" viewBox="0 0 44 44" fill="none" xmlns="http://www.w3.org/2000/svg">
<circle cx="21.5" cy="22.5" r="16" stroke="black"/>
<path d="M19.1166 27.4503L8 14L10.7117 10.9503L14 8.5L19 6.5H23L27.1833 7.5V10.9503C27.1833 12.7653 25.9733 14.2503 24.4944 14.2503H21.8055V17.5503C21.8055 18.4578 21.2005 19.2003 20.4611 19.2003H17.7722V22.5003H25.8389C26.5783 22.5003 27.1833 23.2428 27.1833 24.1503V29.1003H28.5278C29.7378 29.1003 31.7529 29.8337 32.4998 33.5003L28.3751 36.9374L23.3332 38.0837H21.2622L21.8055 32.4003C20.3266 32.4003 19.1166 30.9153 19.1166 29.1003V27.4503Z" fill="black"/>
</svg>
