<svg width="44" height="44" viewBox="0 0 44 44" fill="none" xmlns="http://www.w3.org/2000/svg">
<path d="M25.5948 10.413L25.1624 10.1621L25.1624 10.1621L25.5948 10.413ZM28.0314 6.21496L28.4638 6.46595L28.4638 6.46595L28.0314 6.21496ZM32.8015 8.95451L32.3691 8.70352L32.3691 8.70352L32.8015 8.95451ZM30.3229 13.225L29.8905 12.9741L29.8905 12.9741L30.3229 13.225ZM33.6609 18.432L34.0934 18.683L34.0934 18.683L33.6609 18.432ZM29.567 35.5671L29.1346 35.3161L29.1346 35.3161L29.567 35.5671ZM16.0235 39.177L15.7744 39.6106L15.7744 39.6106L16.0235 39.177ZM14.5961 38.3572L14.8451 37.9237L14.8451 37.9237L14.5961 38.3572ZM9.33722 31.8149L9.8144 31.6656L9.8144 31.6656L9.33722 31.8149ZM5.61717 19.9272L6.09435 19.7779L6.09435 19.7779L5.61717 19.9272ZM10.5429 18.3975L11.0199 18.2474L11.0199 18.2474L10.5429 18.3975ZM11.8188 22.4509L11.3419 22.601L11.3419 22.601L11.8188 22.4509ZM12.2221 22.4952L12.6545 22.7462L12.6545 22.7462L12.2221 22.4952ZM34.3604 11.7478L34.6094 11.3142L34.6094 11.3142L34.3604 11.7478ZM24.7906 6.25176L25.0396 5.81818L25.0396 5.81818L24.7906 6.25176ZM25.9179 9.78216L26.3842 9.96256L26.3842 9.96256L25.9179 9.78216ZM37.2873 17.2248L37.0383 17.6584L37.2873 17.2248ZM35.093 15.9646L35.5255 16.2156L35.5255 16.2156L35.093 15.9646ZM7.19001 16.7556L7.36182 17.2252L7.36182 17.2252L7.19001 16.7556ZM31.7935 5.21221L31.5445 5.6458L31.7935 5.21221ZM38.0495 20.9524L38.4819 21.2034L38.0495 20.9524ZM38.0495 20.9524L38.4819 21.2034L38.0495 20.9524ZM21.0029 7.36634L21.4354 7.61734L21.0029 7.36634ZM21.0029 7.36635L20.5705 7.11536L21.0029 7.36635ZM25.1624 10.1621L20.163 18.7756L21.0279 19.2776L26.0272 10.664L25.1624 10.1621ZM26.0272 10.664L28.4638 6.46595L27.5989 5.96397L25.1624 10.1621L26.0272 10.664ZM32.3691 8.70352L29.8905 12.9741L30.7553 13.476L33.234 9.2055L32.3691 8.70352ZM29.8905 12.9741L24.9332 21.5151L25.7981 22.0171L30.7553 13.476L29.8905 12.9741ZM33.2285 18.181L29.7033 24.2547L30.5682 24.7567L34.0934 18.683L33.2285 18.181ZM37.617 20.7014L29.1346 35.3161L29.9995 35.8181L38.4819 21.2034L37.617 20.7014ZM16.2725 38.7434L14.8451 37.9237L14.3471 38.7908L15.7744 39.6106L16.2725 38.7434ZM9.8144 31.6656L6.09435 19.7779L5.13999 20.0765L8.86003 31.9642L9.8144 31.6656ZM10.066 18.5476L11.3419 22.601L12.2957 22.3008L11.0199 18.2474L10.066 18.5476ZM30.3229 13.225C30.7553 13.476 30.7552 13.4762 30.7552 13.4764C30.7551 13.4764 30.755 13.4765 30.755 13.4766C30.7549 13.4768 30.7548 13.4769 30.7548 13.4769C30.7547 13.4771 30.7548 13.477 30.7549 13.4768C30.7551 13.4764 30.7557 13.4754 30.7567 13.4737C30.7587 13.4704 30.7623 13.4645 30.7673 13.4563C30.7774 13.44 30.7935 13.4146 30.8153 13.3817C30.859 13.3158 30.9252 13.2208 31.0121 13.1098C31.1874 12.8858 31.4388 12.6072 31.7498 12.3708C32.0612 12.1342 32.4146 11.9532 32.7982 11.8951C33.1721 11.8385 33.6089 11.8928 34.1114 12.1814L34.6094 11.3142C33.9194 10.9179 33.2552 10.8145 32.6484 10.9064C32.0514 10.9968 31.5446 11.2708 31.1447 11.5747C30.7445 11.8788 30.4337 12.2264 30.2246 12.4934C30.1193 12.6279 30.0378 12.7446 29.9818 12.8291C29.9538 12.8714 29.932 12.9058 29.9168 12.9305C29.9091 12.9428 29.9031 12.9528 29.8987 12.9601C29.8965 12.9638 29.8947 12.9668 29.8933 12.9691C29.8927 12.9703 29.8921 12.9713 29.8916 12.9721C29.8913 12.9725 29.8911 12.9729 29.8909 12.9732C29.8909 12.9734 29.8907 12.9736 29.8907 12.9737C29.8906 12.9739 29.8905 12.9741 30.3229 13.225ZM21.4354 7.61734C21.4234 7.63794 21.7362 7.09836 22.2964 6.71397C22.5705 6.5259 22.8894 6.38498 23.249 6.35325C23.6033 6.32198 24.0331 6.3933 24.5416 6.68534L25.0396 5.81818C24.3704 5.43381 23.7378 5.30624 23.1611 5.35712C22.5897 5.40753 22.109 5.62978 21.7306 5.88943C20.9858 6.40051 20.5825 7.09463 20.5705 7.11535L21.4354 7.61734ZM24.5416 6.68534C25.3206 7.1327 25.5849 7.69619 25.6522 8.20789C25.7235 8.74965 25.5771 9.27716 25.4516 9.60176L26.3842 9.96256C26.5373 9.56687 26.7462 8.85693 26.6437 8.07745C26.5372 7.2679 26.0985 6.42633 25.0396 5.81818L24.5416 6.68534ZM33.6609 18.432C34.0934 18.683 34.0933 18.6832 34.0932 18.6834C34.0932 18.6834 34.0931 18.6836 34.093 18.6837C34.0929 18.6838 34.0928 18.684 34.0928 18.6841C34.0926 18.6843 34.0926 18.6844 34.0926 18.6843C34.0927 18.6841 34.0932 18.6834 34.0939 18.6821C34.0954 18.6796 34.0983 18.6749 34.1024 18.6683C34.1107 18.655 34.1241 18.6338 34.1425 18.6063C34.1794 18.5511 34.2357 18.4711 34.3101 18.3777C34.4605 18.1889 34.6764 17.9556 34.9451 17.7604C35.2135 17.5654 35.5194 17.4192 35.8556 17.3781C36.1841 17.338 36.5771 17.3935 37.0383 17.6584L37.5363 16.7912C36.9004 16.426 36.2915 16.3174 35.7343 16.3855C35.1849 16.4526 34.7214 16.6869 34.3574 16.9513C33.9938 17.2154 33.7146 17.5203 33.5279 17.7547C33.4337 17.8729 33.3611 17.9758 33.3111 18.0507C33.286 18.0881 33.2665 18.1188 33.2527 18.141C33.2458 18.1521 33.2404 18.1611 33.2363 18.1678C33.2343 18.1712 33.2326 18.174 33.2313 18.1762C33.2307 18.1773 33.2301 18.1783 33.2296 18.1791C33.2294 18.1795 33.2292 18.1799 33.229 18.1802C33.2289 18.1803 33.2288 18.1806 33.2287 18.1806C33.2286 18.1809 33.2285 18.181 33.6609 18.432ZM37.0383 17.6584C37.4995 17.9232 37.7435 18.2335 37.8722 18.5351C38.004 18.8438 38.0296 19.1793 37.9942 19.5074C37.9218 20.1762 37.6064 20.7198 37.617 20.7014L38.4819 21.2034C38.4927 21.1848 38.8932 20.4947 38.9884 19.6148C39.0366 19.1685 39.0088 18.6509 38.792 18.1426C38.572 17.6271 38.1722 17.1564 37.5363 16.7912L37.0383 17.6584ZM34.1114 12.1814C34.6139 12.47 34.8787 12.8185 35.0157 13.1673C35.1563 13.5255 35.1756 13.9192 35.1253 14.3053C35.0751 14.6909 34.9583 15.0465 34.851 15.3095C34.7979 15.4397 34.7483 15.5443 34.7128 15.6148C34.695 15.65 34.6809 15.6766 34.6718 15.6935C34.6672 15.7019 34.6638 15.7079 34.6619 15.7113C34.661 15.713 34.6604 15.714 34.6601 15.7144C34.66 15.7146 34.66 15.7147 34.6601 15.7145C34.6601 15.7145 34.6602 15.7144 34.6603 15.7142C34.6603 15.7141 34.6604 15.714 34.6604 15.7139C34.6605 15.7138 34.6606 15.7136 35.093 15.9646C35.5255 16.2156 35.5256 16.2154 35.5257 16.2152C35.5258 16.2151 35.5259 16.2149 35.526 16.2148C35.5262 16.2144 35.5264 16.2141 35.5266 16.2137C35.5271 16.2128 35.5277 16.2118 35.5283 16.2107C35.5297 16.2083 35.5314 16.2053 35.5335 16.2015C35.5377 16.1941 35.5433 16.1839 35.5503 16.1712C35.5642 16.1456 35.5832 16.1097 35.606 16.0644C35.6516 15.9739 35.7124 15.8453 35.7769 15.6873C35.9049 15.3736 36.0522 14.9318 36.1169 14.4344C36.1816 13.9375 36.1668 13.3627 35.9465 12.8018C35.7225 12.2315 35.2995 11.7105 34.6094 11.3142L34.1114 12.1814ZM34.6606 15.7136L33.2285 18.181L34.0934 18.683L35.5255 16.2156L34.6606 15.7136ZM6.09435 19.7779C5.76619 18.7292 6.32107 17.606 7.36182 17.2252L7.01821 16.2861C5.47959 16.849 4.6513 18.5149 5.13999 20.0765L6.09435 19.7779ZM11.3419 22.601C11.5305 23.2002 12.3407 23.2869 12.6545 22.7462L11.7896 22.2442C11.9105 22.036 12.2224 22.0679 12.2957 22.3008L11.3419 22.601ZM31.5445 5.6458C32.6226 6.26496 32.9899 7.6339 32.3691 8.70352L33.234 9.2055C34.1342 7.65451 33.5989 5.67248 32.0425 4.77863L31.5445 5.6458ZM7.36182 17.2252C8.47999 16.8161 9.71162 17.4218 10.066 18.5476L11.0199 18.2474C10.493 16.5736 8.66795 15.6825 7.01821 16.2861L7.36182 17.2252ZM28.4638 6.46595C29.0855 5.39477 30.4649 5.02576 31.5445 5.6458L32.0425 4.77863C30.4876 3.88566 28.4982 4.41454 27.5989 5.96397L28.4638 6.46595ZM14.8451 37.9237C12.4364 36.5403 10.6406 34.3058 9.8144 31.6656L8.86003 31.9642C9.7617 34.8456 11.721 37.2827 14.3471 38.7908L14.8451 37.9237ZM26.0272 10.664C26.143 10.4645 26.2824 10.2258 26.3842 9.96256L25.4516 9.60176C25.3827 9.77987 25.2842 9.95204 25.1624 10.1621L26.0272 10.664ZM29.1346 35.3161C26.5355 39.7941 20.7769 41.3304 16.2725 38.7434L15.7744 39.6106C20.7541 42.4705 27.1228 40.7744 29.9995 35.8181L29.1346 35.3161ZM12.6545 22.7462L21.4354 7.61734L20.5705 7.11536L11.7896 22.2442L12.6545 22.7462ZM38.4819 21.2034L38.4819 21.2034L37.617 20.7014L37.617 20.7014L38.4819 21.2034ZM20.5705 7.11535L20.5705 7.11536L21.4354 7.61734L21.4354 7.61734L20.5705 7.11535Z" fill="black"/>
</svg>
