<svg width="47" height="46" viewBox="0 0 47 46" fill="none" xmlns="http://www.w3.org/2000/svg">
<path d="M25.5948 12.4133L25.1624 12.1623L25.1624 12.1623L25.5948 12.4133ZM28.0314 8.21518L28.4638 8.46617L28.4638 8.46617L28.0314 8.21518ZM32.8015 10.9547L32.3691 10.7037L32.3691 10.7037L32.8015 10.9547ZM30.3229 15.2253L29.8905 14.9743L29.8905 14.9743L30.3229 15.2253ZM33.6609 20.4323L34.0934 20.6833L34.0934 20.6833L33.6609 20.4323ZM29.567 37.5674L29.1346 37.3164L29.1346 37.3164L29.567 37.5674ZM16.0235 41.1772L15.7744 41.6108L15.7744 41.6108L16.0235 41.1772ZM14.5961 40.3575L14.8451 39.9239L14.8451 39.9239L14.5961 40.3575ZM9.33722 33.8151L9.8144 33.6658L9.8144 33.6658L9.33722 33.8151ZM5.61717 21.9274L6.09435 21.7781L6.09435 21.7781L5.61717 21.9274ZM10.5429 20.3977L11.0199 20.2476L11.0199 20.2476L10.5429 20.3977ZM11.8188 24.4511L11.3419 24.6012L11.3419 24.6012L11.8188 24.4511ZM12.2221 24.4954L12.6545 24.7464L12.6545 24.7464L12.2221 24.4954ZM34.3604 13.748L34.6094 13.3144L34.6094 13.3144L34.3604 13.748ZM24.7906 8.25198L25.0396 7.8184L25.0396 7.8184L24.7906 8.25198ZM25.9179 11.7824L26.3842 11.9628L26.3842 11.9628L25.9179 11.7824ZM37.2873 19.225L37.0383 19.6586L37.2873 19.225ZM35.093 17.9648L35.5255 18.2158L35.5255 18.2158L35.093 17.9648ZM7.19001 18.7558L7.36182 19.2254L7.36182 19.2254L7.19001 18.7558ZM31.7935 7.21244L31.5445 7.64602L31.7935 7.21244ZM38.0495 22.9527L38.4819 23.2036L38.0495 22.9527ZM38.0495 22.9526L38.4819 23.2036L38.0495 22.9526ZM21.0029 9.36656L21.4354 9.61756L21.0029 9.36656ZM21.0029 9.36657L21.4354 9.61756L21.0029 9.36657ZM25.1624 12.1623L20.163 20.7758L21.0279 21.2778L26.0272 12.6643L25.1624 12.1623ZM26.0272 12.6643L28.4638 8.46617L27.5989 7.96419L25.1624 12.1623L26.0272 12.6643ZM32.3691 10.7037L29.8905 14.9743L30.7553 15.4763L33.234 11.2057L32.3691 10.7037ZM29.8905 14.9743L24.9332 23.5154L25.7981 24.0174L30.7553 15.4763L29.8905 14.9743ZM33.2285 20.1813L29.7033 26.2549L30.5682 26.7569L34.0934 20.6833L33.2285 20.1813ZM37.617 22.7017L29.1346 37.3164L29.9995 37.8183L38.4819 23.2036L37.617 22.7017ZM16.2725 40.7436L14.8451 39.9239L14.3471 40.791L15.7744 41.6108L16.2725 40.7436ZM9.8144 33.6658L6.09435 21.7781L5.13999 22.0768L8.86003 33.9644L9.8144 33.6658ZM10.066 20.5478L11.3419 24.6012L12.2957 24.301L11.0199 20.2476L10.066 20.5478ZM30.3229 15.2253C30.7553 15.4763 30.7552 15.4764 30.7552 15.4766C30.7551 15.4766 30.755 15.4768 30.755 15.4768C30.7549 15.477 30.7548 15.4771 30.7548 15.4772C30.7547 15.4773 30.7548 15.4773 30.7549 15.4771C30.7551 15.4767 30.7557 15.4756 30.7567 15.4739C30.7587 15.4706 30.7623 15.4647 30.7673 15.4566C30.7774 15.4402 30.7935 15.4148 30.8153 15.3819C30.859 15.316 30.9252 15.221 31.0121 15.11C31.1874 14.886 31.4388 14.6074 31.7498 14.3711C32.0612 14.1344 32.4146 13.9534 32.7982 13.8953C33.1721 13.8387 33.6089 13.893 34.1114 14.1816L34.6094 13.3144C33.9194 12.9181 33.2552 12.8147 32.6484 12.9066C32.0514 12.9971 31.5446 13.271 31.1447 13.5749C30.7445 13.8791 30.4337 14.2266 30.2246 14.4936C30.1193 14.6282 30.0378 14.7449 29.9818 14.8293C29.9538 14.8716 29.932 14.906 29.9168 14.9307C29.9091 14.9431 29.9031 14.953 29.8987 14.9604C29.8965 14.964 29.8947 14.967 29.8933 14.9694C29.8927 14.9705 29.8921 14.9715 29.8916 14.9723C29.8913 14.9728 29.8911 14.9731 29.8909 14.9734C29.8909 14.9736 29.8907 14.9738 29.8907 14.9739C29.8906 14.9741 29.8905 14.9743 30.3229 15.2253ZM21.4354 9.61756C21.4234 9.63816 21.7362 9.09859 22.2964 8.7142C22.5705 8.52612 22.8894 8.3852 23.249 8.35347C23.6033 8.32221 24.0331 8.39353 24.5416 8.68557L25.0396 7.8184C24.3704 7.43404 23.7378 7.30646 23.1611 7.35734C22.5897 7.40775 22.109 7.63 21.7306 7.88966C20.9858 8.40073 20.5825 9.09485 20.5705 9.11557L21.4354 9.61756ZM24.5416 8.68557C25.3206 9.13292 25.5849 9.69641 25.6522 10.2081C25.7235 10.7499 25.5771 11.2774 25.4516 11.602L26.3842 11.9628C26.5373 11.5671 26.7462 10.8572 26.6437 10.0777C26.5372 9.26812 26.0985 8.42655 25.0396 7.8184L24.5416 8.68557ZM33.6609 20.4323C34.0934 20.6833 34.0933 20.6834 34.0932 20.6836C34.0932 20.6836 34.0931 20.6838 34.093 20.6839C34.0929 20.6841 34.0928 20.6842 34.0928 20.6843C34.0926 20.6845 34.0926 20.6846 34.0926 20.6845C34.0927 20.6844 34.0932 20.6836 34.0939 20.6824C34.0954 20.6799 34.0983 20.6752 34.1024 20.6685C34.1107 20.6552 34.1241 20.634 34.1425 20.6065C34.1794 20.5513 34.2357 20.4713 34.3101 20.3779C34.4605 20.1891 34.6764 19.9558 34.9451 19.7606C35.2135 19.5657 35.5194 19.4194 35.8556 19.3783C36.1841 19.3382 36.5771 19.3938 37.0383 19.6586L37.5363 18.7915C36.9004 18.4262 36.2915 18.3176 35.7343 18.3857C35.1849 18.4528 34.7214 18.6872 34.3574 18.9515C33.9938 19.2157 33.7146 19.5205 33.5279 19.7549C33.4337 19.8731 33.3611 19.976 33.3111 20.0509C33.286 20.0884 33.2665 20.119 33.2527 20.1412C33.2458 20.1523 33.2404 20.1613 33.2363 20.1681C33.2343 20.1714 33.2326 20.1742 33.2313 20.1765C33.2307 20.1776 33.2301 20.1785 33.2296 20.1793C33.2294 20.1797 33.2292 20.1801 33.229 20.1804C33.2289 20.1806 33.2288 20.1808 33.2287 20.1809C33.2286 20.1811 33.2285 20.1813 33.6609 20.4323ZM37.0383 19.6586C37.4995 19.9235 37.7435 20.2337 37.8722 20.5353C38.004 20.8441 38.0296 21.1795 37.9942 21.5076C37.9218 22.1764 37.6064 22.72 37.617 22.7017L38.4819 23.2036C38.4927 23.1851 38.8932 22.4949 38.9884 21.6151C39.0366 21.1687 39.0088 20.6511 38.792 20.1428C38.572 19.6274 38.1722 19.1567 37.5363 18.7915L37.0383 19.6586ZM34.1114 14.1816C34.6139 14.4702 34.8787 14.8188 35.0157 15.1676C35.1563 15.5257 35.1756 15.9195 35.1253 16.3055C35.0751 16.6912 34.9583 17.0467 34.851 17.3097C34.7979 17.44 34.7483 17.5445 34.7128 17.6151C34.695 17.6503 34.6809 17.6768 34.6718 17.6937C34.6672 17.7021 34.6638 17.7081 34.6619 17.7115C34.661 17.7132 34.6604 17.7143 34.6601 17.7147C34.66 17.7149 34.66 17.7149 34.6601 17.7148C34.6601 17.7147 34.6602 17.7146 34.6603 17.7144C34.6603 17.7144 34.6604 17.7142 34.6604 17.7142C34.6605 17.714 34.6606 17.7139 35.093 17.9648C35.5255 18.2158 35.5256 18.2156 35.5257 18.2154C35.5258 18.2154 35.5259 18.2152 35.526 18.215C35.5262 18.2147 35.5264 18.2143 35.5266 18.2139C35.5271 18.2131 35.5277 18.2121 35.5283 18.2109C35.5297 18.2085 35.5314 18.2055 35.5335 18.2018C35.5377 18.1943 35.5433 18.1841 35.5503 18.1714C35.5642 18.1459 35.5832 18.1099 35.606 18.0646C35.6516 17.9741 35.7124 17.8455 35.7769 17.6875C35.9049 17.3739 36.0522 16.932 36.1169 16.4347C36.1816 15.9378 36.1668 15.3629 35.9465 14.802C35.7225 14.2317 35.2995 13.7107 34.6094 13.3144L34.1114 14.1816ZM34.6606 17.7138L33.2285 20.1813L34.0934 20.6833L35.5255 18.2158L34.6606 17.7138ZM6.09435 21.7781C5.76619 20.7294 6.32107 19.6062 7.36182 19.2254L7.01821 18.2863C5.47959 18.8492 4.6513 20.5151 5.13999 22.0768L6.09435 21.7781ZM11.3419 24.6012C11.5305 25.2004 12.3407 25.2871 12.6545 24.7464L11.7896 24.2444C11.9105 24.0362 12.2224 24.0681 12.2957 24.301L11.3419 24.6012ZM31.5445 7.64602C32.6226 8.26518 32.9899 9.63412 32.3691 10.7037L33.234 11.2057C34.1342 9.65473 33.5989 7.67271 32.0425 6.77885L31.5445 7.64602ZM7.36182 19.2254C8.47999 18.8163 9.71162 19.422 10.066 20.5478L11.0199 20.2476C10.493 18.5738 8.66795 17.6827 7.01821 18.2863L7.36182 19.2254ZM28.4638 8.46617C29.0855 7.39499 30.4649 7.02598 31.5445 7.64602L32.0425 6.77885C30.4876 5.88588 28.4982 6.41476 27.5989 7.96419L28.4638 8.46617ZM14.8451 39.9239C12.4364 38.5406 10.6406 36.306 9.8144 33.6658L8.86003 33.9644C9.7617 36.8458 11.721 39.2829 14.3471 40.791L14.8451 39.9239ZM26.0272 12.6643C26.143 12.4647 26.2824 12.226 26.3842 11.9628L25.4516 11.602C25.3827 11.7801 25.2842 11.9523 25.1624 12.1623L26.0272 12.6643ZM29.1346 37.3164C26.5355 41.7943 20.7769 43.3306 16.2725 40.7436L15.7744 41.6108C20.7541 44.4707 27.1228 42.7746 29.9995 37.8183L29.1346 37.3164ZM35.1281 0.0950418L34.1281 6.09504L35.1145 6.25944L36.1145 0.259441L35.1281 0.0950418ZM44.6816 2.60794L39.4687 7.20617L40.1302 7.95611L45.3431 3.35788L44.6816 2.60794ZM39.5745 13.6005L46.4003 14.99L46.5997 14.01L39.7739 12.6206L39.5745 13.6005ZM12.6545 24.7464L21.4354 9.61756L20.5705 9.11558L11.7896 24.2444L12.6545 24.7464ZM38.4819 23.2036L38.4819 23.2036L37.617 22.7017L37.617 22.7017L38.4819 23.2036ZM20.5705 9.11557L20.5705 9.11558L21.4354 9.61756L21.4354 9.61756L20.5705 9.11557Z" fill="black"/>
</svg>
