<svg width="48" height="49" viewBox="0 0 48 49" fill="none" xmlns="http://www.w3.org/2000/svg">
<path d="M25.0871 27.008L30.0444 18.4218M30.0444 18.4218L32.5231 14.1286C33.2836 12.8114 32.8322 11.127 31.515 10.3665V10.3665C30.1978 9.60602 28.5134 10.0573 27.7529 11.3746L20.317 24.254L25.3163 15.5949C25.4352 15.389 25.554 15.1825 25.6394 14.9607C25.9181 14.2366 26.35 12.4727 24.5121 11.4116C22.1565 10.0516 20.7244 12.532 20.7244 12.532C20.7244 12.532 20.7244 12.5321 20.7244 12.532L13.3436 25.316L11.9436 27.741C11.8471 27.908 11.598 27.8805 11.5403 27.6964L10.2644 23.6215C9.82382 22.2143 8.29548 21.4619 6.91153 21.971V21.971C5.62184 22.4454 4.93026 23.8473 5.33868 25.1594L9.05873 37.11C9.92267 39.8854 11.8003 42.2336 14.3176 43.6869L15.745 44.511C20.487 47.2489 26.5507 45.6241 29.2885 40.8821V40.8821L37.771 26.19C37.771 26.19 37.771 26.19 37.771 26.19C37.771 26.19 39.2031 23.7095 37.0088 22.4427C34.8146 21.1758 33.3825 23.6563 33.3825 23.6563M30.0444 18.4218C30.0444 18.4218 31.6968 15.5597 34.0819 16.9367C36.467 18.3137 34.8146 21.1758 34.8146 21.1758C34.8146 21.1758 34.8146 21.1758 34.8146 21.1758L33.3825 23.6563M33.3825 23.6563L29.8573 29.7621" stroke="black"/>
<line x1="36.0816" y1="0.10024" x2="34.6848" y2="6.92604" stroke="black"/>
<line x1="45.6125" y1="3.4233" x2="40.3996" y2="8.04586" stroke="black"/>
<line x1="40.2746" y1="13.6046" x2="47.1004" y2="15.0014" stroke="black"/>
</svg>
