<svg width="44" height="44" viewBox="0 0 44 44" fill="none" xmlns="http://www.w3.org/2000/svg">
<path d="M12 10H19V9H12V10ZM12 26C7.58172 26 4 22.4183 4 18H3C3 22.9706 7.02944 27 12 27V26ZM27 18C27 22.4183 23.4183 26 19 26V27C23.9706 27 28 22.9706 28 18H27ZM19 10C23.4183 10 27 13.5817 27 18H28C28 13.0294 23.9706 9 19 9V10ZM12 9C7.02944 9 3 13.0294 3 18H4C4 13.5817 7.58172 10 12 10V9ZM32 35H25V36H32V35ZM25 35C20.5817 35 17 31.4183 17 27H16C16 31.9706 20.0294 36 25 36V35ZM40 27C40 31.4183 36.4183 35 32 35V36C36.9706 36 41 31.9706 41 27H40ZM32 19C36.4183 19 40 22.5817 40 27H41C41 22.0294 36.9706 18 32 18V19ZM25 18C20.0294 18 16 22.0294 16 27H17C17 22.5817 20.5817 19 25 19V18ZM30 19H32V18H30V19ZM14 26H12V27H14V26Z" fill="black"/>
</svg>
