<svg width="47" height="46" viewBox="0 0 47 46" fill="none" xmlns="http://www.w3.org/2000/svg">
<path d="M25.5948 12.413L25.1624 12.1621L25.1624 12.1621L25.5948 12.413ZM28.0314 8.21496L28.4638 8.46595L28.4638 8.46595L28.0314 8.21496ZM32.8015 10.9545L32.3691 10.7035L32.3691 10.7035L32.8015 10.9545ZM30.3229 15.225L29.8905 14.9741L29.8905 14.9741L30.3229 15.225ZM33.6609 20.432L34.0934 20.683L34.0934 20.683L33.6609 20.432ZM29.567 37.5671L29.1346 37.3161L29.1346 37.3161L29.567 37.5671ZM16.0235 41.177L15.7744 41.6106L15.7744 41.6106L16.0235 41.177ZM14.5961 40.3572L14.8451 39.9237L14.8451 39.9237L14.5961 40.3572ZM9.33722 33.8149L9.8144 33.6656L9.8144 33.6656L9.33722 33.8149ZM5.61717 21.9272L6.09435 21.7779L6.09435 21.7779L5.61717 21.9272ZM10.5429 20.3975L11.0199 20.2474L11.0199 20.2474L10.5429 20.3975ZM11.8188 24.4509L11.3419 24.601L11.3419 24.601L11.8188 24.4509ZM12.2221 24.4952L12.6545 24.7462L12.6545 24.7462L12.2221 24.4952ZM34.3604 13.7478L34.6094 13.3142L34.6094 13.3142L34.3604 13.7478ZM24.7906 8.25176L25.0396 7.81818L25.0396 7.81818L24.7906 8.25176ZM25.9179 11.7822L26.3842 11.9626L26.3842 11.9626L25.9179 11.7822ZM37.2873 19.2248L37.0383 19.6584L37.2873 19.2248ZM35.093 17.9646L35.5255 18.2156L35.5255 18.2156L35.093 17.9646ZM7.19001 18.7556L7.36182 19.2252L7.36182 19.2252L7.19001 18.7556ZM31.7935 7.21221L31.5445 7.6458L31.7935 7.21221ZM38.0495 22.9524L38.4819 23.2034L38.0495 22.9524ZM38.0495 22.9524L38.4819 23.2034L38.0495 22.9524ZM21.0029 9.36634L21.4354 9.61734L21.0029 9.36634ZM21.0029 9.36635L20.5705 9.11536L21.0029 9.36635ZM25.1624 12.1621L20.163 20.7756L21.0279 21.2776L26.0272 12.664L25.1624 12.1621ZM26.0272 12.664L28.4638 8.46595L27.5989 7.96397L25.1624 12.1621L26.0272 12.664ZM32.3691 10.7035L29.8905 14.9741L30.7553 15.476L33.234 11.2055L32.3691 10.7035ZM29.8905 14.9741L24.9332 23.5151L25.7981 24.0171L30.7553 15.476L29.8905 14.9741ZM33.2285 20.181L29.7033 26.2547L30.5682 26.7567L34.0934 20.683L33.2285 20.181ZM37.617 22.7014L29.1346 37.3161L29.9995 37.8181L38.4819 23.2034L37.617 22.7014ZM16.2725 40.7434L14.8451 39.9237L14.3471 40.7908L15.7744 41.6106L16.2725 40.7434ZM9.8144 33.6656L6.09435 21.7779L5.13999 22.0765L8.86003 33.9642L9.8144 33.6656ZM10.066 20.5476L11.3419 24.601L12.2957 24.3008L11.0199 20.2474L10.066 20.5476ZM30.3229 15.225C30.7553 15.476 30.7552 15.4762 30.7552 15.4764C30.7551 15.4764 30.755 15.4765 30.755 15.4766C30.7549 15.4768 30.7548 15.4769 30.7548 15.4769C30.7547 15.4771 30.7548 15.477 30.7549 15.4768C30.7551 15.4764 30.7557 15.4754 30.7567 15.4737C30.7587 15.4704 30.7623 15.4645 30.7673 15.4563C30.7774 15.44 30.7935 15.4146 30.8153 15.3817C30.859 15.3158 30.9252 15.2208 31.0121 15.1098C31.1874 14.8858 31.4388 14.6072 31.7498 14.3708C32.0612 14.1342 32.4146 13.9532 32.7982 13.8951C33.1721 13.8385 33.6089 13.8928 34.1114 14.1814L34.6094 13.3142C33.9194 12.9179 33.2552 12.8145 32.6484 12.9064C32.0514 12.9968 31.5446 13.2708 31.1447 13.5747C30.7445 13.8788 30.4337 14.2264 30.2246 14.4934C30.1193 14.6279 30.0378 14.7446 29.9818 14.8291C29.9538 14.8714 29.932 14.9058 29.9168 14.9305C29.9091 14.9428 29.9031 14.9528 29.8987 14.9601C29.8965 14.9638 29.8947 14.9668 29.8933 14.9691C29.8927 14.9703 29.8921 14.9713 29.8916 14.9721C29.8913 14.9725 29.8911 14.9729 29.8909 14.9732C29.8909 14.9734 29.8907 14.9736 29.8907 14.9737C29.8906 14.9739 29.8905 14.9741 30.3229 15.225ZM21.4354 9.61734C21.4234 9.63794 21.7362 9.09836 22.2964 8.71397C22.5705 8.5259 22.8894 8.38498 23.249 8.35325C23.6033 8.32198 24.0331 8.3933 24.5416 8.68534L25.0396 7.81818C24.3704 7.43381 23.7378 7.30624 23.1611 7.35712C22.5897 7.40753 22.109 7.62978 21.7306 7.88943C20.9858 8.40051 20.5825 9.09463 20.5705 9.11535L21.4354 9.61734ZM24.5416 8.68534C25.3206 9.1327 25.5849 9.69619 25.6522 10.2079C25.7235 10.7497 25.5771 11.2772 25.4516 11.6018L26.3842 11.9626C26.5373 11.5669 26.7462 10.8569 26.6437 10.0774C26.5372 9.2679 26.0985 8.42633 25.0396 7.81818L24.5416 8.68534ZM33.6609 20.432C34.0934 20.683 34.0933 20.6832 34.0932 20.6834C34.0932 20.6834 34.0931 20.6836 34.093 20.6837C34.0929 20.6838 34.0928 20.684 34.0928 20.6841C34.0926 20.6843 34.0926 20.6844 34.0926 20.6843C34.0927 20.6841 34.0932 20.6834 34.0939 20.6821C34.0954 20.6796 34.0983 20.6749 34.1024 20.6683C34.1107 20.655 34.1241 20.6338 34.1425 20.6063C34.1794 20.5511 34.2357 20.4711 34.3101 20.3777C34.4605 20.1889 34.6764 19.9556 34.9451 19.7604C35.2135 19.5654 35.5194 19.4192 35.8556 19.3781C36.1841 19.338 36.5771 19.3935 37.0383 19.6584L37.5363 18.7912C36.9004 18.426 36.2915 18.3174 35.7343 18.3855C35.1849 18.4526 34.7214 18.6869 34.3574 18.9513C33.9938 19.2154 33.7146 19.5203 33.5279 19.7547C33.4337 19.8729 33.3611 19.9758 33.3111 20.0507C33.286 20.0881 33.2665 20.1188 33.2527 20.141C33.2458 20.1521 33.2404 20.1611 33.2363 20.1678C33.2343 20.1712 33.2326 20.174 33.2313 20.1762C33.2307 20.1773 33.2301 20.1783 33.2296 20.1791C33.2294 20.1795 33.2292 20.1799 33.229 20.1802C33.2289 20.1803 33.2288 20.1806 33.2287 20.1806C33.2286 20.1809 33.2285 20.181 33.6609 20.432ZM37.0383 19.6584C37.4995 19.9232 37.7435 20.2335 37.8722 20.5351C38.004 20.8438 38.0296 21.1793 37.9942 21.5074C37.9218 22.1762 37.6064 22.7198 37.617 22.7014L38.4819 23.2034C38.4927 23.1848 38.8932 22.4947 38.9884 21.6148C39.0366 21.1685 39.0088 20.6509 38.792 20.1426C38.572 19.6271 38.1722 19.1564 37.5363 18.7912L37.0383 19.6584ZM34.1114 14.1814C34.6139 14.47 34.8787 14.8185 35.0157 15.1673C35.1563 15.5255 35.1756 15.9192 35.1253 16.3053C35.0751 16.6909 34.9583 17.0465 34.851 17.3095C34.7979 17.4397 34.7483 17.5443 34.7128 17.6148C34.695 17.65 34.6809 17.6766 34.6718 17.6935C34.6672 17.7019 34.6638 17.7079 34.6619 17.7113C34.661 17.713 34.6604 17.714 34.6601 17.7144C34.66 17.7146 34.66 17.7147 34.6601 17.7145C34.6601 17.7145 34.6602 17.7144 34.6603 17.7142C34.6603 17.7141 34.6604 17.714 34.6604 17.7139C34.6605 17.7138 34.6606 17.7136 35.093 17.9646C35.5255 18.2156 35.5256 18.2154 35.5257 18.2152C35.5258 18.2151 35.5259 18.2149 35.526 18.2148C35.5262 18.2144 35.5264 18.2141 35.5266 18.2137C35.5271 18.2128 35.5277 18.2118 35.5283 18.2107C35.5297 18.2083 35.5314 18.2053 35.5335 18.2015C35.5377 18.1941 35.5433 18.1839 35.5503 18.1712C35.5642 18.1456 35.5832 18.1097 35.606 18.0644C35.6516 17.9739 35.7124 17.8453 35.7769 17.6873C35.9049 17.3736 36.0522 16.9318 36.1169 16.4344C36.1816 15.9375 36.1668 15.3627 35.9465 14.8018C35.7225 14.2315 35.2995 13.7105 34.6094 13.3142L34.1114 14.1814ZM34.6606 17.7136L33.2285 20.181L34.0934 20.683L35.5255 18.2156L34.6606 17.7136ZM6.09435 21.7779C5.76619 20.7292 6.32107 19.606 7.36182 19.2252L7.01821 18.2861C5.47959 18.849 4.6513 20.5149 5.13999 22.0765L6.09435 21.7779ZM11.3419 24.601C11.5305 25.2002 12.3407 25.2869 12.6545 24.7462L11.7896 24.2442C11.9105 24.036 12.2224 24.0679 12.2957 24.3008L11.3419 24.601ZM31.5445 7.6458C32.6226 8.26496 32.9899 9.6339 32.3691 10.7035L33.234 11.2055C34.1342 9.65451 33.5989 7.67248 32.0425 6.77863L31.5445 7.6458ZM7.36182 19.2252C8.47999 18.8161 9.71162 19.4218 10.066 20.5476L11.0199 20.2474C10.493 18.5736 8.66795 17.6825 7.01821 18.2861L7.36182 19.2252ZM28.4638 8.46595C29.0855 7.39477 30.4649 7.02576 31.5445 7.6458L32.0425 6.77863C30.4876 5.88566 28.4982 6.41454 27.5989 7.96397L28.4638 8.46595ZM14.8451 39.9237C12.4364 38.5403 10.6406 36.3058 9.8144 33.6656L8.86003 33.9642C9.7617 36.8456 11.721 39.2827 14.3471 40.7908L14.8451 39.9237ZM26.0272 12.664C26.143 12.4645 26.2824 12.2258 26.3842 11.9626L25.4516 11.6018C25.3827 11.7799 25.2842 11.952 25.1624 12.1621L26.0272 12.664ZM29.1346 37.3161C26.5355 41.7941 20.7769 43.3304 16.2725 40.7434L15.7744 41.6106C20.7541 44.4705 27.1228 42.7744 29.9995 37.8181L29.1346 37.3161ZM12.6545 24.7462L21.4354 9.61734L20.5705 9.11536L11.7896 24.2442L12.6545 24.7462ZM38.4819 23.2034L38.4819 23.2034L37.617 22.7014L37.617 22.7014L38.4819 23.2034ZM20.5705 9.11535L20.5705 9.11536L21.4354 9.61734L21.4354 9.61734L20.5705 9.11535Z" fill="black"/>
<path d="M35.6213 0.177246L34.6213 6.17725M45.0124 2.98292L39.7995 7.58114M39.6743 13.1106L46.5001 14.5" stroke="white"/>
</svg>
