<svg width="44" height="44" viewBox="0 0 44 44" fill="none" xmlns="http://www.w3.org/2000/svg">
<path d="M38.4882 24.257C38.4882 33.6606 31.1062 37.5 22 37.5C12.8938 37.5 5.51175 33.6606 5.51175 24.257C5.51175 20.7567 5.26619 17.5032 7.01995 14.7977C11.9254 7.23 19.252 11.9601 22 11.9599C24.748 11.9598 32.0747 7.23 36.98 14.7977C38.7338 17.5032 38.4882 20.7567 38.4882 24.257Z" stroke="black"/>
<path d="M5.95581 24.5H38.044" stroke="black"/>
<line x1="22.5" y1="24.6626" x2="22.5" y2="19" stroke="black"/>
<line x1="13.5" y1="24.7751" x2="13.5" y2="21.0001" stroke="black"/>
<line x1="30.5" y1="24.7751" x2="30.5" y2="21.0001" stroke="black"/>
<path d="M25 8C25 9.65685 23.6569 12 22 12C20.3431 12 19 9.65685 19 8" stroke="black"/>
</svg>
