<svg width="44" height="44" viewBox="0 0 44 44" fill="none" xmlns="http://www.w3.org/2000/svg">
<path d="M37 9C37 11.7614 34.7614 14 32 14V15C35.3137 15 38 12.3137 38 9H37ZM32 14C29.2386 14 27 11.7614 27 9H26C26 12.3137 28.6863 15 32 15V14ZM27 9C27 6.23858 29.2386 4 32 4V3C28.6863 3 26 5.68629 26 9H27ZM32 4C34.7614 4 37 6.23858 37 9H38C38 5.68629 35.3137 3 32 3V4ZM15.5 22C15.5 24.7614 13.2614 27 10.5 27V28C13.8137 28 16.5 25.3137 16.5 22H15.5ZM10.5 27C7.73858 27 5.5 24.7614 5.5 22H4.5C4.5 25.3137 7.18629 28 10.5 28V27ZM5.5 22C5.5 19.2386 7.73858 17 10.5 17V16C7.18629 16 4.5 18.6863 4.5 22H5.5ZM10.5 17C13.2614 17 15.5 19.2386 15.5 22H16.5C16.5 18.6863 13.8137 16 10.5 16V17ZM37 35C37 37.7614 34.7614 40 32 40V41C35.3137 41 38 38.3137 38 35H37ZM32 40C29.2386 40 27 37.7614 27 35H26C26 38.3137 28.6863 41 32 41V40ZM27 35C27 32.2386 29.2386 30 32 30V29C28.6863 29 26 31.6863 26 35H27ZM32 30C34.7614 30 37 32.2386 37 35H38C38 31.6863 35.3137 29 32 29V30ZM27.0202 11.4268L14.9954 18.6976L15.5128 19.5533L27.5376 12.2825L27.0202 11.4268ZM14.9954 25.3024L27.0202 32.5732L27.5376 31.7175L15.5128 24.4467L14.9954 25.3024Z" fill="black"/>
</svg>
