<svg width="342" height="238" viewBox="0 0 342 238" fill="none" xmlns="http://www.w3.org/2000/svg">
<path d="M70.6814 56.6563C71.8151 62.3881 72.5325 68.3146 74.24 73.8646C74.8911 75.9809 74.2389 77 76.8143 77C83.4877 77 90.1019 76.7386 96.765 76.3438C105.944 75.7997 115.15 75.601 124.287 75.0677C132.622 74.5812 141.062 76.3438 149.424 76.3438C153.858 76.3438 157.894 76.9052 162.371 76.4896C166.518 76.1047 169.974 76.3438 173.994 76.3438C176.368 76.3438 176.984 76.4706 176.984 74.0833C176.984 71.7636 177.142 69.5386 176.454 67.3021C175.786 65.1298 176.303 62.1834 176.303 59.9375C176.303 56.6682 175.821 56 172.139 56C167.091 56 162.043 56 156.996 56C148.216 56 139.439 56.6563 130.723 56.6563C117.956 56.6563 105.396 56.9293 92.6386 56.6563C85.1007 56.4949 77.5411 56.6563 70 56.6563" stroke="#753838" stroke-width="3" stroke-linecap="round"/>
<path d="M75 89.5936C75 90.0071 74.972 106.684 76.3765 106.754C87.4666 107.307 98.7311 106.754 109.832 106.754C121.622 106.754 133.411 106.754 145.2 106.754C148.959 106.754 148.641 106.08 148.641 102.636C148.641 100.704 148.641 98.7714 148.641 96.8392C148.641 94.9776 149.497 90.229 148.565 88.6021C147.697 87.0878 139.303 88.9072 137.783 88.9072C129.73 88.9072 121.617 89.6693 113.58 90.2419C100.768 91.1546 87.8897 90.9665 75 90.9665" stroke="#753838" stroke-width="3" stroke-linecap="round"/>
<path d="M61 158.103C80.8429 161.738 100.964 162.48 121.127 161.743C142.506 160.962 164.631 158.44 185.341 152.946C204.913 147.754 224.827 136.108 225.792 113.396C226.09 106.367 227.316 97.0353 219.321 93.6017C216.27 92.2911 208.833 89.2318 205.396 90.6819C201.57 92.2962 198.35 92.6268 195.18 95.9906C190.718 100.725 191.774 108.548 191.774 114.42C191.774 123.56 195.756 131.752 201.461 138.612C208.61 147.21 216.332 148.547 226.814 148.547C231.074 148.547 235.136 147.271 238.506 144.376C242.468 140.973 247.373 139.25 250.728 135.048C253.161 132.001 254.569 128.444 255.269 124.658C256.295 119.108 255.924 115.207 255.799 109.793C255.567 99.8177 256.123 90.0089 254.777 80.0264C253.709 72.1039 253.755 63.7465 253.755 55.7578C253.755 52.8771 252.857 46.3819 255.118 44.1165C257.81 41.4185 261.468 42.0688 264.994 42.0688C270.329 42.0688 275.665 42.0688 281 42.0688" stroke="#753838" stroke-width="3" stroke-linecap="round"/>
</svg>
