<svg width="684" height="484" viewBox="0 0 684 484" fill="none" xmlns="http://www.w3.org/2000/svg">
<path d="M224 26V30V32V36V46V54V68V80V88V96V104V110V118L222 126V130V136V144L220 152V164V178V188L218 196V200V206V214V224V232V244V252V260V266V270V274V280V284V290V298V308V316L216 322V328V330V332V356V366L214 372V378V382V386V388V390V392V394V396V400V402V404V406V408M440 24V32L438 38V42V46V50V54V60V66V70V74V78V82V86V92V96V100V102V104V106V110V112V116V118V120V122V126V128V134V136V138V140V146V150V152V160L436 168V180V190V198V206V212V216V218V222V224V228V230V234V238V244V250V254V256V260V264V268V270V274V278V280V284V288L438 290V292V296V300V304V310V314V322V328V332V336V338V342L440 344V348V352V356V360V362V366V368V370V374V378V380V382V384V386V390V392V394V396V398V400M440 400V402V404V406V408V410M440 400V410M440 410V412V414V416M440 410V416M440 416V418M66 218H68H70H72H76H82H88H94L100 220H106H116L126 218H136H144H148H152H158H166L176 220H182H186H190H192H198H202H206H210H212H216H218H222H226H232H240H246H256H264H276L286 222H296H300L302 220H304H308H314H322H328H336H344H352L360 222H368H372L378 220H384H390H396H404H408H410H412H416H422H428H434H440H444H448L452 218H458H464H472H480H486H494H506H514H526H536H544H554H564H572H578H582H588H594H596H600H602H604H606H612H620L626 220H632H634H636H638H640H642H644H646M66 218V216H68M66 218H64H62H58H56V216H54V214V212V210H56V208V206V204V200V198V194V192V188V186V184V182V180V178L58 176V172V170V168V166V164V162V160V156V154V150L60 148V144V140V136V134V132V128V126V124L62 122V120V118V116V114V112V108L64 106V102V100V96V94V90V88V86V84V82V80V76V74V72L66 70V68V64V62V60V58V56V54V52V48V46V44V42V38V36V34V32V30L68 28V26V24V22V20V18V16H70H72V14H74H76H80H82H84H86H90H94H98H102H104H106H108H110H112H116H120H124H126H128H130H134H136H140H142H144H146H148H152H154H160L166 16H172L176 18H180H182H184H186H190H194L198 20H202H204H206H208H210H212H214H216H218H220H222H224H226M646 220H648M646 220L648 218V216V212V210V208V204L650 198V194L652 188V182V176L654 174V172V170V168V164V162V160V158V154V152V148V144V142V138V134V132V130V128V124V122V118V114V112V110V106V104V102V98V96V62V60V34L652 32V30V28V26H648H646L642 24H638H634H630H628H626H570H568H566H564H562H558H554H550H544H540H538H534H532H530H528H526L524 22H522H520H516H514H510H508H504H500H498H494H492H490H488H486V20H482H480H476H470H468H464H462H460H458H456H452H450H448H444H440M216 408H218H220H226H228H232H236H240H242H246H250H256H260H264H266H270H276L282 410H286H288H292H296H298H302H304H306H308H312L316 412H322H324H328H330H332H336L342 414H348H354H360H364H366H368H372H376H380H384H386H388H392H394H398L404 416H406H410H412H414H416H420H424H426H428H430H432H436H438M82 32V34V36V38H84V40H86H88H90V38L92 36V34V32H90V30H88H86M108 34V36H106V38H108V40H110H112H114V38H116V36V34V32H114V30H112M134 32H132V34V36V38H134H136H138H140V36L142 34V32H140M240 236V238H238V240L240 242H242L244 240V238V236M256 238V240H254V242H256V244H258H260H262H264H266L268 242V240V238H266H264M284 240V242H282V244H284V246H286H288H290V244V242V240H288H286M460 38V40H458V42V44H460V46H462H464V44V42V40M472 42V44V46V48H474H476H478V46V44V42H476M492 44H490V46H492H494V48H496V46H498V44H496V42H494M322 100H324H326H328V102V104V106V108V110V112V114H326V116H324H322H320H318H316H314H312H310L308 114H306L304 112L302 110V108V106V104H300V102V100V98V94V92L302 90V88H304L306 86L308 84H310H312H314H316L318 82H322H324H326H328H330H332H334H336H338L342 84H344V86H346L348 88L350 90L352 92L354 94V96L356 98L358 102V104V106V108V110V112V114V116V118V120L356 122V124V126V128L354 130V132H352V134L350 136V138H348V140L346 142L344 144V146L342 148H340V150H338L336 152H334L332 154L328 156L326 158H324H322H320V160H318H316H314L312 158H310H304H302L300 156H298H296V154H294H292L290 152H288V150L286 148L284 146V144H282V142H280V140V138H278V136L276 134V132V130V128V126V124V122V120L274 116V114V112V110V108V106V104V102V100L276 98V96V94V92L278 88V84L280 80L282 78V76V74L284 72L286 70H288V68H290V66H292L294 64H296H298L300 62H302L304 60H306L308 58L310 56L314 54L316 52H318H320H322H324L326 50H330H332H334H336H338H340H344H346L348 52H350H352H354H356L362 54H366H368V56H370M88 248V250H90V252H92V254L94 256L96 258V260H98L100 264L102 266L104 268L108 270V272L110 274L112 276L114 280L116 282H118V284L120 286L122 288L124 290L126 292H128V294L134 298L136 300L138 302L140 304V306H142V308L144 310H146V312V314L144 316V318L142 320H140L138 322V324H136L134 326L132 328H130L128 332H126V334L124 336H122V338L120 340L118 342L116 344L114 346L112 348L110 350V352H108L106 354L104 356V358H102V360H100V362H98V364L96 366H94V368L92 370H90M594 246L592 248L590 250L588 252L586 254L584 256L580 260L576 262H574L572 264L570 266H566L562 268L556 272L550 276L544 278L540 280V282H538V284H536L532 286L530 288L528 290H526H524L520 292L518 294H516L514 296H510L508 298H506L504 300H502V302H500V304H502L504 306H506H508V308H510L512 310H514V312L516 314L518 316L520 318H522V320H524V322L526 324V326L528 328L530 330V332L532 334L534 336L536 338V340H538V342L540 344L542 348L544 352L546 354L548 356H550V358L552 360L554 362H556V364H558V366H560V368H562V370L564 374L566 376H568" stroke="#0E0F0F" stroke-width="6" stroke-miterlimit="10" stroke-linecap="round" stroke-linejoin="round"/>
</svg>
