<svg width="342" height="238" viewBox="0 0 342 238" fill="none" xmlns="http://www.w3.org/2000/svg">
<path d="M132.362 146.511C131.075 150.301 130.325 153.16 131.847 156.927C133.455 160.903 135.717 164.292 138.734 167.313C144.439 173.026 155.241 174.785 163.109 173.694C171.227 172.569 180.08 167.245 181.683 158.415C182.727 152.665 181.17 143.989 177.311 139.53C172.395 133.849 166.55 129 158.594 129C152.727 129 148.495 131.331 143.221 133.092C136.115 135.463 133.502 140.511 131.333 147.026" stroke="#E84D1C" stroke-width="3" stroke-linecap="round"/>
<path d="M156.753 129C150.948 129 145.376 127.449 139.679 126.419C135.765 125.711 131.184 124.981 127.653 123.006C125.202 121.635 124.358 115.243 124.105 112.796C123.763 109.48 124.252 106.78 125.605 103.819C128.633 97.1941 135.945 92.7059 142.563 90.5121C150.191 87.9835 160.292 86.1104 167.395 91.3151C174.898 96.8131 175.468 109.132 171.807 116.869C170.257 120.144 167.553 123.509 164.539 125.272C162.666 126.368 160.684 127.045 158.829 127.968" stroke="#E84D1C" stroke-width="3" stroke-linecap="round"/>
<path d="M145.445 88.7074C138.045 88.7074 129.487 89.9982 122.543 87.1575C116.563 84.7107 116 74.6823 116 69.5342C116 63.073 118.382 56.409 123.06 51.9109C127.217 47.9132 133.245 45.4867 138.213 42.7262C140.444 41.4867 144.667 42.2095 146.995 42.2095C152.391 42.2095 157.786 42.2095 163.181 42.2095C176.113 42.2095 189.095 42.7262 201.983 42.7262C207.497 42.7262 212.492 44.0966 217.538 46.0843C221.371 47.5947 222.698 47.645 223.966 51.7674C224.594 53.8079 224.999 56.3788 224.999 58.5125C224.999 65.4355 225.202 74.2713 218.685 78.3745C215.721 80.2414 212.087 80.5995 208.87 81.5892C206.825 82.2186 204.671 82.0939 202.557 82.6225C200.202 83.2112 196.951 82.8249 194.808 83.7993C193.052 84.5973 190.008 84.2442 188.035 84.603C185.75 85.0185 183.653 85.0909 181.319 85.0909C177.366 85.0909 172.921 85.2553 168.921 85.6363C164.795 86.0292 160.763 86.1242 156.581 86.1242C153.337 86.1242 147.753 86.2616 144.929 87.6741" stroke="#E84D1C" stroke-width="3" stroke-linecap="round"/>
<path d="M166.5 45C167.162 49.4609 166 54.1807 166 58.7322C166 61.9088 167 65.1095 167 68.3333C167 73.9449 168 79.3755 168 85" stroke="#E84D1C" stroke-width="3" stroke-linecap="round"/>
<path d="M173 101.579C173.92 94.8644 175.981 87.8858 183.699 87.4906C190.831 87.1254 197.102 83.7254 204.303 85.5194C206.788 86.1385 211.196 85.8607 212.766 88.2733C214.926 91.592 215.465 93.9002 216.53 97.7525C217.432 101.012 218.431 104.078 217.804 107.609C217.419 109.78 218.02 113.174 217.21 115.146C216.292 117.378 216.374 119.77 214.521 121.668C212.259 123.985 210.448 124.337 207.643 125.697C202.622 128.133 194.811 126.616 189.642 125.466C185.357 124.511 179.187 120.969 178.604 116.189C178.112 112.161 174.528 108.96 174.528 104.71" stroke="#E84D1C" stroke-width="3" stroke-linecap="round"/>
</svg>
