<svg width="32" height="32" viewBox="0 0 32 32" fill="none" xmlns="http://www.w3.org/2000/svg">
<path d="M19.7252 6.28148L21.2748 8.21852C21.4171 8.39643 21.6326 8.5 21.8605 8.5H27.25C27.6642 8.5 28 8.83579 28 9.25V25.75C28 26.1642 27.6642 26.5 27.25 26.5H4.75C4.33579 26.5 4 26.1642 4 25.75V9.25C4 8.83579 4.33579 8.5 4.75 8.5H10.1395C10.3674 8.5 10.5829 8.39643 10.7252 8.21852L12.2748 6.28148C12.4171 6.10357 12.6326 6 12.8605 6H19.1395C19.3674 6 19.5829 6.10357 19.7252 6.28148Z" stroke="black"/>
<circle cx="16" cy="17" r="6.5" stroke="black"/>
<circle cx="16" cy="17" r="3.5" stroke="black"/>
</svg>
