<svg width="32" height="32" viewBox="0 0 32 32" fill="none" xmlns="http://www.w3.org/2000/svg">
<path d="M9 5H24.125V27L16.5625 18.2L9 27V5Z" fill="black"/>
<path d="M9 5V4.5L8.5 5H9ZM24.125 5H24.625L24.125 4.5V5ZM24.125 27L23.7458 27.3259L24.625 27H24.125ZM9 27H8.5L9.37921 27.3259L9 27ZM16.5625 18.2L16.9417 17.8741H16.1833L16.5625 18.2ZM9 5.5H24.125V4.5H9V5.5ZM23.625 5V27H24.625V5H23.625ZM9.5 27V5H8.5V27H9.5ZM24.5042 26.6741L16.9417 17.8741L16.1833 18.5259L23.7458 27.3259L24.5042 26.6741ZM16.1833 17.8741L8.62079 26.6741L9.37921 27.3259L16.9417 18.5259L16.1833 17.8741Z" fill="black"/>
</svg>
