<svg width="34" height="35" viewBox="0 0 34 35" fill="none" xmlns="http://www.w3.org/2000/svg">
<path d="M11.0201 17.2273L15.8402 8.8787C15.8402 8.8787 16.7754 7.25882 18.3137 8.14697C19.4247 8.78838 19.2656 9.82302 19.0915 10.3484C19.0238 10.5528 18.9182 10.7412 18.8106 10.9279L20.4301 8.1228C20.9268 7.26258 22.0267 6.96784 22.887 7.46449C23.7472 7.96115 24.0419 9.06111 23.5453 9.92134L21.9266 12.725C21.9266 12.725 23.0057 10.8559 24.5633 11.7552C26.1209 12.6544 25.0417 14.5235 25.0417 14.5235L24.1065 16.1434C24.1065 16.1434 25.0417 14.5235 26.4747 15.3508C27.9077 16.1782 26.9724 17.798 26.9724 17.798L21.4329 27.3927C19.645 30.4895 15.6851 31.5506 12.5883 29.7626L11.6562 29.2244C10.0122 28.2753 8.78605 26.7418 8.22185 24.9293L5.79247 17.125C5.52575 16.2681 5.97739 15.3526 6.81962 15.0428C7.72341 14.7104 8.7215 15.2017 9.00924 16.1207L9.84246 18.7818C9.88011 18.902 10.0428 18.92 10.1058 18.8109L11.0201 17.2273Z" fill="black"/>
<path d="M18.6892 18.3323L21.9266 12.725M21.9266 12.725L23.5453 9.92134C24.0419 9.06111 23.7472 7.96115 22.887 7.46449V7.46449C22.0267 6.96784 20.9268 7.26258 20.4301 8.1228L15.5741 16.5337L18.777 10.986C18.8959 10.7802 19.0167 10.574 19.0915 10.3484C19.2656 9.82302 19.4247 8.78838 18.3137 8.14697C16.7754 7.25882 15.8402 8.87869 15.8402 8.87869C15.8402 8.87869 15.8402 8.8787 15.8402 8.87869L11.0201 17.2273L10.1058 18.8109C10.0428 18.92 9.88011 18.902 9.84246 18.7818L9.00924 16.1207C8.7215 15.2017 7.72341 14.7104 6.81962 15.0428V15.0428C5.97739 15.3526 5.52575 16.2681 5.79247 17.125L8.22185 24.9293C8.78605 26.7418 10.0122 28.2753 11.6562 29.2244L12.5883 29.7626C15.6851 31.5506 19.645 30.4895 21.433 27.3927V27.3927L26.9724 17.798C26.9724 17.798 26.9724 17.798 26.9724 17.798C26.9724 17.798 27.9077 16.1782 26.4747 15.3508C25.0417 14.5235 24.1065 16.1434 24.1065 16.1434M21.9266 12.725C21.9266 12.725 23.0057 10.8559 24.5633 11.7552C26.1209 12.6544 25.0417 14.5235 25.0417 14.5235C25.0417 14.5235 25.0417 14.5235 25.0417 14.5235L24.1065 16.1434M24.1065 16.1434L21.8044 20.1308" stroke="white" stroke-width="0.8"/>
<line x1="26.0392" y1="0.794881" x2="25.127" y2="5.25248" stroke="black"/>
<line x1="32.2087" y1="3.06001" x2="28.8044" y2="6.07878" stroke="black"/>
<line x1="28.6427" y1="9.40914" x2="33.1003" y2="10.3213" stroke="black"/>
</svg>
