<svg width="32" height="32" viewBox="0 0 32 32" fill="none" xmlns="http://www.w3.org/2000/svg">
<circle cx="16" cy="16" r="11.5" stroke="black"/>
<path d="M14.2666 19.6003L6.6665 10.0003L10.6665 5.33366L17.3332 4.66699L20.1333 5.67407V7.60033C20.1333 8.92033 19.2533 10.0003 18.1777 10.0003H16.2222V12.4003C16.2222 13.0603 15.7822 13.6003 15.2444 13.6003H13.2888V16.0003H19.1555C19.6933 16.0003 20.1333 16.5403 20.1333 17.2003V20.8003H21.111C21.991 20.8003 23.4566 21.3337 23.9998 24.0003L21 26.5L17.3332 27.3337L16 27.5L16.2222 23.2003C15.1466 23.2003 14.2666 22.1203 14.2666 20.8003V19.6003Z" fill="black"/>
</svg>
