<svg width="33" height="33" viewBox="0 0 33 33" fill="none" xmlns="http://www.w3.org/2000/svg">
<path d="M20.2142 6.42753L20.6472 6.67753L20.6472 6.67753L20.2142 6.42753ZM23.3293 8.22606L23.7623 8.47606L23.3293 8.22606ZM21.7106 11.0297L21.2776 10.7797L21.2776 10.7797L21.7106 11.0297ZM23.8905 14.4481L24.3236 14.6981L24.3236 14.6981L23.8905 14.4481ZM21.217 25.6974L21.65 25.9474L21.217 25.6974ZM12.3724 28.0674L12.1224 28.5004L12.1224 28.5004L12.3724 28.0674ZM11.4402 27.5292L11.6902 27.0962L11.6902 27.0962L11.4402 27.5292ZM8.0059 23.2341L8.4833 23.0854L8.4833 23.0854L8.0059 23.2341ZM5.57652 15.4297L5.09911 15.5783L5.09911 15.5783L5.57652 15.4297ZM8.79329 14.4254L9.27045 14.276L9.27045 14.276L8.79329 14.4254ZM9.62651 17.0865L9.14935 17.2359L9.14935 17.2359L9.62651 17.0865ZM9.88985 17.1156L9.45684 16.8656L9.45684 16.8656L9.88985 17.1156ZM24.3473 10.0599L24.5973 9.62686L24.3473 10.0599ZM18.0978 6.45169L17.8478 6.8847L18.0978 6.45169ZM18.8756 8.65312L19.3502 8.81041L19.3502 8.81041L18.8756 8.65312ZM24.8258 12.8282L24.3928 12.5782L24.3928 12.5782L24.8258 12.8282ZM6.60367 13.3475L6.43106 12.8783L6.43106 12.8783L6.60367 13.3475ZM26.7565 16.1028L26.3235 15.8528L26.7565 16.1028ZM26.7565 16.1028L26.3235 15.8528L26.7565 16.1028ZM15.6242 7.18342L16.0572 7.43342L15.6242 7.18342ZM15.6242 7.18342L15.1912 6.93342L15.6242 7.18342ZM18.1281 9.04074L14.9251 14.5884L15.7911 15.0884L18.9941 9.54074L18.1281 9.04074ZM18.9941 9.54074L19.0277 9.48262L18.1616 8.98262L18.1281 9.04074L18.9941 9.54074ZM19.0277 9.48262L20.6472 6.67753L19.7811 6.17753L18.1616 8.98262L19.0277 9.48262ZM22.8963 7.97606L21.2776 10.7797L22.1436 11.2797L23.7623 8.47606L22.8963 7.97606ZM21.2776 10.7797L18.0403 16.387L18.9063 16.887L22.1436 11.2797L21.2776 10.7797ZM23.4575 14.1981L21.1554 18.1855L22.0214 18.6855L24.3236 14.6981L23.4575 14.1981ZM26.3235 15.8528L20.784 25.4474L21.65 25.9474L27.1895 16.3528L26.3235 15.8528ZM12.6224 27.6343L11.6902 27.0962L11.1902 27.9622L12.1224 28.5004L12.6224 27.6343ZM8.4833 23.0854L6.05392 15.2811L5.09911 15.5783L7.52849 23.3827L8.4833 23.0854ZM8.31614 14.5748L9.14935 17.2359L10.1037 16.9371L9.27045 14.276L8.31614 14.5748ZM21.7106 11.0297C22.1436 11.2797 22.1435 11.2799 22.1435 11.28C22.1434 11.2801 22.1433 11.2802 22.1433 11.2803C22.1432 11.2805 22.1431 11.2807 22.143 11.2808C22.1429 11.281 22.1428 11.2812 22.1428 11.2812C22.1427 11.2813 22.1429 11.2809 22.1434 11.2802C22.1443 11.2786 22.1462 11.2755 22.149 11.2709C22.1547 11.2616 22.1643 11.2464 22.1774 11.2264C22.2039 11.1864 22.2445 11.1277 22.2981 11.0589C22.4068 10.9192 22.5607 10.7483 22.7484 10.6049C22.9365 10.4612 23.1405 10.3588 23.3535 10.3263C23.5566 10.2954 23.8019 10.3223 24.0973 10.4929L24.5973 9.62686C24.114 9.3478 23.6403 9.27113 23.203 9.33773C22.7756 9.40283 22.4177 9.59909 22.1413 9.81025C21.8646 10.0217 21.6513 10.2618 21.5091 10.4445C21.4371 10.5369 21.3813 10.6172 21.3426 10.6759C21.3233 10.7052 21.3081 10.7293 21.2972 10.747C21.2918 10.7558 21.2874 10.7631 21.2842 10.7686C21.2825 10.7713 21.2812 10.7736 21.2801 10.7755C21.2795 10.7764 21.279 10.7772 21.2786 10.7779C21.2784 10.7783 21.2782 10.7786 21.2781 10.7789C21.278 10.7791 21.2779 10.7793 21.2778 10.7793C21.2777 10.7795 21.2776 10.7797 21.7106 11.0297ZM16.0572 7.43342C16.0454 7.45392 16.2342 7.1264 16.568 6.89606C16.729 6.78505 16.9089 6.70691 17.1065 6.68938C17.2987 6.67233 17.5437 6.70915 17.8478 6.8847L18.3478 6.01868C17.8827 5.75016 17.4339 5.65641 17.0181 5.69329C16.6077 5.7297 16.2654 5.88999 16.0002 6.07293C15.4819 6.43049 15.203 6.91291 15.1912 6.93342L16.0572 7.43342ZM17.8478 6.8847C18.2767 7.13235 18.4272 7.42719 18.4775 7.68982C18.5324 7.97694 18.4745 8.27381 18.4009 8.49582L19.3502 8.81041C19.4507 8.50705 19.5595 8.02391 19.4597 7.50202C19.3552 6.95563 19.0298 6.41244 18.3478 6.01868L17.8478 6.8847ZM23.8905 14.4481C24.3236 14.6981 24.3235 14.6983 24.3234 14.6985C24.3233 14.6985 24.3232 14.6987 24.3232 14.6988C24.323 14.699 24.3229 14.6992 24.3229 14.6993C24.3227 14.6996 24.3225 14.6999 24.3225 14.7C24.3223 14.7002 24.3224 14.7001 24.3227 14.6996C24.3232 14.6987 24.3246 14.6964 24.3269 14.6928C24.3313 14.6856 24.339 14.6733 24.3499 14.6569C24.3718 14.6241 24.4058 14.5755 24.451 14.5184C24.543 14.4023 24.6731 14.2615 24.8322 14.1454C24.9909 14.0295 25.1631 13.949 25.3451 13.9266C25.5193 13.9052 25.738 13.9323 26.0088 14.0886L26.5088 13.2225C26.063 12.9652 25.6274 12.8845 25.2232 12.9341C24.8269 12.9828 24.4966 13.1522 24.2424 13.3378C23.9885 13.5232 23.7953 13.7357 23.6671 13.8975C23.6023 13.9793 23.552 14.0508 23.5171 14.1033C23.4996 14.1296 23.4859 14.1514 23.4759 14.1675C23.471 14.1755 23.4669 14.1822 23.4639 14.1873C23.4623 14.1899 23.461 14.1921 23.46 14.1939C23.4595 14.1948 23.459 14.1956 23.4586 14.1963C23.4584 14.1967 23.4582 14.197 23.458 14.1973C23.4579 14.1974 23.4578 14.1976 23.4578 14.1977C23.4576 14.1979 23.4575 14.1981 23.8905 14.4481ZM26.0088 14.0886C26.2795 14.2449 26.4122 14.4207 26.4808 14.5823C26.5524 14.7511 26.5689 14.9405 26.5479 15.1359C26.5045 15.5393 26.3128 15.8713 26.3235 15.8528L27.1895 16.3528C27.2002 16.3342 27.4761 15.8562 27.5421 15.2429C27.5758 14.9299 27.5573 14.5592 27.4013 14.1916C27.2422 13.8168 26.9545 13.4799 26.5088 13.2225L26.0088 14.0886ZM24.0973 10.4929C24.3928 10.6635 24.5387 10.8624 24.6135 11.0538C24.6919 11.2544 24.7052 11.4823 24.6748 11.7171C24.6444 11.9513 24.5733 12.1701 24.5068 12.3341C24.474 12.4149 24.4435 12.4794 24.422 12.5223C24.4113 12.5437 24.4029 12.5596 24.3977 12.5691C24.3951 12.5739 24.3934 12.5771 24.3925 12.5787C24.3921 12.5795 24.3919 12.5798 24.3919 12.5797C24.3919 12.5797 24.392 12.5796 24.3921 12.5793C24.3922 12.5792 24.3923 12.579 24.3924 12.5789C24.3925 12.5788 24.3926 12.5786 24.3926 12.5786C24.3927 12.5784 24.3928 12.5782 24.8258 12.8282C25.2588 13.0782 25.2589 13.0781 25.259 13.0779C25.2591 13.0778 25.2592 13.0776 25.2593 13.0774C25.2594 13.0771 25.2596 13.0768 25.2598 13.0765C25.2602 13.0758 25.2607 13.0749 25.2612 13.074C25.2623 13.0721 25.2636 13.0698 25.2652 13.067C25.2683 13.0614 25.2724 13.054 25.2773 13.0449C25.2872 13.0267 25.3005 13.0015 25.3162 12.97C25.3476 12.9072 25.3893 12.8187 25.4333 12.7102C25.5204 12.4957 25.6218 12.1909 25.6665 11.8455C25.7112 11.5006 25.7022 11.0926 25.5449 10.6899C25.3839 10.2778 25.0807 9.90593 24.5973 9.62686L24.0973 10.4929ZM24.3928 12.5782L23.4575 14.1981L24.3236 14.6981L25.2588 13.0782L24.3928 12.5782ZM6.05392 15.2811C5.86635 14.6785 6.18397 14.0347 6.77627 13.8168L6.43106 12.8783C5.3389 13.28 4.75324 14.4672 5.09911 15.5783L6.05392 15.2811ZM9.14935 17.2359C9.31713 17.7718 10.0421 17.8519 10.3229 17.3656L9.45684 16.8656C9.61157 16.5976 10.0112 16.6418 10.1037 16.9371L9.14935 17.2359ZM22.421 6.20223C23.0421 6.56081 23.2549 7.35498 22.8963 7.97606L23.7623 8.47606C24.397 7.37669 24.0204 5.97093 22.921 5.33621L22.421 6.20223ZM6.77627 13.8168C7.41187 13.583 8.11378 13.9285 8.31614 14.5748L9.27045 14.276C8.89731 13.0843 7.60305 12.4472 6.43106 12.8783L6.77627 13.8168ZM20.6472 6.67753C21.0058 6.05645 21.7999 5.84365 22.421 6.20223L22.921 5.33621C21.8216 4.70148 20.4159 5.07816 19.7811 6.17753L20.6472 6.67753ZM11.6902 27.0962C10.1551 26.2099 9.01014 24.7779 8.4833 23.0854L7.52849 23.3827C8.13005 25.3152 9.4374 26.9502 11.1902 27.9622L11.6902 27.0962ZM18.9941 9.54074C19.0051 9.52175 19.0165 9.50189 19.0278 9.48234L18.1615 8.9829C18.1504 9.00212 18.1395 9.021 18.1281 9.04074L18.9941 9.54074ZM19.0278 9.48233C19.1341 9.29801 19.2644 9.06914 19.3502 8.81041L18.4009 8.49582C18.3512 8.64588 18.2704 8.79385 18.1615 8.9829L19.0278 9.48233ZM20.784 25.4474C19.1341 28.3051 15.48 29.2842 12.6224 27.6343L12.1224 28.5004C15.4583 30.4264 19.724 29.2834 21.65 25.9474L20.784 25.4474ZM25.3333 -0.000630775L24.4212 4.45697L25.4009 4.65745L26.313 0.19985L25.3333 -0.000630775ZM30.6609 1.99062L27.2565 5.00939L27.92 5.75759L31.3243 2.73882L30.6609 1.99062ZM28.3265 8.20372L32.7841 9.1159L32.9845 8.1362L28.527 7.22402L28.3265 8.20372ZM10.3229 17.3656L16.0572 7.43342L15.1912 6.93342L9.45684 16.8656L10.3229 17.3656ZM27.1895 16.3528L27.1895 16.3528L26.3235 15.8528L26.3235 15.8528L27.1895 16.3528ZM15.1912 6.93342C15.1912 6.93342 15.1912 6.93342 15.1912 6.93342C15.1912 6.93342 15.1912 6.93342 15.1912 6.93341C15.1912 6.93342 15.1912 6.93342 15.1912 6.93342C15.1912 6.93342 15.1912 6.93341 15.1912 6.93341C15.1912 6.93341 15.1912 6.93341 15.1912 6.9334C15.1912 6.9334 15.1912 6.93342 15.1912 6.93344C15.8741 6.75034 16.0573 7.43326 16.0572 7.43337C16.0573 7.43335 16.0572 7.43339 16.0572 7.43341C16.0572 7.43341 16.0572 7.43341 16.0572 7.4334C16.0572 7.43342 16.0572 7.43342 16.0572 7.43342C16.0572 7.43342 16.0572 7.43342 16.0572 7.43342C16.0572 7.43342 16.0572 7.43342 16.0572 7.43342C16.0572 7.43342 16.0572 7.43342 16.0572 7.43342C16.0572 7.43342 16.0572 7.43342 16.0572 7.43342C16.0572 7.43342 16.0572 7.43342 16.0572 7.43342C16.0572 7.43342 16.0572 7.43342 16.0572 7.43342C16.0572 7.43342 16.0572 7.43342 16.0572 7.43342C16.0572 7.43342 16.0572 7.43343 16.0572 7.43343C16.0572 7.43343 16.0572 7.43343 16.0572 7.43343C16.0572 7.43343 16.0572 7.43343 16.0572 7.43343C16.0572 7.43343 16.0572 7.43343 16.0572 7.43343C16.0572 7.43343 16.0572 7.43343 16.0572 7.43343C16.0572 7.43343 16.0572 7.43343 16.0572 7.43344C16.0572 7.43344 16.0572 7.43344 16.0572 7.43344C16.0572 7.43344 16.0572 7.43346 16.0572 7.43349C16.057 7.43373 15.374 7.61634 15.1911 6.93362C15.1911 6.93353 15.1912 6.93349 15.1912 6.93349C15.1912 6.93345 15.1912 6.93344 15.1912 6.93344C15.1912 6.93343 15.1912 6.93344 15.1912 6.93345C15.1912 6.93344 15.1912 6.93343 15.1912 6.93343C15.1912 6.93343 15.1912 6.93343 15.1912 6.93343C15.1912 6.93343 15.1912 6.93343 15.1912 6.93343C15.1912 6.93342 15.1912 6.93342 15.1912 6.93342L16.0572 7.43342C16.0572 7.43342 16.0572 7.43342 16.0572 7.43342C16.0572 7.43342 16.0572 7.43342 16.0572 7.43342C16.0572 7.43342 16.0572 7.43342 16.0572 7.43342C16.0572 7.43342 16.0572 7.43342 16.0572 7.43342C16.0572 7.43342 16.0572 7.43342 16.0572 7.43342C16.0572 7.43342 16.0572 7.43341 16.0572 7.43341C16.0572 7.43341 16.0572 7.43341 16.0572 7.43341C16.0572 7.43341 16.0572 7.43341 16.0572 7.43341C16.0572 7.4334 16.0572 7.43341 16.0572 7.43341C16.0572 7.4334 16.0572 7.4334 16.0572 7.43339C16.0573 7.43335 16.0573 7.43331 16.0573 7.43326C15.8744 6.75051 15.1914 6.93312 15.1912 6.93335C15.1912 6.93338 15.1912 6.9334 15.1912 6.9334C15.1912 6.9334 15.1912 6.93341 15.1912 6.93341C15.1912 6.93341 15.1912 6.93342 15.1912 6.93341C15.1912 6.93341 15.1912 6.93341 15.1912 6.93341C15.1912 6.93341 15.1912 6.93341 15.1912 6.93341C15.1912 6.93342 15.1912 6.93342 15.1912 6.93342C15.1912 6.93342 15.1912 6.93342 15.1912 6.93342C15.1912 6.93342 15.1912 6.93342 15.1912 6.93342C15.1912 6.93342 15.1912 6.93342 15.1912 6.93342C15.1912 6.93342 15.1912 6.93342 15.1912 6.93342C15.1912 6.93342 15.1912 6.93342 15.1912 6.93342C15.1912 6.93342 15.1912 6.93342 15.1912 6.93342C15.1912 6.93342 15.1912 6.93342 15.1912 6.93342C15.1912 6.93342 15.1912 6.93342 15.1912 6.93342C15.1912 6.93342 15.1912 6.93342 15.1912 6.93342C15.1912 6.93343 15.1912 6.93343 15.1912 6.93343C15.1912 6.93343 15.1912 6.93343 15.1912 6.93344C15.1912 6.93345 15.1912 6.93349 15.1911 6.93352C15.1911 6.93358 15.3743 7.6165 16.0572 7.43344C16.0572 7.43343 16.0572 7.43345 16.0572 7.43344C16.0572 7.43344 16.0572 7.43343 16.0572 7.43343C16.0572 7.43343 16.0572 7.43343 16.0572 7.43343C16.0572 7.43343 16.0572 7.43343 16.0572 7.43343C16.0572 7.43343 16.0572 7.43343 16.0572 7.43342C16.0572 7.43342 16.0572 7.43342 16.0572 7.43342C16.0572 7.43342 16.0572 7.43342 16.0572 7.43342C16.0572 7.43342 16.0572 7.43342 16.0572 7.43342C16.0572 7.43342 16.0572 7.43342 16.0572 7.43342C16.0572 7.43342 16.0572 7.43342 16.0572 7.43342L15.1912 6.93342Z" fill="black"/>
</svg>
