<svg width="33" height="33" viewBox="0 0 33 33" fill="none" xmlns="http://www.w3.org/2000/svg">
<path fill-rule="evenodd" clip-rule="evenodd" d="M22.4209 6.2016C21.7998 5.84302 21.0056 6.05582 20.647 6.6769L19.0495 9.44395C19.0366 9.46638 19.024 9.48822 19.0117 9.50944C19.0057 9.51981 18.9998 9.53004 18.994 9.54011L15.791 15.0878L14.925 14.5878L18.1279 9.04011C18.2528 8.82383 18.3452 8.66308 18.4008 8.49519C18.4744 8.27318 18.5322 7.97631 18.4773 7.68919C18.4271 7.42656 18.2766 7.13172 17.8476 6.88407C17.5437 6.70859 17.2988 6.67174 17.1066 6.68873C16.9091 6.7062 16.7292 6.78424 16.5683 6.89515C16.2442 7.11861 16.0565 7.43374 16.0565 7.43374L10.3227 17.365C10.042 17.8512 9.317 17.7711 9.14922 17.2353L8.316 14.5742C8.11364 13.9279 7.41173 13.5824 6.77614 13.8162C6.18383 14.034 5.86621 14.6779 6.05379 15.2805L8.48317 23.0848C9.01001 24.7773 10.155 26.2092 11.6901 27.0955L12.6222 27.6337C15.4799 29.2836 19.134 28.3045 20.7839 25.4468L26.3232 15.8524C26.332 15.8364 26.507 15.5171 26.5479 15.1338C26.5687 14.9386 26.5521 14.7496 26.4804 14.581C26.4117 14.4197 26.279 14.244 26.0086 14.0879C25.7379 13.9317 25.5192 13.9046 25.345 13.926C25.163 13.9484 24.9907 14.0288 24.832 14.1448C24.673 14.2609 24.5429 14.4016 24.4508 14.5178C24.4056 14.5749 24.3716 14.6234 24.3498 14.6563C24.3389 14.6727 24.3312 14.6849 24.3267 14.6921L24.323 14.6982L24.3223 14.6993L22.0213 18.6849L21.1553 18.1849L23.4574 14.1975L23.4584 14.1957L23.4598 14.1933L24.3918 12.5791L24.3923 12.5782L24.3976 12.5685C24.4028 12.5589 24.4112 12.5431 24.4219 12.5217C24.4434 12.4788 24.4738 12.4143 24.5066 12.3335C24.5732 12.1694 24.6443 11.9507 24.6747 11.7164C24.7051 11.4817 24.6917 11.2538 24.6133 11.0531C24.5386 10.8618 24.3926 10.6628 24.0972 10.4923C23.8018 10.3217 23.5565 10.2948 23.3534 10.3257C23.1404 10.3581 22.9364 10.4605 22.7483 10.6042C22.5606 10.7476 22.4067 10.9186 22.298 11.0583C22.2444 11.1271 22.2037 11.1857 22.1773 11.2258C22.1641 11.2458 22.1546 11.2609 22.1489 11.2702L22.1435 11.2791L18.9061 16.8863L18.0401 16.3863L21.2775 10.7791L21.2785 10.7773L21.2799 10.7749L22.8962 7.97543C23.2547 7.35435 23.0419 6.56018 22.4209 6.2016ZM23.2699 9.32805L23.7622 8.47543C24.3969 7.37606 24.0202 5.9703 22.9209 5.33558C21.8215 4.70085 20.4157 5.07753 19.781 6.1769L19.3001 7.00993C19.1253 6.63971 18.8231 6.29256 18.3476 6.01805C17.8828 5.74965 17.4342 5.65586 17.0185 5.69262C16.6082 5.7289 16.266 5.88901 16.0008 6.07182C15.4824 6.42914 15.2034 6.91147 15.1911 6.9327L9.86157 16.1637L9.27032 14.2754C8.89718 13.0837 7.60292 12.4466 6.43093 12.8776C5.33877 13.2794 4.75311 14.4666 5.09898 15.5777L7.52836 23.382C8.12992 25.3145 9.43727 26.9496 11.1901 27.9616L12.1222 28.4997C15.4582 30.4258 19.7239 29.2828 21.6499 25.9468L27.1893 16.3523C27.2012 16.3317 27.4769 15.8529 27.5422 15.2398C27.5756 14.927 27.5567 14.5567 27.4006 14.1896C27.2413 13.8153 26.9538 13.4789 26.5086 13.2219C26.1051 12.9889 25.7099 12.9007 25.3389 12.9229C25.3665 12.8655 25.3991 12.7935 25.4332 12.7096C25.5203 12.495 25.6216 12.1903 25.6664 11.8449C25.711 11.4999 25.7021 11.0919 25.5448 10.6892C25.3838 10.2772 25.0805 9.90529 24.5972 9.62623C24.1385 9.36139 23.6884 9.27883 23.2699 9.32805ZM24.8256 12.8276C24.9233 12.884 24.9989 12.9276 25.0574 12.9614L24.8256 12.8276Z" fill="black"/>
<path fill-rule="evenodd" clip-rule="evenodd" d="M24.4209 4.45662L25.3331 -0.000976562L26.3128 0.199504L25.4006 4.6571L24.4209 4.45662ZM27.2563 5.00904L30.6606 1.99027L31.3241 2.73848L27.9198 5.75725L27.2563 5.00904ZM32.7838 9.11555L28.3262 8.20337L28.5267 7.22367L32.9843 8.13585L32.7838 9.11555Z" fill="black"/>
</svg>
