<svg width="32" height="32" viewBox="0 0 32 32" fill="none" xmlns="http://www.w3.org/2000/svg">
<path d="M20.2142 5.4274L20.6472 5.6774L20.6472 5.6774L20.2142 5.4274ZM23.3293 7.22593L23.7623 7.47593L23.3293 7.22593ZM21.7106 10.0296L21.2776 9.77957L21.2776 9.77957L21.7106 10.0296ZM23.8905 13.448L24.3236 13.698L24.3236 13.698L23.8905 13.448ZM21.217 24.6973L21.65 24.9473L21.217 24.6973ZM12.3724 27.0672L12.1224 27.5002L12.1224 27.5002L12.3724 27.0672ZM11.4402 26.529L11.6902 26.096L11.6902 26.096L11.4402 26.529ZM8.0059 22.2339L8.4833 22.0853L8.4833 22.0853L8.0059 22.2339ZM5.57652 14.4296L5.09911 14.5782L5.09911 14.5782L5.57652 14.4296ZM8.79329 13.4253L9.27045 13.2759L9.27045 13.2759L8.79329 13.4253ZM9.62651 16.0864L9.14935 16.2358L9.14935 16.2358L9.62651 16.0864ZM9.88985 16.1155L9.45684 15.8655L9.88985 16.1155ZM24.3473 9.05975L24.5973 8.62673L24.3473 9.05975ZM18.0978 5.45156L17.8478 5.88457L18.0978 5.45156ZM18.8756 7.65299L19.3502 7.81028L19.3502 7.81028L18.8756 7.65299ZM24.8258 11.8281L24.3928 11.5781L24.3928 11.5781L24.8258 11.8281ZM6.60367 12.3474L6.43106 11.8781L6.43106 11.8781L6.60367 12.3474ZM26.7565 15.1026L27.1895 15.3526L26.7565 15.1026ZM26.7565 15.1026L26.3235 14.8526L26.7565 15.1026ZM15.6242 6.18329L16.0572 6.43329L15.6242 6.18329ZM15.6242 6.18329L15.1912 5.93329L15.6242 6.18329ZM18.1281 8.04061L14.9251 13.5883L15.7911 14.0883L18.9941 8.54061L18.1281 8.04061ZM18.9941 8.54061L19.0277 8.48249L18.1616 7.98249L18.1281 8.04061L18.9941 8.54061ZM19.0277 8.48249L20.6472 5.6774L19.7811 5.1774L18.1616 7.98249L19.0277 8.48249ZM22.8963 6.97593L21.2776 9.77957L22.1436 10.2796L23.7623 7.47593L22.8963 6.97593ZM21.2776 9.77957L18.0403 15.3868L18.9063 15.8868L22.1436 10.2796L21.2776 9.77957ZM23.4575 13.198L21.1554 17.1854L22.0214 17.6854L24.3236 13.698L23.4575 13.198ZM26.3235 14.8526L20.784 24.4473L21.65 24.9473L27.1895 15.3526L26.3235 14.8526ZM12.6224 26.6342L11.6902 26.096L11.1902 26.9621L12.1224 27.5002L12.6224 26.6342ZM8.4833 22.0853L6.05392 14.281L5.09911 14.5782L7.52849 22.3825L8.4833 22.0853ZM8.31614 13.5747L9.14935 16.2358L10.1037 15.937L9.27045 13.2759L8.31614 13.5747ZM21.7106 10.0296C22.1436 10.2796 22.1435 10.2797 22.1435 10.2799C22.1434 10.2799 22.1433 10.2801 22.1433 10.2802C22.1432 10.2804 22.1431 10.2805 22.143 10.2807C22.1429 10.2809 22.1428 10.281 22.1428 10.2811C22.1427 10.2811 22.1429 10.2808 22.1434 10.28C22.1443 10.2785 22.1462 10.2754 22.149 10.2707C22.1547 10.2614 22.1643 10.2463 22.1774 10.2263C22.2039 10.1862 22.2445 10.1276 22.2981 10.0588C22.4068 9.9191 22.5607 9.74815 22.7484 9.60475C22.9365 9.46104 23.1405 9.35864 23.3535 9.3262C23.5566 9.29528 23.8019 9.32219 24.0973 9.49276L24.5973 8.62673C24.114 8.34767 23.6403 8.271 23.203 8.3376C22.7756 8.4027 22.4177 8.59896 22.1413 8.81012C21.8646 9.02159 21.6513 9.2617 21.5091 9.44439C21.4371 9.53676 21.3813 9.6171 21.3426 9.67573C21.3233 9.7051 21.3081 9.72921 21.2972 9.74687C21.2918 9.75571 21.2874 9.76295 21.2842 9.76844C21.2825 9.77119 21.2812 9.7735 21.2801 9.77536C21.2795 9.77629 21.279 9.77711 21.2786 9.77781C21.2784 9.77816 21.2782 9.77849 21.2781 9.77878C21.278 9.77893 21.2779 9.77912 21.2778 9.7792C21.2777 9.77939 21.2776 9.77957 21.7106 10.0296ZM16.0572 6.43329C16.0454 6.45379 16.2342 6.12627 16.568 5.89593C16.729 5.78492 16.9089 5.70678 17.1065 5.68925C17.2987 5.6722 17.5437 5.70902 17.8478 5.88457L18.3478 5.01855C17.8827 4.75003 17.4339 4.65628 17.0181 4.69316C16.6077 4.72957 16.2654 4.88986 16.0002 5.0728C15.4819 5.43036 15.203 5.91278 15.1912 5.93329L16.0572 6.43329ZM17.8478 5.88457C18.2767 6.13222 18.4272 6.42706 18.4775 6.68969C18.5324 6.97681 18.4745 7.27368 18.4009 7.49569L19.3502 7.81028C19.4507 7.50692 19.5595 7.02378 19.4597 6.50189C19.3552 5.9555 19.0298 5.41231 18.3478 5.01855L17.8478 5.88457ZM23.8905 13.448C24.3236 13.698 24.3235 13.6982 24.3234 13.6983C24.3233 13.6984 24.3232 13.6986 24.3232 13.6987C24.323 13.6989 24.3229 13.699 24.3229 13.6992C24.3227 13.6995 24.3225 13.6997 24.3225 13.6998C24.3223 13.7001 24.3224 13.7 24.3227 13.6995C24.3232 13.6986 24.3246 13.6963 24.3269 13.6926C24.3313 13.6854 24.339 13.6732 24.3499 13.6568C24.3718 13.6239 24.4058 13.5754 24.451 13.5183C24.543 13.4021 24.6731 13.2614 24.8322 13.1453C24.9909 13.0293 25.1631 12.9489 25.3451 12.9265C25.5193 12.9051 25.738 12.9322 26.0088 13.0884L26.5088 12.2224C26.063 11.965 25.6274 11.8843 25.2232 11.934C24.8269 11.9827 24.4966 12.152 24.2424 12.3377C23.9885 12.5231 23.7953 12.7356 23.6671 12.8973C23.6023 12.9792 23.552 13.0507 23.5171 13.1032C23.4996 13.1295 23.4859 13.1512 23.4759 13.1673C23.471 13.1754 23.4669 13.1821 23.4639 13.1872C23.4623 13.1898 23.461 13.192 23.46 13.1938C23.4595 13.1947 23.459 13.1955 23.4586 13.1962C23.4584 13.1965 23.4582 13.1969 23.458 13.1972C23.4579 13.1973 23.4578 13.1975 23.4578 13.1976C23.4576 13.1978 23.4575 13.198 23.8905 13.448ZM26.0088 13.0884C26.2795 13.2447 26.4122 13.4206 26.4808 13.5822C26.5524 13.751 26.5689 13.9404 26.5479 14.1358C26.5045 14.5392 26.3128 14.8711 26.3235 14.8526L27.1895 15.3526C27.2002 15.3341 27.4761 14.8561 27.5421 14.2427C27.5758 13.9297 27.5573 13.5591 27.4013 13.1915C27.2422 12.8166 26.9545 12.4798 26.5088 12.2224L26.0088 13.0884ZM24.0973 9.49276C24.3928 9.66333 24.5387 9.86231 24.6135 10.0536C24.6919 10.2543 24.7052 10.4822 24.6748 10.7169C24.6444 10.9512 24.5733 11.1699 24.5068 11.334C24.474 11.4148 24.4435 11.4793 24.422 11.5222C24.4113 11.5436 24.4029 11.5594 24.3977 11.569C24.3951 11.5738 24.3934 11.577 24.3925 11.5786C24.3921 11.5793 24.3919 11.5797 24.3919 11.5796C24.3919 11.5796 24.392 11.5794 24.3921 11.5792C24.3922 11.5791 24.3923 11.5789 24.3924 11.5787C24.3925 11.5786 24.3926 11.5785 24.3926 11.5784C24.3927 11.5783 24.3928 11.5781 24.8258 11.8281C25.2588 12.0781 25.2589 12.0779 25.259 12.0777C25.2591 12.0777 25.2592 12.0775 25.2593 12.0773C25.2594 12.077 25.2596 12.0767 25.2598 12.0763C25.2602 12.0756 25.2607 12.0748 25.2612 12.0739C25.2623 12.072 25.2636 12.0697 25.2652 12.0669C25.2683 12.0613 25.2724 12.0539 25.2773 12.0448C25.2872 12.0265 25.3005 12.0013 25.3162 11.9699C25.3476 11.9071 25.3893 11.8185 25.4333 11.7101C25.5204 11.4955 25.6218 11.1908 25.6665 10.8454C25.7112 10.5004 25.7022 10.0924 25.5449 9.68973C25.3839 9.27768 25.0807 8.9058 24.5973 8.62673L24.0973 9.49276ZM24.3928 11.5781L23.4575 13.198L24.3236 13.698L25.2588 12.0781L24.3928 11.5781ZM6.05392 14.281C5.86635 13.6784 6.18397 13.0345 6.77627 12.8167L6.43106 11.8781C5.3389 12.2799 4.75324 13.4671 5.09911 14.5782L6.05392 14.281ZM9.14935 16.2358C9.31713 16.7716 10.0421 16.8517 10.3229 16.3655L9.45684 15.8655C9.61157 15.5975 10.0112 15.6416 10.1037 15.937L9.14935 16.2358ZM22.421 5.2021C23.0421 5.56068 23.2549 6.35485 22.8963 6.97593L23.7623 7.47593C24.397 6.37656 24.0204 4.9708 22.921 4.33608L22.421 5.2021ZM6.77627 12.8167C7.41187 12.5829 8.11378 12.9284 8.31614 13.5747L9.27045 13.2759C8.89731 12.0842 7.60305 11.4471 6.43106 11.8781L6.77627 12.8167ZM20.6472 5.6774C21.0058 5.05632 21.7999 4.84352 22.421 5.2021L22.921 4.33608C21.8216 3.70135 20.4159 4.07803 19.7811 5.1774L20.6472 5.6774ZM11.6902 26.096C10.1551 25.2097 9.01014 23.7778 8.4833 22.0853L7.52849 22.3825C8.13005 24.315 9.4374 25.9501 11.1902 26.9621L11.6902 26.096ZM18.9941 8.54061C19.0051 8.52162 19.0165 8.50176 19.0278 8.48221L18.1615 7.98277C18.1504 8.00199 18.1395 8.02087 18.1281 8.04061L18.9941 8.54061ZM19.0278 8.4822C19.1341 8.29788 19.2644 8.06902 19.3502 7.81028L18.4009 7.49569C18.3512 7.64575 18.2704 7.79372 18.1615 7.98277L19.0278 8.4822ZM20.784 24.4473C19.1341 27.305 15.48 28.2841 12.6224 26.6342L12.1224 27.5002C15.4583 29.4263 19.724 28.2833 21.65 24.9473L20.784 24.4473ZM10.3229 16.3655L16.0572 6.43329L15.1912 5.93329L9.45684 15.8655L10.3229 16.3655ZM27.1895 15.3526L27.1895 15.3526L26.3235 14.8526L26.3235 14.8526L27.1895 15.3526ZM15.1912 5.93329C15.1912 5.93329 15.1912 5.93329 15.1912 5.93329C15.1912 5.93329 15.1912 5.93329 15.1912 5.93328C15.1912 5.93328 15.1912 5.93328 15.1912 5.93328C15.1912 5.93328 15.1912 5.93328 15.1912 5.93328C15.1912 5.93328 15.1912 5.93326 15.1912 5.93324C15.1912 5.93326 15.1912 5.9333 15.1912 5.93332C15.8742 5.75026 16.0573 6.43316 16.0573 6.43321C16.0573 6.43324 16.0572 6.43328 16.0572 6.43329C16.0572 6.43327 16.0572 6.43328 16.0572 6.43328C16.0572 6.43328 16.0572 6.43328 16.0572 6.43327C16.0572 6.43329 16.0572 6.43329 16.0572 6.43329C16.0572 6.43328 16.0572 6.43329 16.0572 6.43329C16.0572 6.43329 16.0572 6.43329 16.0572 6.43328C16.0572 6.43329 16.0572 6.43329 16.0572 6.43329C16.0572 6.43329 16.0572 6.43329 16.0572 6.43329C16.0572 6.43329 16.0572 6.43329 16.0572 6.43329C16.0572 6.43329 16.0572 6.43329 16.0572 6.43329C16.0572 6.43329 16.0572 6.43329 16.0572 6.43329C16.0572 6.43329 16.0572 6.43329 16.0572 6.43329C16.0572 6.43329 16.0572 6.43329 16.0572 6.43329C16.0572 6.43329 16.0572 6.43329 16.0572 6.43329C16.0572 6.43329 16.0572 6.43329 16.0572 6.43329C16.0572 6.43329 16.0572 6.43329 16.0572 6.4333C16.0572 6.4333 16.0572 6.4333 16.0572 6.4333C16.0572 6.4333 16.0572 6.4333 16.0572 6.4333C16.0572 6.4333 16.0572 6.43331 16.0572 6.43331C16.0572 6.43331 16.0572 6.43331 16.0572 6.43332C16.0572 6.43331 16.0572 6.43333 16.0572 6.43333C16.0572 6.43335 16.0572 6.43339 16.0572 6.4334C16.057 6.43367 15.374 6.61619 15.1911 5.93354C15.1911 5.93346 15.1911 5.93337 15.1911 5.93337C15.1912 5.93333 15.1912 5.93332 15.1912 5.93331C15.1912 5.93331 15.1912 5.9333 15.1912 5.93331C15.1912 5.9333 15.1912 5.9333 15.1912 5.9333C15.1912 5.93329 15.1912 5.93329 15.1912 5.93329L16.0572 6.43329C16.0572 6.43329 16.0572 6.43329 16.0572 6.43329C16.0572 6.43329 16.0572 6.43329 16.0572 6.43329C16.0572 6.43329 16.0572 6.43329 16.0572 6.43329C16.0572 6.43329 16.0572 6.43329 16.0572 6.43329C16.0572 6.43329 16.0572 6.43329 16.0572 6.43328C16.0572 6.43328 16.0572 6.43328 16.0572 6.43328C16.0572 6.43328 16.0572 6.43327 16.0572 6.43327C16.0572 6.43326 16.0572 6.43325 16.0572 6.43325C16.0573 6.43321 16.0573 6.43313 16.0574 6.43304C15.8744 5.75039 15.1914 5.93292 15.1913 5.93318C15.1913 5.93319 15.1912 5.93323 15.1912 5.93325C15.1912 5.93326 15.1912 5.93327 15.1912 5.93328C15.1912 5.93327 15.1912 5.93327 15.1912 5.93327C15.1912 5.93328 15.1912 5.93328 15.1912 5.93328C15.1912 5.93328 15.1912 5.93329 15.1912 5.93329C15.1912 5.93329 15.1912 5.93329 15.1912 5.93329C15.1912 5.93329 15.1912 5.93329 15.1912 5.93329C15.1912 5.93329 15.1912 5.93329 15.1912 5.93329C15.1912 5.93329 15.1912 5.93329 15.1912 5.93329C15.1912 5.93329 15.1912 5.93329 15.1912 5.93329C15.1912 5.93329 15.1912 5.93329 15.1912 5.93329C15.1912 5.93329 15.1912 5.93329 15.1912 5.93329C15.1912 5.93329 15.1912 5.93329 15.1912 5.93329C15.1912 5.93329 15.1912 5.93329 15.1912 5.93329C15.1912 5.93329 15.1912 5.9333 15.1912 5.9333C15.1912 5.9333 15.1912 5.93329 15.1912 5.93329C15.1912 5.9333 15.1912 5.9333 15.1912 5.93331C15.1912 5.9333 15.1912 5.9333 15.1912 5.93329C15.1912 5.9333 15.1912 5.9333 15.1912 5.93331C15.1912 5.9333 15.1912 5.93331 15.1912 5.93332C15.1912 5.93331 15.1912 5.93335 15.1911 5.93337C15.1911 5.93343 15.3742 6.61632 16.0572 6.43341C16.0572 6.43328 16.0572 6.43332 16.0572 6.43334C16.0572 6.43332 16.0572 6.4333 16.0572 6.4333C16.0572 6.4333 16.0572 6.4333 16.0572 6.4333C16.0572 6.4333 16.0572 6.4333 16.0572 6.4333C16.0572 6.4333 16.0572 6.4333 16.0572 6.4333C16.0572 6.4333 16.0572 6.4333 16.0572 6.4333C16.0572 6.4333 16.0572 6.43329 16.0572 6.43329C16.0572 6.43329 16.0572 6.43329 16.0572 6.43329C16.0572 6.43329 16.0572 6.43329 16.0572 6.43329C16.0572 6.43329 16.0572 6.43329 16.0572 6.43329C16.0572 6.43329 16.0572 6.43329 16.0572 6.43329L15.1912 5.93329Z" fill="black"/>
</svg>
