<svg width="32" height="32" viewBox="0 0 32 32" fill="none" xmlns="http://www.w3.org/2000/svg">
<path d="M9.33333 18.6667V18.6667C6.38782 18.6667 4 16.2789 4 13.3333V13.3333C4 10.3878 6.38781 8 9.33333 8H14.6667C17.6122 8 20 10.3878 20 13.3333V13.3333C20 16.2789 17.6122 18.6667 14.6667 18.6667V18.6667" stroke="black"/>
<path d="M17.3333 13.3333V13.3333C14.3878 13.3333 12 15.7211 12 18.6666V18.6666C12 21.6121 14.3878 23.9999 17.3333 23.9999H22.6667C25.6122 23.9999 28 21.6121 28 18.6666V18.6666C28 15.7211 25.6122 13.3333 22.6667 13.3333V13.3333" stroke="black"/>
</svg>
