<svg width="32" height="32" viewBox="0 0 32 32" fill="none" xmlns="http://www.w3.org/2000/svg">
<path d="M9 8H14V7H9V8ZM9 18C6.23858 18 4 15.7614 4 13H3C3 16.3137 5.68629 19 9 19V18ZM14 8C16.7614 8 19 10.2386 19 13H20C20 9.68629 17.3137 7 14 7V8ZM9 7C5.68629 7 3 9.68629 3 13H4C4 10.2386 6.23858 8 9 8V7ZM23 24H18V25H23V24ZM18 24C15.2386 24 13 21.7614 13 19H12C12 22.3137 14.6863 25 18 25V24ZM28 19C28 21.7614 25.7614 24 23 24V25C26.3137 25 29 22.3137 29 19H28ZM23 14C25.7614 14 28 16.2386 28 19H29C29 15.6863 26.3137 13 23 13V14ZM21.5 14H23V13H21.5V14ZM17.4551 13.0244C14.3965 13.3001 12 15.8699 12 19H13C13 16.3921 14.997 14.25 17.5449 14.0204L17.4551 13.0244ZM19 13C19 15.6079 17.003 17.75 14.4551 17.9796L14.5449 18.9756C17.6035 18.6999 20 16.1301 20 13H19ZM10.5 18H9V19H10.5V18Z" fill="black"/>
</svg>
