<svg width="33" height="33" viewBox="0 0 33 33" fill="none" xmlns="http://www.w3.org/2000/svg">
<path d="M20.2142 6.4274L20.6472 6.6774L20.6472 6.6774L20.2142 6.4274ZM23.3293 8.22593L23.7623 8.47593L23.3293 8.22593ZM21.7106 11.0296L21.2776 10.7796L21.2776 10.7796L21.7106 11.0296ZM23.8905 14.448L24.3236 14.698L24.3236 14.698L23.8905 14.448ZM21.217 25.6973L21.65 25.9473L21.217 25.6973ZM12.3724 28.0672L12.1224 28.5002L12.1224 28.5002L12.3724 28.0672ZM11.4402 27.529L11.6902 27.096L11.6902 27.096L11.4402 27.529ZM8.0059 23.2339L8.4833 23.0853L8.4833 23.0853L8.0059 23.2339ZM5.57652 15.4296L5.09911 15.5782L5.09911 15.5782L5.57652 15.4296ZM8.79329 14.4253L9.27045 14.2759L9.27045 14.2759L8.79329 14.4253ZM9.62651 17.0864L9.14935 17.2358L9.14935 17.2358L9.62651 17.0864ZM9.88985 17.1155L9.45684 16.8655L9.88985 17.1155ZM24.3473 10.0597L24.5973 9.62673L24.3473 10.0597ZM18.0978 6.45156L17.8478 6.88457L18.0978 6.45156ZM18.8756 8.65299L19.3502 8.81028L19.3502 8.81028L18.8756 8.65299ZM24.8258 12.8281L24.3928 12.5781L24.3928 12.5781L24.8258 12.8281ZM6.60367 13.3474L6.43106 12.8781L6.43106 12.8781L6.60367 13.3474ZM26.7565 16.1026L27.1895 16.3526L26.7565 16.1026ZM26.7565 16.1026L26.3235 15.8526L26.7565 16.1026ZM15.6242 7.18329L16.0572 7.43329L15.6242 7.18329ZM15.6242 7.18329L15.1912 6.93329L15.6242 7.18329ZM18.1281 9.04061L14.9251 14.5883L15.7911 15.0883L18.9941 9.54061L18.1281 9.04061ZM18.9941 9.54061L19.0277 9.48249L18.1616 8.98249L18.1281 9.04061L18.9941 9.54061ZM19.0277 9.48249L20.6472 6.6774L19.7811 6.1774L18.1616 8.98249L19.0277 9.48249ZM22.8963 7.97593L21.2776 10.7796L22.1436 11.2796L23.7623 8.47593L22.8963 7.97593ZM21.2776 10.7796L18.0403 16.3868L18.9063 16.8868L22.1436 11.2796L21.2776 10.7796ZM23.4575 14.198L21.1554 18.1854L22.0214 18.6854L24.3236 14.698L23.4575 14.198ZM26.3235 15.8526L20.784 25.4473L21.65 25.9473L27.1895 16.3526L26.3235 15.8526ZM12.6224 27.6342L11.6902 27.096L11.1902 27.9621L12.1224 28.5002L12.6224 27.6342ZM8.4833 23.0853L6.05392 15.281L5.09911 15.5782L7.52849 23.3825L8.4833 23.0853ZM8.31614 14.5747L9.14935 17.2358L10.1037 16.937L9.27045 14.2759L8.31614 14.5747ZM21.7106 11.0296C22.1436 11.2796 22.1435 11.2797 22.1435 11.2799C22.1434 11.2799 22.1433 11.2801 22.1433 11.2802C22.1432 11.2804 22.1431 11.2805 22.143 11.2807C22.1429 11.2809 22.1428 11.281 22.1428 11.2811C22.1427 11.2811 22.1429 11.2808 22.1434 11.28C22.1443 11.2785 22.1462 11.2754 22.149 11.2707C22.1547 11.2614 22.1643 11.2463 22.1774 11.2263C22.2039 11.1862 22.2445 11.1276 22.2981 11.0588C22.4068 10.9191 22.5607 10.7481 22.7484 10.6047C22.9365 10.461 23.1405 10.3586 23.3535 10.3262C23.5566 10.2953 23.8019 10.3222 24.0973 10.4928L24.5973 9.62673C24.114 9.34767 23.6403 9.271 23.203 9.3376C22.7756 9.4027 22.4177 9.59896 22.1413 9.81012C21.8646 10.0216 21.6513 10.2617 21.5091 10.4444C21.4371 10.5368 21.3813 10.6171 21.3426 10.6757C21.3233 10.7051 21.3081 10.7292 21.2972 10.7469C21.2918 10.7557 21.2874 10.7629 21.2842 10.7684C21.2825 10.7712 21.2812 10.7735 21.2801 10.7754C21.2795 10.7763 21.279 10.7771 21.2786 10.7778C21.2784 10.7782 21.2782 10.7785 21.2781 10.7788C21.278 10.7789 21.2779 10.7791 21.2778 10.7792C21.2777 10.7794 21.2776 10.7796 21.7106 11.0296ZM16.0572 7.43329C16.0454 7.45379 16.2342 7.12627 16.568 6.89593C16.729 6.78492 16.9089 6.70678 17.1065 6.68925C17.2987 6.6722 17.5437 6.70902 17.8478 6.88457L18.3478 6.01855C17.8827 5.75003 17.4339 5.65628 17.0181 5.69316C16.6077 5.72957 16.2654 5.88986 16.0002 6.0728C15.4819 6.43036 15.203 6.91278 15.1912 6.93329L16.0572 7.43329ZM17.8478 6.88457C18.2767 7.13222 18.4272 7.42706 18.4775 7.68969C18.5324 7.97681 18.4745 8.27368 18.4009 8.49569L19.3502 8.81028C19.4507 8.50692 19.5595 8.02378 19.4597 7.50189C19.3552 6.9555 19.0298 6.41231 18.3478 6.01855L17.8478 6.88457ZM23.8905 14.448C24.3236 14.698 24.3235 14.6982 24.3234 14.6983C24.3233 14.6984 24.3232 14.6986 24.3232 14.6987C24.323 14.6989 24.3229 14.699 24.3229 14.6992C24.3227 14.6995 24.3225 14.6997 24.3225 14.6998C24.3223 14.7001 24.3224 14.7 24.3227 14.6995C24.3232 14.6986 24.3246 14.6963 24.3269 14.6926C24.3313 14.6854 24.339 14.6732 24.3499 14.6568C24.3718 14.6239 24.4058 14.5754 24.451 14.5183C24.543 14.4021 24.6731 14.2614 24.8322 14.1453C24.9909 14.0293 25.1631 13.9489 25.3451 13.9265C25.5193 13.9051 25.738 13.9322 26.0088 14.0884L26.5088 13.2224C26.063 12.965 25.6274 12.8843 25.2232 12.934C24.8269 12.9827 24.4966 13.152 24.2424 13.3377C23.9885 13.5231 23.7953 13.7356 23.6671 13.8973C23.6023 13.9792 23.552 14.0507 23.5171 14.1032C23.4996 14.1295 23.4859 14.1512 23.4759 14.1673C23.471 14.1754 23.4669 14.1821 23.4639 14.1872C23.4623 14.1898 23.461 14.192 23.46 14.1938C23.4595 14.1947 23.459 14.1955 23.4586 14.1962C23.4584 14.1965 23.4582 14.1969 23.458 14.1972C23.4579 14.1973 23.4578 14.1975 23.4578 14.1976C23.4576 14.1978 23.4575 14.198 23.8905 14.448ZM26.0088 14.0884C26.2795 14.2447 26.4122 14.4206 26.4808 14.5822C26.5524 14.751 26.5689 14.9404 26.5479 15.1358C26.5045 15.5392 26.3128 15.8711 26.3235 15.8526L27.1895 16.3526C27.2002 16.3341 27.4761 15.8561 27.5421 15.2427C27.5758 14.9297 27.5573 14.5591 27.4013 14.1915C27.2422 13.8166 26.9545 13.4798 26.5088 13.2224L26.0088 14.0884ZM24.0973 10.4928C24.3928 10.6633 24.5387 10.8623 24.6135 11.0536C24.6919 11.2543 24.7052 11.4822 24.6748 11.7169C24.6444 11.9512 24.5733 12.1699 24.5068 12.334C24.474 12.4148 24.4435 12.4793 24.422 12.5222C24.4113 12.5436 24.4029 12.5594 24.3977 12.569C24.3951 12.5738 24.3934 12.577 24.3925 12.5786C24.3921 12.5793 24.3919 12.5797 24.3919 12.5796C24.3919 12.5796 24.392 12.5794 24.3921 12.5792C24.3922 12.5791 24.3923 12.5789 24.3924 12.5787C24.3925 12.5786 24.3926 12.5785 24.3926 12.5784C24.3927 12.5783 24.3928 12.5781 24.8258 12.8281C25.2588 13.0781 25.2589 13.0779 25.259 13.0777C25.2591 13.0777 25.2592 13.0775 25.2593 13.0773C25.2594 13.077 25.2596 13.0767 25.2598 13.0763C25.2602 13.0756 25.2607 13.0748 25.2612 13.0739C25.2623 13.072 25.2636 13.0697 25.2652 13.0669C25.2683 13.0613 25.2724 13.0539 25.2773 13.0448C25.2872 13.0265 25.3005 13.0013 25.3162 12.9699C25.3476 12.9071 25.3893 12.8185 25.4333 12.7101C25.5204 12.4955 25.6218 12.1908 25.6665 11.8454C25.7112 11.5004 25.7022 11.0924 25.5449 10.6897C25.3839 10.2777 25.0807 9.9058 24.5973 9.62673L24.0973 10.4928ZM24.3928 12.5781L23.4575 14.198L24.3236 14.698L25.2588 13.0781L24.3928 12.5781ZM6.05392 15.281C5.86635 14.6784 6.18397 14.0345 6.77627 13.8167L6.43106 12.8781C5.3389 13.2799 4.75324 14.4671 5.09911 15.5782L6.05392 15.281ZM9.14935 17.2358C9.31713 17.7716 10.0421 17.8517 10.3229 17.3655L9.45684 16.8655C9.61157 16.5975 10.0112 16.6416 10.1037 16.937L9.14935 17.2358ZM22.421 6.2021C23.0421 6.56068 23.2549 7.35485 22.8963 7.97593L23.7623 8.47593C24.397 7.37656 24.0204 5.9708 22.921 5.33608L22.421 6.2021ZM6.77627 13.8167C7.41187 13.5829 8.11378 13.9284 8.31614 14.5747L9.27045 14.2759C8.89731 13.0842 7.60305 12.4471 6.43106 12.8781L6.77627 13.8167ZM20.6472 6.6774C21.0058 6.05632 21.7999 5.84352 22.421 6.2021L22.921 5.33608C21.8216 4.70135 20.4159 5.07803 19.7811 6.1774L20.6472 6.6774ZM11.6902 27.096C10.1551 26.2097 9.01014 24.7778 8.4833 23.0853L7.52849 23.3825C8.13005 25.315 9.4374 26.9501 11.1902 27.9621L11.6902 27.096ZM18.9941 9.54061C19.0051 9.52162 19.0165 9.50176 19.0278 9.48221L18.1615 8.98277C18.1504 9.00199 18.1395 9.02087 18.1281 9.04061L18.9941 9.54061ZM19.0278 9.4822C19.1341 9.29788 19.2644 9.06902 19.3502 8.81028L18.4009 8.49569C18.3512 8.64575 18.2704 8.79372 18.1615 8.98277L19.0278 9.4822ZM20.784 25.4473C19.1341 28.305 15.48 29.2841 12.6224 27.6342L12.1224 28.5002C15.4583 30.4263 19.724 29.2833 21.65 25.9473L20.784 25.4473ZM10.3229 17.3655L16.0572 7.43329L15.1912 6.93329L9.45684 16.8655L10.3229 17.3655ZM27.1895 16.3526L27.1895 16.3526L26.3235 15.8526L26.3235 15.8526L27.1895 16.3526ZM15.1912 6.93329C15.1912 6.93329 15.1912 6.93329 15.1912 6.93329C15.1912 6.93329 15.1912 6.93329 15.1912 6.93328C15.1912 6.93328 15.1912 6.93328 15.1912 6.93328C15.1912 6.93328 15.1912 6.93328 15.1912 6.93328C15.1912 6.93328 15.1912 6.93326 15.1912 6.93324C15.1912 6.93326 15.1912 6.9333 15.1912 6.93332C15.8742 6.75026 16.0573 7.43316 16.0573 7.43321C16.0573 7.43324 16.0572 7.43328 16.0572 7.43329C16.0572 7.43327 16.0572 7.43328 16.0572 7.43328C16.0572 7.43328 16.0572 7.43328 16.0572 7.43327C16.0572 7.43329 16.0572 7.43329 16.0572 7.43329C16.0572 7.43328 16.0572 7.43329 16.0572 7.43329C16.0572 7.43329 16.0572 7.43329 16.0572 7.43328C16.0572 7.43329 16.0572 7.43329 16.0572 7.43329C16.0572 7.43329 16.0572 7.43329 16.0572 7.43329C16.0572 7.43329 16.0572 7.43329 16.0572 7.43329C16.0572 7.43329 16.0572 7.43329 16.0572 7.43329C16.0572 7.43329 16.0572 7.43329 16.0572 7.43329C16.0572 7.43329 16.0572 7.43329 16.0572 7.43329C16.0572 7.43329 16.0572 7.43329 16.0572 7.43329C16.0572 7.43329 16.0572 7.43329 16.0572 7.43329C16.0572 7.43329 16.0572 7.43329 16.0572 7.43329C16.0572 7.43329 16.0572 7.43329 16.0572 7.4333C16.0572 7.4333 16.0572 7.4333 16.0572 7.4333C16.0572 7.4333 16.0572 7.4333 16.0572 7.4333C16.0572 7.4333 16.0572 7.43331 16.0572 7.43331C16.0572 7.43331 16.0572 7.43331 16.0572 7.43332C16.0572 7.43331 16.0572 7.43333 16.0572 7.43333C16.0572 7.43335 16.0572 7.43339 16.0572 7.4334C16.057 7.43367 15.374 7.61619 15.1911 6.93354C15.1911 6.93346 15.1911 6.93337 15.1911 6.93337C15.1912 6.93333 15.1912 6.93332 15.1912 6.93331C15.1912 6.93331 15.1912 6.9333 15.1912 6.93331C15.1912 6.9333 15.1912 6.9333 15.1912 6.9333C15.1912 6.93329 15.1912 6.93329 15.1912 6.93329L16.0572 7.43329C16.0572 7.43329 16.0572 7.43329 16.0572 7.43329C16.0572 7.43329 16.0572 7.43329 16.0572 7.43329C16.0572 7.43329 16.0572 7.43329 16.0572 7.43329C16.0572 7.43329 16.0572 7.43329 16.0572 7.43329C16.0572 7.43329 16.0572 7.43329 16.0572 7.43328C16.0572 7.43328 16.0572 7.43328 16.0572 7.43328C16.0572 7.43328 16.0572 7.43327 16.0572 7.43327C16.0572 7.43326 16.0572 7.43325 16.0572 7.43325C16.0573 7.43321 16.0573 7.43313 16.0574 7.43304C15.8744 6.75039 15.1914 6.93292 15.1913 6.93318C15.1913 6.93319 15.1912 6.93323 15.1912 6.93325C15.1912 6.93326 15.1912 6.93327 15.1912 6.93328C15.1912 6.93327 15.1912 6.93327 15.1912 6.93327C15.1912 6.93328 15.1912 6.93328 15.1912 6.93328C15.1912 6.93328 15.1912 6.93329 15.1912 6.93329C15.1912 6.93329 15.1912 6.93329 15.1912 6.93329C15.1912 6.93329 15.1912 6.93329 15.1912 6.93329C15.1912 6.93329 15.1912 6.93329 15.1912 6.93329C15.1912 6.93329 15.1912 6.93329 15.1912 6.93329C15.1912 6.93329 15.1912 6.93329 15.1912 6.93329C15.1912 6.93329 15.1912 6.93329 15.1912 6.93329C15.1912 6.93329 15.1912 6.93329 15.1912 6.93329C15.1912 6.93329 15.1912 6.93329 15.1912 6.93329C15.1912 6.93329 15.1912 6.93329 15.1912 6.93329C15.1912 6.93329 15.1912 6.9333 15.1912 6.9333C15.1912 6.9333 15.1912 6.93329 15.1912 6.93329C15.1912 6.9333 15.1912 6.9333 15.1912 6.93331C15.1912 6.9333 15.1912 6.9333 15.1912 6.93329C15.1912 6.9333 15.1912 6.9333 15.1912 6.93331C15.1912 6.9333 15.1912 6.93331 15.1912 6.93332C15.1912 6.93331 15.1912 6.93335 15.1911 6.93337C15.1911 6.93343 15.3742 7.61632 16.0572 7.43341C16.0572 7.43328 16.0572 7.43332 16.0572 7.43334C16.0572 7.43332 16.0572 7.4333 16.0572 7.4333C16.0572 7.4333 16.0572 7.4333 16.0572 7.4333C16.0572 7.4333 16.0572 7.4333 16.0572 7.4333C16.0572 7.4333 16.0572 7.4333 16.0572 7.4333C16.0572 7.4333 16.0572 7.4333 16.0572 7.4333C16.0572 7.4333 16.0572 7.43329 16.0572 7.43329C16.0572 7.43329 16.0572 7.43329 16.0572 7.43329C16.0572 7.43329 16.0572 7.43329 16.0572 7.43329C16.0572 7.43329 16.0572 7.43329 16.0572 7.43329C16.0572 7.43329 16.0572 7.43329 16.0572 7.43329L15.1912 6.93329Z" fill="black"/>
<path d="M25.3332 -0.000630775L24.421 4.45697L25.4007 4.65745L26.3129 0.19985L25.3332 -0.000630775ZM30.6607 1.99062L27.2564 5.00939L27.9199 5.75759L31.3242 2.73882L30.6607 1.99062ZM28.3264 8.20372L32.784 9.1159L32.9844 8.1362L28.5268 7.22402L28.3264 8.20372Z" fill="white"/>
</svg>
