<svg width="32" height="32" viewBox="0 0 32 32" fill="none" xmlns="http://www.w3.org/2000/svg">
<path d="M27.4918 17.1808C27.4918 23.7982 22.3468 26.5 16 26.5C9.65325 26.5 4.50819 23.7982 4.50819 17.1808C4.50819 14.7177 4.33704 12.4282 5.55936 10.5243C8.97829 5.19889 14.0847 8.52744 16 8.52736C17.9153 8.52728 23.0218 5.19889 26.4406 10.5243C27.663 12.4282 27.4918 14.7177 27.4918 17.1808Z" stroke="black"/>
<path d="M4.67529 17.5H27.342" stroke="black"/>
<line x1="16.1753" y1="18" x2="16.1753" y2="14" stroke="black"/>
<line x1="10.1753" y1="17.6667" x2="10.1753" y2="15.0001" stroke="black"/>
<line x1="22.1753" y1="17.6667" x2="22.1753" y2="15.0001" stroke="black"/>
<path d="M18.5 5C18.5 6.38071 17.3807 8 16 8C14.6193 8 13.5 6.38071 13.5 5" stroke="black"/>
</svg>
