<svg width="32" height="32" viewBox="0 0 32 32" fill="none" xmlns="http://www.w3.org/2000/svg">
<path d="M27 7.5C27 9.433 25.433 11 23.5 11V12C25.9853 12 28 9.98528 28 7.5H27ZM23.5 11C21.567 11 20 9.433 20 7.5H19C19 9.98528 21.0147 12 23.5 12V11ZM20 7.5C20 5.567 21.567 4 23.5 4V3C21.0147 3 19 5.01472 19 7.5H20ZM23.5 4C25.433 4 27 5.567 27 7.5H28C28 5.01472 25.9853 3 23.5 3V4ZM12 16C12 17.933 10.433 19.5 8.5 19.5V20.5C10.9853 20.5 13 18.4853 13 16H12ZM8.5 19.5C6.567 19.5 5 17.933 5 16H4C4 18.4853 6.01472 20.5 8.5 20.5V19.5ZM5 16C5 14.067 6.567 12.5 8.5 12.5V11.5C6.01472 11.5 4 13.5147 4 16H5ZM8.5 12.5C10.433 12.5 12 14.067 12 16H13C13 13.5147 10.9853 11.5 8.5 11.5V12.5ZM27 24.5C27 26.433 25.433 28 23.5 28V29C25.9853 29 28 26.9853 28 24.5H27ZM23.5 28C21.567 28 20 26.433 20 24.5H19C19 26.9853 21.0147 29 23.5 29V28ZM20 24.5C20 22.567 21.567 21 23.5 21V20C21.0147 20 19 22.0147 19 24.5H20ZM23.5 21C25.433 21 27 22.567 27 24.5H28C28 22.0147 25.9853 20 23.5 20V21ZM19.9232 9.2293L11.5764 13.4027L12.0237 14.2971L20.3704 10.1237L19.9232 9.2293ZM11.5764 18.5972L19.9232 22.7706L20.3704 21.8762L12.0237 17.7028L11.5764 18.5972Z" fill="black"/>
</svg>
