<svg width="24" height="24" viewBox="0 0 24 24" fill="none" xmlns="http://www.w3.org/2000/svg">
<path d="M14.7751 4.3334L15.9749 5.8331C16.0698 5.95171 16.2134 6.02075 16.3653 6.02075H20.5C20.7761 6.02075 21 6.24461 21 6.52075V19.0208C21 19.2969 20.7761 19.5208 20.5 19.5208H3.5C3.22386 19.5208 3 19.2969 3 19.0208V6.52075C3 6.24461 3.22386 6.02075 3.5 6.02075H7.63469C7.78658 6.02075 7.93024 5.95171 8.02512 5.8331L9.22488 4.3334C9.31976 4.2148 9.46342 4.14575 9.61531 4.14575H14.3847C14.5366 4.14575 14.6802 4.2148 14.7751 4.3334Z" stroke="black"/>
<circle cx="12" cy="12.3958" r="4.875" stroke="black"/>
<circle cx="12" cy="12.3958" r="2.625" stroke="black"/>
</svg>
