<svg width="24" height="24" viewBox="0 0 24 24" fill="none" xmlns="http://www.w3.org/2000/svg">
<path d="M6 3H18V21L12 13.8L6 21V3Z" fill="black"/>
<path d="M6 3V2.5L5.5 3H6ZM18 3H18.5L18 2.5V3ZM18 21L17.6159 21.3201L18.5 21H18ZM6 21H5.5L6.38411 21.3201L6 21ZM12 13.8L12.3841 13.4799H11.6159L12 13.8ZM6 3.5H18V2.5H6V3.5ZM17.5 3V21H18.5V3H17.5ZM6.5 21V3H5.5V21H6.5ZM18.3841 20.6799L12.3841 13.4799L11.6159 14.1201L17.6159 21.3201L18.3841 20.6799ZM11.6159 13.4799L5.61589 20.6799L6.38411 21.3201L12.3841 14.1201L11.6159 13.4799Z" fill="black"/>
</svg>
