<svg width="26" height="26" viewBox="0 0 26 26" fill="none" xmlns="http://www.w3.org/2000/svg">
<path d="M14.2673 14.2189L16.6953 10.0134M16.6953 10.0134L17.9093 7.9107C18.2818 7.26553 18.0607 6.44055 17.4156 6.06806V6.06806C16.7704 5.69558 15.9454 5.91663 15.5729 6.5618L11.9309 12.87L14.2886 8.7864C14.4074 8.58055 14.5306 8.37475 14.595 8.14597C14.7114 7.73331 14.7625 7.02843 13.9857 6.57992C12.8319 5.91381 12.1305 7.12871 12.1305 7.12871C12.1305 7.12871 12.1305 7.12871 12.1305 7.12871L8.51543 13.3902L7.82972 14.5779C7.78247 14.6597 7.66045 14.6462 7.63221 14.556L7.0073 12.5602C6.79149 11.871 6.04293 11.5025 5.36508 11.7518V11.7518C4.73341 11.9841 4.39468 12.6708 4.59472 13.3134L6.41676 19.1667C6.83991 20.526 7.75952 21.6762 8.99249 22.388L9.69161 22.7917C12.0142 24.1326 14.9841 23.3368 16.3251 21.0142V21.0142L20.4797 13.8182C20.4797 13.8182 20.4797 13.8182 20.4797 13.8182C20.4797 13.8182 21.1811 12.6033 20.1064 11.9828C19.0317 11.3623 18.3302 12.5772 18.3302 12.5772M16.6953 10.0134C16.6953 10.0134 17.5046 8.61161 18.6728 9.28606C19.841 9.96051 19.0317 11.3623 19.0317 11.3623C19.0317 11.3623 19.0317 11.3623 19.0317 11.3623L18.3302 12.5772M18.3302 12.5772L16.6036 15.5678" stroke="black"/>
<line x1="19.902" y1="1.0909" x2="19.2178" y2="4.4341" stroke="black"/>
<line x1="24.4894" y1="2.85823" x2="21.9362" y2="5.12231" stroke="black"/>
<line x1="21.7572" y1="7.40407" x2="25.1004" y2="8.08821" stroke="black"/>
</svg>
