<svg width="26" height="26" viewBox="0 0 26 26" fill="none" xmlns="http://www.w3.org/2000/svg">
<path d="M14.2883 8.78631L14.7214 9.03631V9.03631L14.2883 8.78631ZM15.5727 6.56171L16.0057 6.81171L15.5727 6.56171ZM17.9091 7.91061L17.4761 7.66061L17.9091 7.91061ZM16.6951 10.0133L17.1281 10.2633L16.6951 10.0133ZM18.33 12.5771L18.763 12.8271L18.33 12.5771ZM16.3249 21.0141L15.8918 20.7641L16.3249 21.0141ZM9.69138 22.7916L9.94138 22.3586L9.69138 22.7916ZM8.99226 22.3879L8.74226 22.8209L8.99226 22.3879ZM6.41653 19.1666L6.89394 19.018L6.41653 19.1666ZM4.5945 13.3133L5.0719 13.1647L4.5945 13.3133ZM7.00708 12.5601L7.48423 12.4107L7.00708 12.5601ZM7.63199 14.5559L7.15483 14.7053H7.15483L7.63199 14.5559ZM7.82949 14.5778L8.26251 14.8278L7.82949 14.5778ZM18.6726 9.28597L18.9226 8.85296L18.6726 9.28597ZM13.9854 6.57983L14.2354 6.14682L13.9854 6.57983ZM14.5948 8.14589L15.0761 8.28153L14.5948 8.14589ZM20.1062 11.9827L19.8562 12.4157L20.1062 11.9827ZM19.0314 11.3622L19.4645 11.6122L19.0314 11.3622ZM5.36486 11.7517L5.53746 12.221H5.53746L5.36486 11.7517ZM17.4154 6.06798L17.1654 6.50099L17.4154 6.06798ZM20.4795 13.8181L20.0464 13.5681L20.4795 13.8181ZM20.4795 13.8181L20.0464 13.5681L20.4795 13.8181ZM12.1303 7.12863L12.5633 7.37864L12.1303 7.12863ZM12.1303 7.12863L12.5633 7.37863L12.1303 7.12863ZM13.8553 8.53631L11.4977 12.6199L12.3637 13.1199L14.7214 9.03631L13.8553 8.53631ZM14.7214 9.03631L14.7821 8.93106L13.9161 8.43106L13.8553 8.53631L14.7214 9.03631ZM14.7821 8.93106L16.0057 6.81171L15.1397 6.31171L13.9161 8.43106L14.7821 8.93106ZM17.4761 7.66061L16.2621 9.76334L17.1281 10.2633L18.3421 8.16061L17.4761 7.66061ZM16.2621 9.76334L13.834 13.9688L14.7001 14.4688L17.1281 10.2633L16.2621 9.76334ZM17.897 12.3271L16.1704 15.3177L17.0364 15.8177L18.763 12.8271L17.897 12.3271ZM20.0464 13.5681L15.8918 20.7641L16.7579 21.2641L20.9125 14.0681L20.0464 13.5681ZM9.94138 22.3586L9.24226 21.9549L8.74226 22.8209L9.44138 23.2246L9.94138 22.3586ZM6.89394 19.018L5.0719 13.1647L4.11709 13.4619L5.93913 19.3152L6.89394 19.018ZM6.52992 12.7095L7.15483 14.7053L8.10915 14.4065L7.48423 12.4107L6.52992 12.7095ZM16.6951 10.0133C17.1281 10.2633 17.128 10.2635 17.1279 10.2637C17.1279 10.2637 17.1278 10.2639 17.1277 10.264C17.1276 10.2642 17.1275 10.2643 17.1274 10.2645C17.1272 10.2648 17.1271 10.265 17.127 10.2652C17.1268 10.2655 17.1269 10.2655 17.127 10.2651C17.1274 10.2645 17.1285 10.2626 17.1304 10.2597C17.134 10.2538 17.1404 10.2435 17.1495 10.2297C17.1678 10.202 17.1964 10.1607 17.2343 10.112C17.3117 10.0127 17.4197 9.89309 17.5493 9.79405C17.6794 9.6947 17.8131 9.62963 17.9461 9.60939C18.0691 9.59065 18.2245 9.60461 18.4226 9.71898L18.9226 8.85296C18.5366 8.6301 18.1528 8.56637 17.7955 8.62079C17.4481 8.67369 17.1605 8.83262 16.9422 8.99942C16.7235 9.16653 16.5562 9.35526 16.4453 9.49765C16.389 9.56988 16.3453 9.63285 16.3147 9.67913C16.2994 9.70234 16.2873 9.72154 16.2785 9.73583C16.2741 9.74298 16.2706 9.74892 16.2678 9.75354C16.2664 9.75585 16.2653 9.75783 16.2643 9.75947C16.2638 9.76028 16.2634 9.76102 16.263 9.76166C16.2628 9.76199 16.2627 9.76229 16.2625 9.76257C16.2624 9.76271 16.2623 9.7629 16.2623 9.76297C16.2622 9.76315 16.2621 9.76334 16.6951 10.0133ZM12.5633 7.37864C12.5515 7.39908 12.6818 7.17282 12.9091 7.01598C13.0168 6.94172 13.1314 6.89339 13.253 6.88261C13.3692 6.8723 13.5275 6.8928 13.7354 7.01284L14.2354 6.14682C13.8665 5.93382 13.5045 5.85638 13.1647 5.88652C12.8303 5.91617 12.5532 6.04664 12.3413 6.19283C11.9295 6.47688 11.7091 6.85805 11.6973 6.87862L12.5633 7.37864ZM13.7354 7.01284C14.0083 7.17036 14.1029 7.3467 14.1395 7.49566C14.181 7.66433 14.1589 7.84939 14.1136 8.01024L15.0761 8.28153C15.147 8.02972 15.2087 7.656 15.1106 7.25694C15.0077 6.83817 14.7394 6.43781 14.2354 6.14682L13.7354 7.01284ZM18.33 12.5771C18.763 12.8271 18.7629 12.8273 18.7628 12.8275C18.7628 12.8276 18.7627 12.8277 18.7626 12.8278C18.7625 12.8281 18.7624 12.8283 18.7623 12.8284C18.7621 12.8288 18.7619 12.8291 18.7618 12.8293C18.7615 12.8297 18.7614 12.8299 18.7615 12.8298C18.7616 12.8297 18.7623 12.8285 18.7636 12.8263C18.7663 12.822 18.7713 12.814 18.7786 12.803C18.7934 12.7808 18.8169 12.7472 18.8483 12.7075C18.9128 12.6261 19.0025 12.5295 19.1099 12.451C19.217 12.3728 19.3265 12.3236 19.4362 12.3101C19.5381 12.2976 19.675 12.3112 19.8562 12.4157L20.3562 11.5497C19.9999 11.3441 19.6462 11.2768 19.3143 11.3176C18.9902 11.3574 18.7228 11.4955 18.5202 11.6435C18.3179 11.7912 18.1651 11.9595 18.0645 12.0865C18.0134 12.151 17.9737 12.2075 17.9459 12.2493C17.9319 12.2703 17.9208 12.2878 17.9127 12.301C17.9086 12.3076 17.9053 12.3131 17.9027 12.3175C17.9013 12.3197 17.9002 12.3216 17.8993 12.3232C17.8988 12.324 17.8984 12.3248 17.898 12.3254C17.8978 12.3257 17.8976 12.3261 17.8975 12.3263C17.8974 12.3265 17.8973 12.3267 17.8972 12.3268C17.8971 12.327 17.897 12.3271 18.33 12.5771ZM19.8562 12.4157C20.0373 12.5203 20.1175 12.6321 20.1576 12.7266C20.2008 12.8284 20.2129 12.9477 20.1987 13.0796C20.169 13.3559 20.0358 13.5866 20.0464 13.5681L20.9125 14.0681C20.9232 14.0495 21.1407 13.6728 21.193 13.1865C21.2198 12.9371 21.2057 12.6364 21.0781 12.3359C20.9475 12.0281 20.7124 11.7554 20.3562 11.5497L19.8562 12.4157ZM18.4226 9.71898C18.6207 9.83335 18.7105 9.96097 18.7558 10.0769C18.8047 10.2021 18.8152 10.3505 18.7942 10.5128C18.7733 10.6746 18.7237 10.8279 18.6764 10.9446C18.6532 11.0017 18.6317 11.0471 18.6168 11.0769C18.6094 11.0916 18.6038 11.1023 18.6005 11.1084C18.5988 11.1115 18.5978 11.1134 18.5974 11.114C18.5972 11.1144 18.5972 11.1144 18.5974 11.1141C18.5974 11.1139 18.5976 11.1137 18.5978 11.1134C18.5978 11.1132 18.5979 11.1131 18.5981 11.1129C18.5981 11.1128 18.5982 11.1126 18.5982 11.1126C18.5983 11.1124 18.5984 11.1122 19.0314 11.3622C19.4645 11.6122 19.4646 11.6121 19.4647 11.6119C19.4647 11.6118 19.4648 11.6116 19.4649 11.6115C19.4651 11.6112 19.4652 11.6109 19.4654 11.6106C19.4658 11.6099 19.4662 11.6092 19.4667 11.6083C19.4676 11.6067 19.4687 11.6047 19.4701 11.6024C19.4727 11.5977 19.476 11.5916 19.48 11.5842C19.488 11.5695 19.4986 11.5494 19.511 11.5245C19.5359 11.4749 19.5685 11.4055 19.6029 11.3207C19.6708 11.1535 19.7506 10.9142 19.7859 10.6412C19.8212 10.3688 19.8151 10.0402 19.6872 9.71297C19.5557 9.37634 19.3086 9.07581 18.9226 8.85296L18.4226 9.71898ZM18.5984 11.1122L17.897 12.3271L18.763 12.8271L19.4645 11.6122L18.5984 11.1122ZM5.0719 13.1647C4.95101 12.7764 5.15572 12.3614 5.53746 12.221L5.19225 11.2824C4.31066 11.6067 3.8379 12.5651 4.11709 13.4619L5.0719 13.1647ZM7.15483 14.7053C7.3132 15.2111 7.99752 15.2867 8.26251 14.8278L7.39648 14.3278C7.56697 14.0325 8.00726 14.0811 8.10914 14.4065L7.15483 14.7053ZM17.1654 6.50099C17.5714 6.73541 17.7105 7.25459 17.4761 7.66061L18.3421 8.16061C18.8527 7.2763 18.5497 6.14553 17.6654 5.63497L17.1654 6.50099ZM5.53746 12.221C5.94711 12.0703 6.3995 12.293 6.52992 12.7095L7.48423 12.4107C7.18303 11.4488 6.1383 10.9345 5.19225 11.2824L5.53746 12.221ZM16.0057 6.81171C16.2402 6.40569 16.7593 6.26657 17.1654 6.50099L17.6654 5.63497C16.781 5.12441 15.6503 5.42739 15.1397 6.31171L16.0057 6.81171ZM9.24226 21.9549C8.11815 21.3059 7.27973 20.2573 6.89394 19.018L5.93913 19.3152C6.39964 20.7946 7.40044 22.0462 8.74226 22.8209L9.24226 21.9549ZM14.7214 9.03631C14.7406 9.00291 14.7622 8.96574 14.7828 8.9299L13.9154 8.43223C13.8956 8.4667 13.8765 8.49962 13.8553 8.53631L14.7214 9.03631ZM14.7828 8.9299C14.882 8.75694 15.0043 8.53621 15.0761 8.28153L14.1136 8.01024C14.0784 8.13522 14.0128 8.26251 13.9154 8.43222L14.7828 8.9299ZM15.8918 20.7641C14.689 22.8476 12.0248 23.5614 9.94138 22.3586L9.44138 23.2246C12.0031 24.7036 15.2788 23.8259 16.7579 21.2641L15.8918 20.7641ZM19.412 0.99058L18.7279 4.33378L19.7076 4.53426L20.3917 1.19106L19.412 0.99058ZM24.1576 2.48404L21.6043 4.74812L22.2678 5.49632L24.821 3.23224L24.1576 2.48404ZM21.6569 7.89386L25.0001 8.57799L25.2006 7.59829L21.8574 6.91416L21.6569 7.89386ZM8.26251 14.8278L12.5633 7.37863L11.6972 6.87863L7.39648 14.3278L8.26251 14.8278ZM20.9125 14.0681L20.9125 14.0681L20.0464 13.5681L20.0464 13.5681L20.9125 14.0681ZM11.6973 6.87862L11.6972 6.87863L12.5633 7.37863L12.5633 7.37864L11.6973 6.87862Z" fill="black"/>
</svg>
