<svg width="24" height="24" viewBox="0 0 24 24" fill="none" xmlns="http://www.w3.org/2000/svg">
<path d="M14.2883 6.78648L14.7214 7.03648L14.7214 7.03648L14.2883 6.78648ZM15.5727 4.56188L15.1397 4.31188L15.1397 4.31188L15.5727 4.56188ZM17.9091 5.91078L17.4761 5.66078L17.4761 5.66078L17.9091 5.91078ZM16.6951 8.01351L17.1281 8.26351L17.1281 8.26351L16.6951 8.01351ZM18.33 10.5773L18.763 10.8273L18.763 10.8273L18.33 10.5773ZM16.3249 19.0143L15.8918 18.7643L15.8918 18.7643L16.3249 19.0143ZM9.69138 20.7917L9.94138 20.3587L9.94138 20.3587L9.69138 20.7917ZM8.99226 20.3881L8.74226 20.8211L8.74226 20.8211L8.99226 20.3881ZM6.41653 17.1668L6.89394 17.0182L6.89394 17.0182L6.41653 17.1668ZM4.5945 11.3135L5.0719 11.1649L5.0719 11.1649L4.5945 11.3135ZM7.00708 10.5603L7.48423 10.4109L7.48423 10.4109L7.00708 10.5603ZM7.63199 12.5561L7.15483 12.7055L7.15483 12.7055L7.63199 12.5561ZM7.82949 12.5779L8.26251 12.8279L7.82949 12.5779ZM18.6726 7.28614L18.9226 6.85313L18.6726 7.28614ZM13.9854 4.58L14.2354 4.14699L14.2354 4.14699L13.9854 4.58ZM14.5948 6.14606L15.0761 6.2817L15.0761 6.2817L14.5948 6.14606ZM20.1062 9.9829L19.8562 10.4159L20.1062 9.9829ZM19.0314 9.36241L18.5984 9.11241L18.5984 9.11241L19.0314 9.36241ZM5.36486 9.75188L5.53746 10.2211L5.53746 10.2211L5.36486 9.75188ZM17.4154 4.06815L17.1654 4.50116L17.4154 4.06815ZM20.4795 11.8183L20.0464 11.5683L20.4795 11.8183ZM20.4795 11.8183L20.0464 11.5683L20.4795 11.8183ZM12.1303 5.1288L12.5633 5.37881L12.1303 5.1288ZM12.1303 5.12881L12.5633 5.37881L12.1303 5.12881ZM13.8553 6.53648L11.4977 10.6201L12.3637 11.1201L14.7214 7.03648L13.8553 6.53648ZM14.7214 7.03648L14.7821 6.93123L13.9161 6.43123L13.8553 6.53649L14.7214 7.03648ZM14.7821 6.93123L16.0057 4.81188L15.1397 4.31188L13.9161 6.43123L14.7821 6.93123ZM17.4761 5.66078L16.2621 7.76351L17.1281 8.26351L18.3421 6.16078L17.4761 5.66078ZM16.2621 7.76351L13.834 11.969L14.7001 12.469L17.1281 8.26351L16.2621 7.76351ZM17.897 10.3273L16.1704 13.3179L17.0364 13.8179L18.763 10.8273L17.897 10.3273ZM20.0464 11.5683L15.8918 18.7643L16.7579 19.2643L20.9125 12.0683L20.0464 11.5683ZM9.94138 20.3587L9.24226 19.9551L8.74226 20.8211L9.44138 21.2248L9.94138 20.3587ZM6.89394 17.0182L5.0719 11.1649L4.11709 11.4621L5.93913 17.3154L6.89394 17.0182ZM6.52992 10.7097L7.15483 12.7055L8.10915 12.4067L7.48423 10.4109L6.52992 10.7097ZM16.6951 8.01351C17.1281 8.26351 17.128 8.26368 17.1279 8.26385C17.1279 8.26389 17.1278 8.26406 17.1277 8.26415C17.1276 8.26435 17.1275 8.26452 17.1274 8.26467C17.1272 8.26498 17.1271 8.26521 17.127 8.26535C17.1268 8.26565 17.1269 8.26563 17.127 8.2653C17.1274 8.26466 17.1285 8.26281 17.1304 8.25986C17.134 8.25394 17.1404 8.24368 17.1495 8.22988C17.1678 8.20214 17.1964 8.16086 17.2343 8.11221C17.3117 8.01283 17.4197 7.89326 17.5493 7.79422C17.6794 7.69487 17.8131 7.62981 17.9461 7.60956C18.0691 7.59082 18.2245 7.60479 18.4226 7.71915L18.9226 6.85313C18.5366 6.63027 18.1528 6.56654 17.7955 6.62096C17.4481 6.67386 17.1605 6.83279 16.9422 6.99959C16.7235 7.1667 16.5562 7.35543 16.4453 7.49782C16.389 7.57005 16.3453 7.63302 16.3147 7.6793C16.2994 7.70251 16.2873 7.72171 16.2785 7.736C16.2741 7.74315 16.2706 7.74909 16.2678 7.75371C16.2664 7.75602 16.2653 7.758 16.2643 7.75964C16.2638 7.76046 16.2634 7.76119 16.263 7.76183C16.2628 7.76216 16.2627 7.76246 16.2625 7.76274C16.2624 7.76288 16.2623 7.76307 16.2623 7.76314C16.2622 7.76333 16.2621 7.76351 16.6951 8.01351ZM12.5633 5.37881C12.5515 5.39925 12.6818 5.17299 12.9091 5.01615C13.0168 4.94189 13.1314 4.89356 13.253 4.88278C13.3692 4.87248 13.5275 4.89298 13.7354 5.01302L14.2354 4.14699C13.8665 3.93399 13.5045 3.85656 13.1647 3.88669C12.8303 3.91634 12.5533 4.04682 12.3413 4.193C11.9295 4.47705 11.7091 4.85822 11.6973 4.87879L12.5633 5.37881ZM13.7354 5.01302C14.0083 5.17053 14.1029 5.34687 14.1395 5.49583C14.181 5.6645 14.1589 5.84956 14.1136 6.01042L15.0761 6.2817C15.147 6.02989 15.2087 5.65617 15.1106 5.25711C15.0077 4.83834 14.7394 4.43798 14.2354 4.14699L13.7354 5.01302ZM18.33 10.5773C18.763 10.8273 18.7629 10.8275 18.7628 10.8277C18.7628 10.8277 18.7627 10.8279 18.7626 10.828C18.7625 10.8282 18.7624 10.8284 18.7623 10.8286C18.7621 10.829 18.7619 10.8293 18.7618 10.8295C18.7615 10.8299 18.7614 10.8301 18.7615 10.83C18.7616 10.8298 18.7623 10.8286 18.7636 10.8265C18.7663 10.8222 18.7713 10.8142 18.7786 10.8031C18.7934 10.7809 18.8169 10.7474 18.8483 10.7077C18.9128 10.6263 19.0025 10.5297 19.1099 10.4512C19.217 10.373 19.3265 10.3238 19.4362 10.3103C19.5381 10.2978 19.675 10.3113 19.8562 10.4159L20.3562 9.54989C19.9999 9.34423 19.6462 9.27697 19.3143 9.31774C18.9902 9.35754 18.7228 9.49568 18.5202 9.64364C18.3179 9.79133 18.1651 9.95971 18.0645 10.0867C18.0134 10.1512 17.9737 10.2077 17.9459 10.2495C17.9319 10.2705 17.9208 10.288 17.9127 10.3012C17.9086 10.3078 17.9053 10.3133 17.9027 10.3177C17.9013 10.3199 17.9002 10.3218 17.8993 10.3234C17.8988 10.3242 17.8984 10.3249 17.898 10.3256C17.8978 10.3259 17.8976 10.3262 17.8975 10.3265C17.8974 10.3267 17.8973 10.3269 17.8972 10.3269C17.8971 10.3271 17.897 10.3273 18.33 10.5773ZM19.8562 10.4159C20.0373 10.5205 20.1175 10.6323 20.1576 10.7268C20.2008 10.8285 20.2129 10.9479 20.1987 11.0798C20.169 11.356 20.0358 11.5868 20.0464 11.5683L20.9125 12.0683C20.9232 12.0497 21.1407 11.6729 21.193 11.1867C21.2198 10.9372 21.2057 10.6366 21.0781 10.336C20.9475 10.0283 20.7124 9.75554 20.3562 9.54989L19.8562 10.4159ZM18.4226 7.71915C18.6207 7.83352 18.7105 7.96114 18.7558 8.07704C18.8047 8.2023 18.8152 8.35068 18.7942 8.51297C18.7733 8.67475 18.7237 8.82809 18.6764 8.94478C18.6532 9.00192 18.6317 9.04731 18.6168 9.07703C18.6094 9.09182 18.6038 9.10251 18.6005 9.10862C18.5988 9.11167 18.5978 9.11355 18.5974 9.11421C18.5972 9.11454 18.5972 9.11456 18.5974 9.11426C18.5974 9.11411 18.5976 9.11388 18.5978 9.11357C18.5978 9.11342 18.5979 9.11325 18.5981 9.11305C18.5981 9.11296 18.5982 9.11279 18.5982 9.11275C18.5983 9.11258 18.5984 9.11241 19.0314 9.36241C19.4645 9.61241 19.4646 9.61223 19.4647 9.61204C19.4647 9.61197 19.4648 9.61178 19.4649 9.61164C19.4651 9.61136 19.4652 9.61106 19.4654 9.61073C19.4658 9.61008 19.4662 9.60935 19.4667 9.60852C19.4676 9.60687 19.4687 9.60487 19.4701 9.60252C19.4727 9.59784 19.476 9.59177 19.48 9.58438C19.488 9.56962 19.4986 9.54955 19.511 9.52469C19.5359 9.4751 19.5685 9.40571 19.6029 9.32089C19.6708 9.15367 19.7506 8.91439 19.7859 8.64142C19.8212 8.36894 19.8151 8.04041 19.6872 7.71314C19.5557 7.37652 19.3086 7.07599 18.9226 6.85313L18.4226 7.71915ZM18.5984 9.11241L17.897 10.3273L18.763 10.8273L19.4645 9.61241L18.5984 9.11241ZM5.0719 11.1649C4.95101 10.7765 5.15572 10.3616 5.53746 10.2211L5.19225 9.28262C4.31066 9.60689 3.8379 10.5652 4.11709 11.4621L5.0719 11.1649ZM7.15483 12.7055C7.3132 13.2113 7.99752 13.2869 8.26251 12.8279L7.39648 12.3279C7.56697 12.0326 8.00726 12.0813 8.10914 12.4067L7.15483 12.7055ZM17.1654 4.50116C17.5714 4.73558 17.7105 5.25476 17.4761 5.66078L18.3421 6.16078C18.8527 5.27647 18.5497 4.1457 17.6654 3.63514L17.1654 4.50116ZM5.53746 10.2211C5.94711 10.0705 6.3995 10.2932 6.52992 10.7097L7.48423 10.4109C7.18303 9.44895 6.1383 8.93465 5.19225 9.28262L5.53746 10.2211ZM16.0057 4.81188C16.2402 4.40586 16.7593 4.26675 17.1654 4.50116L17.6654 3.63514C16.781 3.12458 15.6503 3.42757 15.1397 4.31188L16.0057 4.81188ZM9.24226 19.9551C8.11815 19.3061 7.27973 18.2575 6.89394 17.0182L5.93913 17.3154C6.39964 18.7948 7.40044 20.0464 8.74226 20.8211L9.24226 19.9551ZM14.7214 7.03648C14.7406 7.00308 14.7622 6.96591 14.7828 6.93007L13.9154 6.4324C13.8956 6.46688 13.8765 6.49979 13.8553 6.53648L14.7214 7.03648ZM14.7828 6.93008C14.882 6.75711 15.0043 6.53638 15.0761 6.2817L14.1136 6.01042C14.0784 6.13539 14.0128 6.26268 13.9154 6.43239L14.7828 6.93008ZM15.8918 18.7643C14.689 20.8478 12.0248 21.5616 9.94138 20.3587L9.44138 21.2248C12.0031 22.7038 15.2788 21.8261 16.7579 19.2643L15.8918 18.7643ZM8.26251 12.8279L12.5633 5.37881L11.6972 4.87881L7.39648 12.3279L8.26251 12.8279ZM20.9125 12.0683L20.9125 12.0683L20.0464 11.5683L20.0464 11.5683L20.9125 12.0683ZM11.6973 4.87879L11.6972 4.87881L12.5633 5.37881L12.5633 5.37881L11.6973 4.87879Z" fill="black"/>
</svg>
