<svg width="24" height="24" viewBox="0 0 24 24" fill="none" xmlns="http://www.w3.org/2000/svg">
<path d="M6.5 6H10.5V5H6.5V6ZM6.5 13C4.567 13 3 11.433 3 9.5H2C2 11.9853 4.01472 14 6.5 14V13ZM10.5 6C12.433 6 14 7.567 14 9.5H15C15 7.01472 12.9853 5 10.5 5V6ZM6.5 5C4.01472 5 2 7.01472 2 9.5H3C3 7.567 4.567 6 6.5 6V5ZM17.5 17H13.5V18H17.5V17ZM13.5 17C11.567 17 10 15.433 10 13.5H9C9 15.9853 11.0147 18 13.5 18V17ZM21 13.5C21 15.433 19.433 17 17.5 17V18C19.9853 18 22 15.9853 22 13.5H21ZM17.5 10C19.433 10 21 11.567 21 13.5H22C22 11.0147 19.9853 9 17.5 9V10ZM12.3754 9.1418C10.4346 9.64132 9 11.4025 9 13.5H10C10 11.8698 11.1149 10.4988 12.6246 10.1102L12.3754 9.1418ZM16.5 10H17.5V9H16.5V10ZM7.5 13H6.5V14H7.5V13ZM14 9.5C14 11.1302 12.8851 12.5012 11.3754 12.8898L11.6246 13.8582C13.5654 13.3587 15 11.5975 15 9.5H14Z" fill="black"/>
</svg>
