<svg width="26" height="26" viewBox="0 0 26 26" fill="none" xmlns="http://www.w3.org/2000/svg">
<path d="M14.2883 8.78648L14.7214 9.03648L14.7214 9.03648L14.2883 8.78648ZM15.5727 6.56188L15.1397 6.31188L15.1397 6.31188L15.5727 6.56188ZM17.9091 7.91078L17.4761 7.66078L17.4761 7.66078L17.9091 7.91078ZM16.6951 10.0135L17.1281 10.2635L17.1281 10.2635L16.6951 10.0135ZM18.33 12.5773L18.763 12.8273L18.763 12.8273L18.33 12.5773ZM16.3249 21.0143L15.8918 20.7643L15.8918 20.7643L16.3249 21.0143ZM9.69138 22.7917L9.94138 22.3587L9.94138 22.3587L9.69138 22.7917ZM8.99226 22.3881L8.74226 22.8211L8.74226 22.8211L8.99226 22.3881ZM6.41653 19.1668L6.89394 19.0182L6.89394 19.0182L6.41653 19.1668ZM4.5945 13.3135L5.0719 13.1649L5.0719 13.1649L4.5945 13.3135ZM7.00708 12.5603L7.48423 12.4109L7.48423 12.4109L7.00708 12.5603ZM7.63199 14.5561L7.15483 14.7055L7.15483 14.7055L7.63199 14.5561ZM7.82949 14.5779L8.26251 14.8279L7.82949 14.5779ZM18.6726 9.28614L18.9226 8.85313L18.6726 9.28614ZM13.9854 6.58L14.2354 6.14699L14.2354 6.14699L13.9854 6.58ZM14.5948 8.14606L15.0761 8.2817L15.0761 8.2817L14.5948 8.14606ZM20.1062 11.9829L19.8562 12.4159L20.1062 11.9829ZM19.0314 11.3624L18.5984 11.1124L18.5984 11.1124L19.0314 11.3624ZM5.36486 11.7519L5.53746 12.2211L5.53746 12.2211L5.36486 11.7519ZM17.4154 6.06815L17.1654 6.50116L17.4154 6.06815ZM20.4795 13.8183L20.0464 13.5683L20.4795 13.8183ZM20.4795 13.8183L20.0464 13.5683L20.4795 13.8183ZM12.1303 7.1288L12.5633 7.37881L12.1303 7.1288ZM12.1303 7.12881L12.5633 7.37881L12.1303 7.12881ZM13.8553 8.53648L11.4977 12.6201L12.3637 13.1201L14.7214 9.03648L13.8553 8.53648ZM14.7214 9.03648L14.7821 8.93123L13.9161 8.43123L13.8553 8.53649L14.7214 9.03648ZM14.7821 8.93123L16.0057 6.81188L15.1397 6.31188L13.9161 8.43123L14.7821 8.93123ZM17.4761 7.66078L16.2621 9.76351L17.1281 10.2635L18.3421 8.16078L17.4761 7.66078ZM16.2621 9.76351L13.834 13.969L14.7001 14.469L17.1281 10.2635L16.2621 9.76351ZM17.897 12.3273L16.1704 15.3179L17.0364 15.8179L18.763 12.8273L17.897 12.3273ZM20.0464 13.5683L15.8918 20.7643L16.7579 21.2643L20.9125 14.0683L20.0464 13.5683ZM9.94138 22.3587L9.24226 21.9551L8.74226 22.8211L9.44138 23.2248L9.94138 22.3587ZM6.89394 19.0182L5.0719 13.1649L4.11709 13.4621L5.93913 19.3154L6.89394 19.0182ZM6.52992 12.7097L7.15483 14.7055L8.10915 14.4067L7.48423 12.4109L6.52992 12.7097ZM16.6951 10.0135C17.1281 10.2635 17.128 10.2637 17.1279 10.2638C17.1279 10.2639 17.1278 10.2641 17.1277 10.2642C17.1276 10.2643 17.1275 10.2645 17.1274 10.2647C17.1272 10.265 17.1271 10.2652 17.127 10.2654C17.1268 10.2656 17.1269 10.2656 17.127 10.2653C17.1274 10.2647 17.1285 10.2628 17.1304 10.2599C17.134 10.2539 17.1404 10.2437 17.1495 10.2299C17.1678 10.2021 17.1964 10.1609 17.2343 10.1122C17.3117 10.0128 17.4197 9.89326 17.5493 9.79422C17.6794 9.69487 17.8131 9.62981 17.9461 9.60956C18.0691 9.59082 18.2245 9.60479 18.4226 9.71915L18.9226 8.85313C18.5366 8.63027 18.1528 8.56654 17.7955 8.62096C17.4481 8.67386 17.1605 8.83279 16.9422 8.99959C16.7235 9.1667 16.5562 9.35543 16.4453 9.49782C16.389 9.57005 16.3453 9.63302 16.3147 9.6793C16.2994 9.70251 16.2873 9.72171 16.2785 9.736C16.2741 9.74315 16.2706 9.74909 16.2678 9.75371C16.2664 9.75602 16.2653 9.758 16.2643 9.75964C16.2638 9.76046 16.2634 9.76119 16.263 9.76183C16.2628 9.76216 16.2627 9.76246 16.2625 9.76274C16.2624 9.76288 16.2623 9.76307 16.2623 9.76314C16.2622 9.76333 16.2621 9.76351 16.6951 10.0135ZM12.5633 7.37881C12.5515 7.39925 12.6818 7.17299 12.9091 7.01615C13.0168 6.94189 13.1314 6.89356 13.253 6.88278C13.3692 6.87248 13.5275 6.89298 13.7354 7.01302L14.2354 6.14699C13.8665 5.93399 13.5045 5.85656 13.1647 5.88669C12.8303 5.91634 12.5533 6.04682 12.3413 6.193C11.9295 6.47705 11.7091 6.85822 11.6973 6.87879L12.5633 7.37881ZM13.7354 7.01302C14.0083 7.17053 14.1029 7.34687 14.1395 7.49583C14.181 7.6645 14.1589 7.84956 14.1136 8.01042L15.0761 8.2817C15.147 8.02989 15.2087 7.65617 15.1106 7.25711C15.0077 6.83834 14.7394 6.43798 14.2354 6.14699L13.7354 7.01302ZM18.33 12.5773C18.763 12.8273 18.7629 12.8275 18.7628 12.8277C18.7628 12.8277 18.7627 12.8279 18.7626 12.828C18.7625 12.8282 18.7624 12.8284 18.7623 12.8286C18.7621 12.829 18.7619 12.8293 18.7618 12.8295C18.7615 12.8299 18.7614 12.8301 18.7615 12.83C18.7616 12.8298 18.7623 12.8286 18.7636 12.8265C18.7663 12.8222 18.7713 12.8142 18.7786 12.8031C18.7934 12.7809 18.8169 12.7474 18.8483 12.7077C18.9128 12.6263 19.0025 12.5297 19.1099 12.4512C19.217 12.373 19.3265 12.3238 19.4362 12.3103C19.5381 12.2978 19.675 12.3113 19.8562 12.4159L20.3562 11.5499C19.9999 11.3442 19.6462 11.277 19.3143 11.3177C18.9902 11.3575 18.7228 11.4957 18.5202 11.6436C18.3179 11.7913 18.1651 11.9597 18.0645 12.0867C18.0134 12.1512 17.9737 12.2077 17.9459 12.2495C17.9319 12.2705 17.9208 12.288 17.9127 12.3012C17.9086 12.3078 17.9053 12.3133 17.9027 12.3177C17.9013 12.3199 17.9002 12.3218 17.8993 12.3234C17.8988 12.3242 17.8984 12.3249 17.898 12.3256C17.8978 12.3259 17.8976 12.3262 17.8975 12.3265C17.8974 12.3267 17.8973 12.3269 17.8972 12.3269C17.8971 12.3271 17.897 12.3273 18.33 12.5773ZM19.8562 12.4159C20.0373 12.5205 20.1175 12.6323 20.1576 12.7268C20.2008 12.8285 20.2129 12.9479 20.1987 13.0798C20.169 13.356 20.0358 13.5868 20.0464 13.5683L20.9125 14.0683C20.9232 14.0497 21.1407 13.6729 21.193 13.1867C21.2198 12.9372 21.2057 12.6366 21.0781 12.336C20.9475 12.0283 20.7124 11.7555 20.3562 11.5499L19.8562 12.4159ZM18.4226 9.71915C18.6207 9.83352 18.7105 9.96114 18.7558 10.077C18.8047 10.2023 18.8152 10.3507 18.7942 10.513C18.7733 10.6748 18.7237 10.8281 18.6764 10.9448C18.6532 11.0019 18.6317 11.0473 18.6168 11.077C18.6094 11.0918 18.6038 11.1025 18.6005 11.1086C18.5988 11.1117 18.5978 11.1136 18.5974 11.1142C18.5972 11.1145 18.5972 11.1146 18.5974 11.1143C18.5974 11.1141 18.5976 11.1139 18.5978 11.1136C18.5978 11.1134 18.5979 11.1132 18.5981 11.1131C18.5981 11.113 18.5982 11.1128 18.5982 11.1127C18.5983 11.1126 18.5984 11.1124 19.0314 11.3624C19.4645 11.6124 19.4646 11.6122 19.4647 11.612C19.4647 11.612 19.4648 11.6118 19.4649 11.6116C19.4651 11.6114 19.4652 11.6111 19.4654 11.6107C19.4658 11.6101 19.4662 11.6093 19.4667 11.6085C19.4676 11.6069 19.4687 11.6049 19.4701 11.6025C19.4727 11.5978 19.476 11.5918 19.48 11.5844C19.488 11.5696 19.4986 11.5495 19.511 11.5247C19.5359 11.4751 19.5685 11.4057 19.6029 11.3209C19.6708 11.1537 19.7506 10.9144 19.7859 10.6414C19.8212 10.3689 19.8151 10.0404 19.6872 9.71314C19.5557 9.37652 19.3086 9.07599 18.9226 8.85313L18.4226 9.71915ZM18.5984 11.1124L17.897 12.3273L18.763 12.8273L19.4645 11.6124L18.5984 11.1124ZM5.0719 13.1649C4.95101 12.7765 5.15572 12.3616 5.53746 12.2211L5.19225 11.2826C4.31066 11.6069 3.8379 12.5652 4.11709 13.4621L5.0719 13.1649ZM7.15483 14.7055C7.3132 15.2113 7.99752 15.2869 8.26251 14.8279L7.39648 14.3279C7.56697 14.0326 8.00726 14.0813 8.10914 14.4067L7.15483 14.7055ZM17.1654 6.50116C17.5714 6.73558 17.7105 7.25476 17.4761 7.66078L18.3421 8.16078C18.8527 7.27647 18.5497 6.1457 17.6654 5.63514L17.1654 6.50116ZM5.53746 12.2211C5.94711 12.0705 6.3995 12.2932 6.52992 12.7097L7.48423 12.4109C7.18303 11.4489 6.1383 10.9346 5.19225 11.2826L5.53746 12.2211ZM16.0057 6.81188C16.2402 6.40586 16.7593 6.26675 17.1654 6.50116L17.6654 5.63514C16.781 5.12458 15.6503 5.42757 15.1397 6.31188L16.0057 6.81188ZM9.24226 21.9551C8.11815 21.3061 7.27973 20.2575 6.89394 19.0182L5.93913 19.3154C6.39964 20.7948 7.40044 22.0464 8.74226 22.8211L9.24226 21.9551ZM14.7214 9.03648C14.7406 9.00308 14.7622 8.96591 14.7828 8.93007L13.9154 8.4324C13.8956 8.46688 13.8765 8.49979 13.8553 8.53648L14.7214 9.03648ZM14.7828 8.93008C14.882 8.75711 15.0043 8.53638 15.0761 8.2817L14.1136 8.01042C14.0784 8.13539 14.0128 8.26268 13.9154 8.43239L14.7828 8.93008ZM15.8918 20.7643C14.689 22.8478 12.0248 23.5616 9.94138 22.3587L9.44138 23.2248C12.0031 24.7038 15.2788 23.8261 16.7579 21.2643L15.8918 20.7643ZM8.26251 14.8279L12.5633 7.37881L11.6972 6.87881L7.39648 14.3279L8.26251 14.8279ZM20.9125 14.0683L20.9125 14.0683L20.0464 13.5683L20.0464 13.5683L20.9125 14.0683ZM11.6973 6.87879L11.6972 6.87881L12.5633 7.37881L12.5633 7.37881L11.6973 6.87879Z" fill="black"/>
<path d="M19.4121 0.99058L18.7279 4.33378L19.7076 4.53426L20.3918 1.19106L19.4121 0.99058ZM24.1576 2.48404L21.6044 4.74812L22.2678 5.49632L24.8211 3.23224L24.1576 2.48404ZM21.6569 7.89386L25.0001 8.57799L25.2006 7.59829L21.8574 6.91416L21.6569 7.89386Z" fill="white"/>
</svg>
