<svg width="24" height="24" viewBox="0 0 24 24" fill="none" xmlns="http://www.w3.org/2000/svg">
<path d="M20.4939 13.6332C20.4939 18.5092 16.6911 20.5 12 20.5C7.30892 20.5 3.50605 18.5092 3.50605 13.6332C3.50605 11.8183 3.37955 10.1313 4.28301 8.72841C6.81004 4.80444 10.5843 7.25706 12 7.25701C13.4157 7.25695 17.19 4.80444 19.717 8.72841C20.6204 10.1313 20.4939 11.8183 20.4939 13.6332Z" stroke="black"/>
<path d="M3.50635 13.5H20.5063" stroke="black"/>
<line x1="12.0063" y1="13" x2="12.0063" y2="10" stroke="black"/>
<line x1="7.50635" y1="13" x2="7.50635" y2="11" stroke="black"/>
<line x1="16.5063" y1="13" x2="16.5063" y2="11" stroke="black"/>
<path d="M14.5 4C14.5 5.65685 13.3807 7 12 7C10.6193 7 9.5 5.65685 9.5 4" stroke="black"/>
</svg>
