<svg width="24" height="24" viewBox="0 0 24 24" fill="none" xmlns="http://www.w3.org/2000/svg">
<path d="M20 5.5C20 6.88071 18.8807 8 17.5 8V9C19.433 9 21 7.433 21 5.5H20ZM17.5 8C16.1193 8 15 6.88071 15 5.5H14C14 7.433 15.567 9 17.5 9V8ZM15 5.5C15 4.11929 16.1193 3 17.5 3V2C15.567 2 14 3.567 14 5.5H15ZM17.5 3C18.8807 3 20 4.11929 20 5.5H21C21 3.567 19.433 2 17.5 2V3ZM8 12C8 13.3807 6.88071 14.5 5.5 14.5V15.5C7.433 15.5 9 13.933 9 12H8ZM5.5 14.5C4.11929 14.5 3 13.3807 3 12H2C2 13.933 3.567 15.5 5.5 15.5V14.5ZM3 12C3 10.6193 4.11929 9.5 5.5 9.5V8.5C3.567 8.5 2 10.067 2 12H3ZM5.5 9.5C6.88071 9.5 8 10.6193 8 12H9C9 10.067 7.433 8.5 5.5 8.5V9.5ZM20 18.5C20 19.8807 18.8807 21 17.5 21V22C19.433 22 21 20.433 21 18.5H20ZM17.5 21C16.1193 21 15 19.8807 15 18.5H14C14 20.433 15.567 22 17.5 22V21ZM15 18.5C15 17.1193 16.1193 16 17.5 16V15C15.567 15 14 16.567 14 18.5H15ZM17.5 16C18.8807 16 20 17.1193 20 18.5H21C21 16.567 19.433 15 17.5 15V16ZM14.6146 6.49426L7.88458 10.1397L8.36086 11.019L15.0909 7.37355L14.6146 6.49426ZM7.88458 13.8603L14.6146 17.5057L15.0909 16.6264L8.36086 12.981L7.88458 13.8603Z" fill="black"/>
</svg>
