<svg width="36" height="36" viewBox="0 0 36 36" fill="none" xmlns="http://www.w3.org/2000/svg">
<path fill-rule="evenodd" clip-rule="evenodd" d="M20.3535 5.64645C20.2598 5.55268 20.1326 5.5 20 5.5C19.8674 5.5 19.7402 5.55268 19.6464 5.64645L13.3964 11.8965L3.64645 21.6464C3.45119 21.8417 3.45119 22.1583 3.64645 22.3536L11.2929 30H5V31H19.4999H27V30H20.707L26.1035 24.6035L32.3535 18.3535C32.4473 18.2598 32.5 18.1326 32.5 18C32.5 17.8674 32.4473 17.7402 32.3535 17.6464L20.3535 5.64645ZM19.2928 30H12.7071L4.70711 22L13.75 12.9571L25.0428 24.25L19.2928 30Z" fill="black"/>
</svg>
