<svg width="38" height="39" viewBox="0 0 38 39" fill="none" xmlns="http://www.w3.org/2000/svg">
<path d="M16.6231 9.71874L10.8992 19.6329L9.81342 21.5134C9.73861 21.643 9.54541 21.6216 9.5007 21.4788L8.51124 18.3188C8.16953 17.2274 6.98429 16.644 5.91102 17.0387C4.91086 17.4066 4.37452 18.4938 4.69126 19.5113L7.5762 28.7791C8.24619 30.9315 9.70228 32.7526 11.6545 33.8797L12.7615 34.5188C16.439 36.642 21.1414 35.382 23.2646 31.7045L29.8428 20.3106C29.8428 20.3106 30.9535 18.387 29.2518 17.4045C27.5501 16.4221 26.4395 18.3457 26.4395 18.3457L27.5501 16.4221C27.5501 16.4221 28.8316 14.2025 26.9819 13.1346C25.1323 12.0667 23.8508 14.2863 23.8508 14.2863L25.773 10.9569C26.3628 9.93536 26.0128 8.62913 24.9913 8.03935C23.9697 7.44957 22.6635 7.79957 22.0737 8.8211L20.1591 12.1373C20.2729 11.9401 20.3862 11.7418 20.4624 11.5272C20.6758 10.9266 20.9259 9.63811 19.5605 8.84979C17.7337 7.7951 16.6231 9.71874 16.6231 9.71874Z" fill="black"/>
<path d="M20.0064 20.945L23.8508 14.2863M23.8508 14.2863L25.773 10.9569C26.3628 9.93536 26.0128 8.62913 24.9913 8.03935V8.03935C23.9697 7.44957 22.6635 7.79957 22.0737 8.8211L16.3071 18.8092L20.1441 12.1633C20.2629 11.9575 20.3828 11.7512 20.4624 11.5272C20.6758 10.9266 20.9259 9.63811 19.5605 8.84979C17.7337 7.7951 16.6231 9.71874 16.6231 9.71874C16.6231 9.71874 16.6231 9.71874 16.6231 9.71874L10.8992 19.6329L9.81342 21.5134C9.73861 21.643 9.54541 21.6216 9.5007 21.4788L8.51124 18.3188C8.16953 17.2274 6.98429 16.644 5.91102 17.0387V17.0387C4.91086 17.4066 4.37452 18.4938 4.69126 19.5113L7.5762 28.7791C8.24619 30.9315 9.70228 32.7526 11.6545 33.8797L12.7615 34.5188C16.439 36.642 21.1414 35.382 23.2646 31.7045V31.7045L29.8428 20.3106C29.8428 20.3106 29.8428 20.3106 29.8428 20.3106C29.8428 20.3106 30.9535 18.387 29.2518 17.4045C27.5501 16.4221 26.4395 18.3457 26.4395 18.3457M23.8508 14.2863C23.8508 14.2863 25.1323 12.0667 26.9819 13.1346C28.8316 14.2025 27.5501 16.4221 27.5501 16.4221C27.5501 16.4221 27.5501 16.4221 27.5501 16.4221L26.4395 18.3457M26.4395 18.3457L23.7057 23.0808" stroke="white"/>
<line x1="28.6427" y1="0.10024" x2="27.5595" y2="5.39371" stroke="black"/>
<line x1="35.9982" y1="2.73879" x2="31.9556" y2="6.32363" stroke="black"/>
<line x1="31.8068" y1="10.4404" x2="37.1003" y2="11.5237" stroke="black"/>
</svg>
