<svg width="36" height="36" viewBox="0 0 36 36" fill="none" xmlns="http://www.w3.org/2000/svg">
<path d="M22.0168 7.28148L23.7332 9.42685C23.8755 9.60477 24.091 9.70833 24.3188 9.70833H30.25C30.6642 9.70833 31 10.0441 31 10.4583V28.4583C31 28.8725 30.6642 29.2083 30.25 29.2083H5.75C5.33579 29.2083 5 28.8725 5 28.4583V10.4583C5 10.0441 5.33579 9.70833 5.75 9.70833H11.6812C11.909 9.70833 12.1245 9.60477 12.2668 9.42685L13.9832 7.28148C14.1255 7.10357 14.341 7 14.5688 7H21.4312C21.659 7 21.8745 7.10357 22.0168 7.28148Z" stroke="black"/>
<circle cx="18.0002" cy="18.9164" r="7.04167" stroke="black"/>
<circle cx="17.9999" cy="18.9167" r="3.79167" stroke="black"/>
</svg>
