<svg width="36" height="36" viewBox="0 0 36 36" fill="none" xmlns="http://www.w3.org/2000/svg">
<circle cx="18" cy="18" r="12.5" stroke="black"/>
<path d="M16.1221 21.9004L7.88867 11.5004L9.5 8.90043L12.222 6.44488L19.4442 5.72266L22.4777 6.81366V8.90043C22.4777 10.3304 21.5243 11.5004 20.3591 11.5004H18.2406V14.1004C18.2406 14.8154 17.764 15.4004 17.1814 15.4004H15.0629V18.0004H21.4184C22.001 18.0004 22.4777 18.5854 22.4777 19.3004V23.2004H23.5369C24.4903 23.2004 26.078 23.7782 26.6665 26.6671L23.4166 29.3751L19.4442 30.2782H17.8126L18.2406 25.8004C17.0754 25.8004 16.1221 24.6304 16.1221 23.2004V21.9004Z" fill="black"/>
</svg>
