<svg width="37" height="39" viewBox="0 0 37 39" fill="none" xmlns="http://www.w3.org/2000/svg">
<path d="M21.9733 8.82095L22.4063 9.07095L22.4063 9.07095L21.9733 8.82095ZM25.6726 10.9567L25.2396 10.7067L25.2396 10.7067L25.6726 10.9567ZM23.7504 14.2861L24.1834 14.5361L24.1834 14.5361L23.7504 14.2861ZM26.3391 18.3455L26.7721 18.5955L26.7721 18.5955L26.3391 18.3455ZM23.1642 31.7043L23.5972 31.9543L23.1642 31.7043ZM12.6611 34.5186L12.9111 34.0856L12.9111 34.0856L12.6611 34.5186ZM11.5541 33.8795L11.3041 34.3125L11.3041 34.3125L11.5541 33.8795ZM7.4758 28.779L6.99839 28.9276L6.99839 28.9276L7.4758 28.779ZM4.59086 19.5112L4.11346 19.6598L4.11346 19.6598L4.59086 19.5112ZM8.41084 18.3186L7.93369 18.468L7.93369 18.468L8.41084 18.3186ZM9.4003 21.4787L9.87746 21.3293L9.87746 21.3293L9.4003 21.4787ZM9.71302 21.5132L10.146 21.7632L10.146 21.7632L9.71302 21.5132ZM26.8815 13.1344L27.1315 12.7014L26.8815 13.1344ZM19.4601 8.84964L19.2101 9.28265L19.4601 8.84964ZM20.362 11.527L19.8909 11.3596L19.8909 11.3596L20.362 11.527ZM29.1514 17.4044L28.9014 17.8374L29.1514 17.4044ZM27.4497 16.4219L27.0167 16.1719L27.0167 16.1719L27.4497 16.4219ZM5.81062 17.0386L5.63802 16.5693L5.63802 16.5693L5.81062 17.0386ZM24.8909 8.0392L24.6409 8.47221L24.8909 8.0392ZM16.4618 9.824L16.0288 9.574L16.0288 9.574L16.4618 9.824ZM29.7424 20.3105L30.1755 20.5605L29.7424 20.3105ZM29.7425 20.3105L30.1755 20.5605L29.7425 20.3105ZM16.5227 9.71858L16.9557 9.9686L16.5227 9.71858ZM16.5227 9.71859L16.0897 9.46859L16.5227 9.71859ZM20.4917 12.3872L22.4063 9.07095L21.5403 8.57095L19.6257 11.8872L20.4917 12.3872ZM25.2396 10.7067L23.3174 14.0361L24.1834 14.5361L26.1056 11.2067L25.2396 10.7067ZM23.3174 14.0361L19.473 20.6948L20.339 21.1948L24.1834 14.5361L23.3174 14.0361ZM25.9061 18.0955L23.1723 22.8306L24.0383 23.3306L26.7721 18.5955L25.9061 18.0955ZM29.3094 20.0605L22.7312 31.4543L23.5972 31.9543L30.1755 20.5605L29.3094 20.0605ZM12.9111 34.0856L11.8041 33.4465L11.3041 34.3125L12.4111 34.9516L12.9111 34.0856ZM7.9532 28.6304L5.06827 19.3626L4.11346 19.6598L6.99839 28.9276L7.9532 28.6304ZM7.93369 18.468L8.92314 21.6281L9.87746 21.3293L8.888 18.1692L7.93369 18.468ZM23.7504 14.2861C24.1834 14.5361 24.1833 14.5363 24.1832 14.5364C24.1832 14.5365 24.1831 14.5366 24.1831 14.5367C24.183 14.5369 24.1829 14.537 24.1828 14.5371C24.1827 14.5373 24.1827 14.5374 24.1827 14.5374C24.1828 14.5373 24.1831 14.5367 24.1838 14.5356C24.1851 14.5334 24.1875 14.5293 24.1912 14.5234C24.1984 14.5116 24.2103 14.4927 24.2265 14.4681C24.259 14.4188 24.3087 14.3471 24.374 14.2632C24.5063 14.0933 24.6947 13.8838 24.9259 13.7071C25.1575 13.5301 25.4142 13.3997 25.6873 13.3582C25.9504 13.3181 26.2631 13.3547 26.6315 13.5674L27.1315 12.7014C26.5752 12.3802 26.0341 12.2938 25.5367 12.3696C25.0492 12.4438 24.6387 12.6681 24.3188 12.9125C23.9985 13.1572 23.7508 13.4359 23.585 13.6488C23.5013 13.7563 23.4365 13.8497 23.3917 13.9175C23.3693 13.9515 23.3518 13.9793 23.3393 13.9995C23.3331 14.0096 23.3282 14.0178 23.3245 14.024C23.3227 14.0271 23.3212 14.0296 23.32 14.0316C23.3194 14.0327 23.3189 14.0335 23.3185 14.0343C23.3182 14.0347 23.318 14.035 23.3179 14.0353C23.3178 14.0355 23.3177 14.0357 23.3176 14.0357C23.3175 14.0359 23.3174 14.0361 23.7504 14.2861ZM16.9557 9.9686C16.9439 9.98898 17.1765 9.58554 17.5903 9.30012C17.7912 9.16156 18.0201 9.06108 18.2747 9.0385C18.5238 9.01641 18.8339 9.06548 19.2101 9.28265L19.7101 8.41663C19.1729 8.10649 18.6591 8.00049 18.1863 8.04241C17.7189 8.08386 17.3276 8.26648 17.0225 8.47696C16.4243 8.8896 16.1016 9.44794 16.0897 9.46857L16.9557 9.9686ZM19.2101 9.28265C19.7604 9.60038 19.952 9.98893 20.0097 10.3398C20.0718 10.7176 19.984 11.0977 19.8909 11.3596L20.8332 11.6945C20.9535 11.3558 21.0974 10.7914 20.9965 10.1776C20.8912 9.53708 20.5252 8.88722 19.7101 8.41663L19.2101 9.28265ZM26.3391 18.3455C26.7721 18.5955 26.772 18.5957 26.7719 18.5959C26.7719 18.5959 26.7718 18.5961 26.7717 18.5962C26.7716 18.5964 26.7715 18.5966 26.7714 18.5967C26.7713 18.597 26.7712 18.5971 26.7712 18.5972C26.7711 18.5973 26.7713 18.597 26.7717 18.5962C26.7726 18.5947 26.7745 18.5915 26.7774 18.5868C26.7832 18.5774 26.793 18.562 26.8065 18.5416C26.8337 18.5007 26.8756 18.4409 26.9311 18.3708C27.0438 18.2286 27.2042 18.0548 27.402 17.9103C27.5994 17.7661 27.8188 17.6622 28.055 17.6332C28.2835 17.6052 28.5635 17.6423 28.9014 17.8374L29.4014 16.9714C28.8884 16.6752 28.3915 16.5844 27.9331 16.6407C27.4825 16.696 27.1052 16.8888 26.8122 17.1027C26.5197 17.3164 26.2961 17.5621 26.1473 17.7498C26.0721 17.8447 26.014 17.9275 25.9738 17.988C25.9536 18.0183 25.9378 18.0432 25.9265 18.0615C25.9209 18.0707 25.9163 18.0782 25.9129 18.0839C25.9112 18.0868 25.9098 18.0892 25.9087 18.0911C25.9081 18.0921 25.9076 18.0929 25.9072 18.0937C25.9069 18.094 25.9067 18.0944 25.9066 18.0947C25.9065 18.0949 25.9064 18.0951 25.9063 18.0951C25.9062 18.0953 25.9061 18.0955 26.3391 18.3455ZM28.9014 17.8374C29.2393 18.0325 29.4115 18.2564 29.5014 18.4683C29.5944 18.6874 29.6141 18.9293 29.5879 19.1724C29.5343 19.6711 29.2988 20.079 29.3094 20.0605L30.1755 20.5605C30.1862 20.5419 30.5059 19.988 30.5822 19.2793C30.621 18.9187 30.5993 18.4955 30.4219 18.0776C30.2414 17.6524 29.9143 17.2675 29.4014 16.9714L28.9014 17.8374ZM26.6315 13.5674C27 13.7802 27.1881 14.0327 27.2849 14.2806C27.3854 14.5378 27.4008 14.8253 27.3634 15.1144C27.326 15.403 27.2387 15.6708 27.1577 15.8704C27.1177 15.9689 27.0805 16.0478 27.0541 16.1006C27.0409 16.127 27.0305 16.1466 27.0239 16.1588C27.0206 16.1649 27.0182 16.1691 27.017 16.1713C27.0164 16.1724 27.016 16.1731 27.016 16.1732C27.0159 16.1732 27.016 16.1731 27.0161 16.1729C27.0162 16.1728 27.0162 16.1727 27.0163 16.1725C27.0164 16.1724 27.0165 16.1723 27.0165 16.1722C27.0166 16.1721 27.0167 16.1719 27.4497 16.4219C27.8827 16.6719 27.8828 16.6717 27.8829 16.6715C27.883 16.6714 27.8831 16.6712 27.8832 16.6711C27.8834 16.6708 27.8836 16.6704 27.8838 16.6701C27.8842 16.6693 27.8847 16.6684 27.8853 16.6674C27.8864 16.6654 27.8879 16.6628 27.8897 16.6597C27.8932 16.6534 27.8978 16.645 27.9034 16.6346C27.9147 16.6137 27.93 16.5847 27.9483 16.5483C27.9847 16.4756 28.0331 16.3727 28.0843 16.2465C28.1858 15.9964 28.3033 15.6426 28.3551 15.2428C28.4068 14.8436 28.3958 14.3759 28.2163 13.9167C28.0333 13.448 27.6879 13.0226 27.1315 12.7014L26.6315 13.5674ZM27.0167 16.1719L25.9061 18.0955L26.7721 18.5955L27.8827 16.6719L27.0167 16.1719ZM5.06827 19.3626C4.83068 18.5993 5.23299 17.7838 5.98323 17.5078L5.63802 16.5693C4.38793 17.0291 3.71757 18.388 4.11346 19.6598L5.06827 19.3626ZM8.92314 21.6281C9.09797 22.1864 9.85348 22.27 10.146 21.7632L9.28001 21.2632C9.42294 21.0157 9.79205 21.0565 9.87746 21.3293L8.92314 21.6281ZM24.6409 8.47221C25.4233 8.92392 25.6913 9.92435 25.2396 10.7067L26.1056 11.2067C26.8335 9.94606 26.4015 8.33404 25.1409 7.60618L24.6409 8.47221ZM5.98323 17.5078C6.7883 17.2117 7.67737 17.6494 7.93369 18.468L8.888 18.1692C8.46091 16.8052 6.97949 16.0759 5.63802 16.5693L5.98323 17.5078ZM22.4063 9.07095C22.858 8.28856 23.8585 8.0205 24.6409 8.47221L25.1409 7.60618C23.8802 6.87833 22.2682 7.31027 21.5403 8.57095L22.4063 9.07095ZM11.8041 33.4465C9.96074 32.3822 8.58584 30.6627 7.9532 28.6304L6.99839 28.9276C7.70575 31.2 9.24303 33.1226 11.3041 34.3125L11.8041 33.4465ZM20.4917 12.3872C20.6029 12.1946 20.7393 11.9585 20.8332 11.6945L19.8909 11.3596C19.8322 11.5247 19.7423 11.6852 19.6257 11.8872L20.4917 12.3872ZM22.7312 31.4543C20.7461 34.8927 16.3494 36.0707 12.9111 34.0856L12.4111 34.9516C16.3277 37.2129 21.3359 35.871 23.5972 31.9543L22.7312 31.4543ZM28.0575 0.977782L26.9742 5.27126L27.9438 5.51589L29.0271 1.22241L28.0575 0.977782ZM34.5743 3.35762L31.5316 5.94246L32.1791 6.70457L35.2218 4.11973L34.5743 3.35762ZM31.5841 10.9251L35.8776 12.0084L36.1222 11.0388L31.8288 9.95552L31.5841 10.9251ZM19.6257 11.8872L15.7737 18.5591L16.6397 19.0591L20.4917 12.3872L19.6257 11.8872ZM10.146 21.7632L16.8948 10.074L16.0288 9.574L9.28001 21.2632L10.146 21.7632ZM16.8948 10.074L16.9557 9.96859L16.0897 9.46859L16.0288 9.574L16.8948 10.074ZM30.1755 20.5605C30.1755 20.5605 30.1755 20.5605 30.1755 20.5605C30.1755 20.5605 30.1755 20.5605 30.1755 20.5605C30.1755 20.5605 30.1755 20.5605 30.1755 20.5605C30.1755 20.5605 30.1755 20.5605 30.1755 20.5605C30.1755 20.5605 30.1754 20.5605 30.1754 20.5605C30.1754 20.5605 30.1754 20.5605 30.1754 20.5605C30.1754 20.5605 30.1754 20.5605 30.1754 20.5605C30.1754 20.5606 30.1754 20.5606 30.1754 20.5606C30.1754 20.5606 30.1753 20.5607 30.1753 20.5607C30.1752 20.5609 30.1751 20.561 30.1752 20.561C30.1749 20.5614 29.4943 20.7446 29.3067 20.0653C29.308 20.063 29.3091 20.061 29.3089 20.0613C29.3093 20.0606 29.3093 20.0607 29.3093 20.0608C29.3093 20.0607 29.3093 20.0606 29.3093 20.0607C29.3093 20.0606 29.3094 20.0606 29.3094 20.0606C29.3094 20.0606 29.3094 20.0605 29.3094 20.0605C29.3094 20.0605 29.3094 20.0606 29.3094 20.0606C29.3094 20.0605 29.3094 20.0605 29.3094 20.0605C29.3094 20.0605 29.3094 20.0605 29.3094 20.0605C29.3094 20.0605 29.3094 20.0605 29.3094 20.0605C29.3094 20.0605 29.3094 20.0605 29.3094 20.0606C29.3093 20.0606 29.3093 20.0607 29.3093 20.0607C29.3094 20.0606 29.3093 20.0606 29.3093 20.0608C29.3092 20.0609 29.3088 20.0616 29.3083 20.0624C29.4959 20.7455 30.1748 20.5616 30.1752 20.561C30.1754 20.5605 30.1754 20.5606 30.1754 20.5606C30.1754 20.5606 30.1754 20.5606 30.1754 20.5605C30.1755 20.5605 30.1754 20.5606 30.1754 20.5606C30.1754 20.5605 30.1754 20.5605 30.1754 20.5605C30.1754 20.5605 30.1754 20.5605 30.1755 20.5605C30.1754 20.5605 30.1755 20.5605 30.1755 20.5605C30.1755 20.5605 30.1755 20.5605 30.1755 20.5605C30.1755 20.5605 30.1755 20.5605 30.1755 20.5605C30.1755 20.5605 30.1755 20.5605 30.1755 20.5605C30.1755 20.5605 30.1755 20.5605 30.1755 20.5605C30.1755 20.5605 30.1755 20.5605 30.1755 20.5605C30.1755 20.5605 30.1755 20.5605 30.1755 20.5605C30.1755 20.5605 30.1755 20.5605 30.1755 20.5605L29.3094 20.0605C29.3094 20.0605 29.3094 20.0605 29.3094 20.0605C29.3094 20.0605 29.3094 20.0605 29.3094 20.0605C29.3094 20.0605 29.3094 20.0605 29.3094 20.0605C29.3094 20.0605 29.3094 20.0605 29.3094 20.0605C29.3094 20.0605 29.3094 20.0605 29.3094 20.0605C29.3094 20.0605 29.3094 20.0605 29.3094 20.0605C29.3094 20.0605 29.3094 20.0605 29.3094 20.0605C29.3094 20.0605 29.3094 20.0605 29.3094 20.0605C29.3094 20.0605 29.3094 20.0605 29.3094 20.0605C29.3094 20.0605 29.3094 20.0605 29.3094 20.0605C29.3094 20.0605 29.3094 20.0605 29.3094 20.0605C29.3094 20.0605 29.3094 20.0605 29.3094 20.0605C29.3094 20.0605 29.3094 20.0604 29.3094 20.0605C29.3094 20.0604 29.3095 20.0604 29.3095 20.0604C29.3095 20.0604 29.3095 20.0604 29.3095 20.0604C29.3095 20.0604 29.3095 20.0604 29.3095 20.0604C29.3095 20.0604 29.3094 20.0604 29.3094 20.0605C29.3095 20.0603 29.3095 20.0603 29.3096 20.0602C29.3095 20.0603 29.3095 20.0604 29.3094 20.0606C29.3101 20.0594 29.989 19.8755 30.1804 20.5518C30.1761 20.5593 30.1757 20.56 30.1758 20.5599C30.1756 20.5603 30.1755 20.5604 30.1755 20.5603C30.1756 20.5603 30.1756 20.5603 30.1755 20.5604C30.1755 20.5604 30.1755 20.5604 30.1755 20.5604C30.1755 20.5604 30.1755 20.5604 30.1755 20.5604C30.1755 20.5604 30.1755 20.5604 30.1755 20.5604C30.1755 20.5604 30.1755 20.5604 30.1755 20.5604C30.1755 20.5604 30.1755 20.5604 30.1755 20.5604C30.1755 20.5604 30.1755 20.5603 30.1755 20.5604C30.1755 20.5604 30.1756 20.5603 30.1756 20.5602C30.1756 20.5603 30.1756 20.5602 30.1756 20.5601C30.1756 20.5603 30.1756 20.5603 30.1756 20.5602C30.1758 20.5599 30.1769 20.5579 30.1782 20.5556C29.9906 19.8764 29.31 20.0595 29.31 20.0596C29.3098 20.0599 29.3097 20.0601 29.3095 20.0603C29.3096 20.0603 29.3095 20.0603 29.3095 20.0603C29.3095 20.0603 29.3095 20.0604 29.3095 20.0604C29.3095 20.0604 29.3095 20.0604 29.3095 20.0604C29.3095 20.0604 29.3095 20.0604 29.3095 20.0604C29.3095 20.0604 29.3094 20.0604 29.3094 20.0604C29.3094 20.0605 29.3094 20.0605 29.3094 20.0605C29.3094 20.0605 29.3094 20.0605 29.3094 20.0605C29.3094 20.0605 29.3094 20.0605 29.3094 20.0605C29.3094 20.0605 29.3094 20.0605 29.3094 20.0605L30.1755 20.5605ZM16.0897 9.46857L16.0897 9.46859L16.9557 9.96859L16.9557 9.9686L16.0897 9.46857Z" fill="black"/>
</svg>
