<svg width="36" height="36" viewBox="0 0 36 36" fill="none" xmlns="http://www.w3.org/2000/svg">
<path d="M21.9733 5.82118L22.4063 6.07118L22.4063 6.07118L21.9733 5.82118ZM25.6726 7.95697L25.2396 7.70697L25.2396 7.70697L25.6726 7.95697ZM23.7504 11.2863L24.1834 11.5363L24.1834 11.5363L23.7504 11.2863ZM26.3391 15.3458L26.7721 15.5958L26.7721 15.5958L26.3391 15.3458ZM23.1642 28.7045L23.5972 28.9545L23.1642 28.7045ZM12.6611 31.5188L12.9111 31.0858L12.9111 31.0858L12.6611 31.5188ZM11.5541 30.8797L11.3041 31.3128L11.3041 31.3128L11.5541 30.8797ZM7.4758 25.7792L6.99839 25.9278L6.99839 25.9278L7.4758 25.7792ZM4.59086 16.5114L4.11346 16.66L4.11346 16.66L4.59086 16.5114ZM8.41084 15.3188L7.93369 15.4682L7.93369 15.4682L8.41084 15.3188ZM9.4003 18.4789L9.87746 18.3295L9.87746 18.3295L9.4003 18.4789ZM9.71302 18.5135L10.146 18.7635L10.146 18.7635L9.71302 18.5135ZM26.8815 10.1347L27.1315 9.70164L26.8815 10.1347ZM19.4601 5.84987L19.2101 6.28289L19.4601 5.84987ZM20.362 8.52728L19.8909 8.35986L19.8909 8.35987L20.362 8.52728ZM29.1514 14.4046L28.9014 14.8376L29.1514 14.4046ZM27.4497 13.4221L27.0167 13.1721L27.0167 13.1721L27.4497 13.4221ZM5.81062 14.0388L5.63802 13.5695L5.63802 13.5695L5.81062 14.0388ZM24.8909 5.03943L24.6409 5.47244L24.8909 5.03943ZM16.4618 6.82423L16.0288 6.57423L16.0288 6.57423L16.4618 6.82423ZM29.7424 17.3107L30.1755 17.5607L29.7424 17.3107ZM29.7425 17.3107L30.1755 17.5607L29.7425 17.3107ZM16.5227 6.71881L16.0897 6.46881L16.5227 6.71881ZM16.5227 6.71882L16.9557 6.96882L16.5227 6.71882ZM20.4917 9.38742L22.4063 6.07118L21.5403 5.57118L19.6257 8.88742L20.4917 9.38742ZM25.2396 7.70697L23.3174 11.0363L24.1834 11.5363L26.1056 8.20697L25.2396 7.70697ZM23.3174 11.0363L19.473 17.6951L20.339 18.1951L24.1834 11.5363L23.3174 11.0363ZM25.9061 15.0958L23.1723 19.8309L24.0383 20.3309L26.7721 15.5958L25.9061 15.0958ZM29.3094 17.0607L22.7312 28.4545L23.5972 28.9545L30.1755 17.5607L29.3094 17.0607ZM12.9111 31.0858L11.8041 30.4467L11.3041 31.3128L12.4111 31.9519L12.9111 31.0858ZM7.9532 25.6306L5.06827 16.3628L4.11346 16.66L6.99839 25.9278L7.9532 25.6306ZM7.93369 15.4682L8.92314 18.6283L9.87746 18.3295L8.888 15.1694L7.93369 15.4682ZM23.7504 11.2863C24.1834 11.5363 24.1833 11.5365 24.1832 11.5367C24.1832 11.5367 24.1831 11.5369 24.1831 11.5369C24.183 11.5371 24.1829 11.5373 24.1828 11.5374C24.1827 11.5376 24.1827 11.5376 24.1827 11.5376C24.1828 11.5375 24.1831 11.5369 24.1838 11.5358C24.1851 11.5336 24.1875 11.5295 24.1912 11.5236C24.1984 11.5118 24.2103 11.4929 24.2265 11.4683C24.259 11.419 24.3087 11.3473 24.374 11.2634C24.5063 11.0935 24.6947 10.884 24.9259 10.7074C25.1575 10.5304 25.4142 10.4 25.6873 10.3584C25.9504 10.3183 26.2631 10.3549 26.6315 10.5677L27.1315 9.70164C26.5752 9.38043 26.0341 9.29404 25.5367 9.36979C25.0492 9.44403 24.6387 9.66829 24.3188 9.91273C23.9985 10.1575 23.7508 10.4361 23.585 10.649C23.5013 10.7565 23.4365 10.8499 23.3917 10.9178C23.3693 10.9518 23.3518 10.9796 23.3393 10.9997C23.3331 11.0098 23.3282 11.0181 23.3245 11.0242C23.3227 11.0273 23.3212 11.0298 23.32 11.0319C23.3194 11.0329 23.3189 11.0338 23.3185 11.0345C23.3182 11.0349 23.318 11.0352 23.3179 11.0355C23.3178 11.0357 23.3177 11.0359 23.3176 11.036C23.3175 11.0362 23.3174 11.0363 23.7504 11.2863ZM16.9557 6.96882C16.9439 6.98927 17.1765 6.58582 17.5903 6.30038C17.7912 6.16181 18.02 6.06132 18.2746 6.03874C18.5238 6.01664 18.8339 6.0657 19.2101 6.28289L19.7101 5.41686C19.1729 5.10671 18.6591 5.00072 18.1863 5.04265C17.7189 5.0841 17.3276 5.26675 17.0225 5.47723C16.4242 5.8899 16.1015 6.44825 16.0897 6.46881L16.9557 6.96882ZM19.2101 6.28289C19.7604 6.60062 19.952 6.98917 20.0097 7.34008C20.0718 7.71785 19.984 8.09791 19.8909 8.35986L20.8332 8.69469C20.9535 8.35607 21.0974 7.79159 20.9965 7.17788C20.8912 6.53731 20.5252 5.88745 19.7101 5.41686L19.2101 6.28289ZM26.3391 15.3458C26.7721 15.5958 26.772 15.5959 26.7719 15.5961C26.7719 15.5962 26.7718 15.5963 26.7717 15.5964C26.7716 15.5966 26.7715 15.5968 26.7714 15.5969C26.7713 15.5972 26.7712 15.5974 26.7712 15.5974C26.7711 15.5975 26.7713 15.5972 26.7717 15.5964C26.7726 15.5949 26.7745 15.5918 26.7774 15.5871C26.7832 15.5777 26.793 15.5622 26.8065 15.5418C26.8337 15.501 26.8756 15.4411 26.9311 15.371C27.0438 15.2288 27.2042 15.055 27.402 14.9105C27.5994 14.7664 27.8188 14.6625 28.055 14.6334C28.2835 14.6054 28.5635 14.6425 28.9014 14.8376L29.4014 13.9716C28.8884 13.6754 28.3915 13.5846 27.9331 13.6409C27.4825 13.6963 27.1052 13.889 26.8122 14.103C26.5197 14.3166 26.2961 14.5623 26.1473 14.7501C26.0721 14.845 26.014 14.9277 25.9738 14.9882C25.9536 15.0185 25.9378 15.0435 25.9265 15.0618C25.9209 15.0709 25.9163 15.0784 25.9129 15.0841C25.9112 15.087 25.9098 15.0894 25.9087 15.0913C25.9081 15.0923 25.9076 15.0932 25.9072 15.0939C25.9069 15.0943 25.9067 15.0946 25.9066 15.0949C25.9065 15.0951 25.9064 15.0953 25.9063 15.0954C25.9062 15.0956 25.9061 15.0958 26.3391 15.3458ZM28.9014 14.8376C29.2393 15.0327 29.4115 15.2566 29.5014 15.4685C29.5944 15.6876 29.6141 15.9295 29.5879 16.1726C29.5343 16.6713 29.2988 17.0792 29.3094 17.0607L30.1755 17.5607C30.1862 17.5422 30.5059 16.9882 30.5822 16.2795C30.621 15.9189 30.5993 15.4957 30.4219 15.0778C30.2414 14.6527 29.9143 14.2677 29.4014 13.9716L28.9014 14.8376ZM26.6315 10.5677C27 10.7804 27.1881 11.0329 27.2849 11.2808C27.3854 11.538 27.4008 11.8255 27.3634 12.1146C27.326 12.4032 27.2387 12.6711 27.1577 12.8706C27.1177 12.9691 27.0805 13.048 27.0541 13.1008C27.0409 13.1272 27.0305 13.1469 27.0239 13.1591C27.0206 13.1652 27.0182 13.1694 27.017 13.1716C27.0164 13.1727 27.016 13.1733 27.016 13.1734C27.0159 13.1734 27.016 13.1734 27.0161 13.1731C27.0162 13.173 27.0162 13.1729 27.0163 13.1727C27.0164 13.1727 27.0165 13.1725 27.0165 13.1725C27.0166 13.1723 27.0167 13.1721 27.4497 13.4221C27.8827 13.6721 27.8828 13.6719 27.8829 13.6718C27.883 13.6717 27.8831 13.6715 27.8832 13.6713C27.8834 13.671 27.8836 13.6707 27.8838 13.6703C27.8842 13.6696 27.8847 13.6687 27.8853 13.6677C27.8864 13.6656 27.8879 13.663 27.8897 13.6599C27.8932 13.6536 27.8978 13.6453 27.9034 13.6348C27.9147 13.614 27.93 13.5849 27.9483 13.5485C27.9847 13.4758 28.0331 13.3729 28.0843 13.2467C28.1858 12.9967 28.3033 12.6429 28.3551 12.2431C28.4068 11.8438 28.3958 11.3762 28.2163 10.9169C28.0333 10.4483 27.6879 10.0229 27.1315 9.70164L26.6315 10.5677ZM27.0167 13.1721L25.9061 15.0958L26.7721 15.5958L27.8827 13.6721L27.0167 13.1721ZM5.06827 16.3628C4.83068 15.5996 5.23299 14.784 5.98323 14.5081L5.63802 13.5695C4.38793 14.0294 3.71757 15.3882 4.11346 16.66L5.06827 16.3628ZM8.92314 18.6283C9.09797 19.1867 9.85348 19.2702 10.146 18.7635L9.28001 18.2635C9.42294 18.0159 9.79205 18.0567 9.87746 18.3295L8.92314 18.6283ZM24.6409 5.47244C25.4233 5.92415 25.6913 6.92459 25.2396 7.70697L26.1056 8.20697C26.8335 6.94629 26.4015 5.33427 25.1409 4.60642L24.6409 5.47244ZM5.98323 14.5081C6.7883 14.212 7.67737 14.6496 7.93369 15.4682L8.888 15.1694C8.46091 13.8054 6.97949 13.0761 5.63802 13.5695L5.98323 14.5081ZM22.4063 6.07118C22.858 5.28879 23.8585 5.02073 24.6409 5.47244L25.1409 4.60642C23.8802 3.87856 22.2682 4.3105 21.5403 5.57118L22.4063 6.07118ZM11.8041 30.4467C9.96074 29.3825 8.58584 27.663 7.9532 25.6306L6.99839 25.9278C7.70575 28.2002 9.24303 30.1228 11.3041 31.3128L11.8041 30.4467ZM20.4917 9.38738C20.6029 9.19486 20.7393 8.95869 20.8332 8.69469L19.8909 8.35987C19.8322 8.52498 19.7423 8.68547 19.6257 8.88746L20.4917 9.38738ZM22.7312 28.4545C20.7461 31.8929 16.3494 33.071 12.9111 31.0858L12.4111 31.9519C16.3277 34.2131 21.3359 32.8712 23.5972 28.9545L22.7312 28.4545ZM19.6257 8.88742L15.7737 15.5593L16.6397 16.0593L20.4917 9.38742L19.6257 8.88742ZM10.146 18.7635L16.8948 7.07423L16.0288 6.57423L9.28001 18.2635L10.146 18.7635ZM16.8948 7.07423L16.9557 6.96882L16.0897 6.46882L16.0288 6.57423L16.8948 7.07423ZM30.1755 17.5607C30.1755 17.5607 30.1755 17.5607 30.1755 17.5607C30.1755 17.5607 30.1755 17.5607 30.1755 17.5607C30.1755 17.5607 30.1755 17.5607 30.1755 17.5607C30.1755 17.5607 30.1755 17.5607 30.1755 17.5607C30.1755 17.5607 30.1754 17.5607 30.1754 17.5607C30.1754 17.5607 30.1754 17.5607 30.1754 17.5608C30.1754 17.5608 30.1754 17.5608 30.1754 17.5608C30.1754 17.5607 30.1754 17.5608 30.1754 17.5608C30.1754 17.5608 30.1754 17.5608 30.1754 17.5608C30.1754 17.5608 30.1753 17.5609 30.1753 17.5609C30.1754 17.5608 30.1753 17.561 30.1753 17.5611C30.1752 17.5611 30.1751 17.5613 30.1751 17.5614C30.175 17.5615 29.4953 17.7453 29.3056 17.0675C29.3074 17.0642 29.3091 17.0612 29.309 17.0614C29.3093 17.0608 29.3093 17.0609 29.3093 17.0609C29.3093 17.0609 29.3093 17.0609 29.3093 17.0609C29.3093 17.0609 29.3094 17.0608 29.3094 17.0608C29.3094 17.0608 29.3094 17.0608 29.3094 17.0608C29.3094 17.0608 29.3094 17.0608 29.3094 17.0608C29.3094 17.0608 29.3094 17.0607 29.3094 17.0607C29.3094 17.0607 29.3094 17.0607 29.3094 17.0607C29.3094 17.0607 29.3094 17.0607 29.3094 17.0608C29.3094 17.0608 29.3094 17.0608 29.3094 17.0608C29.3094 17.0608 29.3094 17.0608 29.3094 17.0608C29.3093 17.0609 29.3093 17.0609 29.3093 17.0609C29.3094 17.0608 29.3094 17.0608 29.3094 17.0608C29.3091 17.0612 29.3093 17.0609 29.3094 17.0607C29.4948 17.745 30.1747 17.562 30.1752 17.5612C30.1755 17.5607 30.1754 17.5609 30.1753 17.561C30.1754 17.5609 30.1754 17.5608 30.1754 17.5607C30.1754 17.5608 30.1754 17.5607 30.1754 17.5608C30.1754 17.5608 30.1754 17.5607 30.1755 17.5607C30.1754 17.5607 30.1755 17.5607 30.1755 17.5607C30.1755 17.5607 30.1755 17.5607 30.1755 17.5607C30.1755 17.5607 30.1755 17.5607 30.1755 17.5607C30.1755 17.5607 30.1755 17.5607 30.1755 17.5607C30.1755 17.5607 30.1755 17.5607 30.1755 17.5607C30.1755 17.5607 30.1755 17.5607 30.1755 17.5607C30.1755 17.5607 30.1755 17.5607 30.1755 17.5607C30.1755 17.5607 30.1755 17.5607 30.1755 17.5607C30.1755 17.5607 30.1755 17.5607 30.1755 17.5607C30.1755 17.5607 30.1755 17.5607 30.1755 17.5607C30.1755 17.5607 30.1755 17.5607 30.1755 17.5607L29.3094 17.0607C29.3094 17.0607 29.3094 17.0607 29.3094 17.0607C29.3094 17.0607 29.3094 17.0607 29.3094 17.0607C29.3094 17.0607 29.3094 17.0607 29.3094 17.0607C29.3094 17.0607 29.3094 17.0607 29.3094 17.0607C29.3094 17.0607 29.3094 17.0607 29.3094 17.0607C29.3094 17.0607 29.3094 17.0607 29.3094 17.0607C29.3094 17.0607 29.3094 17.0607 29.3094 17.0607C29.3094 17.0607 29.3094 17.0607 29.3094 17.0607C29.3094 17.0607 29.3094 17.0607 29.3094 17.0607C29.3094 17.0607 29.3094 17.0607 29.3094 17.0607C29.3094 17.0607 29.3094 17.0607 29.3094 17.0607C29.3094 17.0607 29.3095 17.0607 29.3095 17.0607C29.3095 17.0607 29.3095 17.0606 29.3095 17.0606C29.3095 17.0606 29.3095 17.0606 29.3095 17.0606C29.3095 17.0606 29.3095 17.0605 29.3096 17.0604C29.3095 17.0605 29.3094 17.0607 29.3094 17.0608C29.3102 17.0594 29.9901 16.8763 30.1793 17.5539C30.1756 17.5605 30.1758 17.5602 30.1759 17.56C30.1755 17.5606 30.1755 17.5606 30.1756 17.5605C30.1756 17.5605 30.1756 17.5605 30.1755 17.5606C30.1755 17.5606 30.1755 17.5606 30.1755 17.5606C30.1755 17.5606 30.1755 17.5606 30.1755 17.5606C30.1755 17.5607 30.1755 17.5607 30.1755 17.5607C30.1755 17.5607 30.1755 17.5607 30.1755 17.5607C30.1755 17.5607 30.1755 17.5607 30.1755 17.5606C30.1755 17.5606 30.1755 17.5607 30.1755 17.5607C30.1755 17.5606 30.1755 17.5606 30.1755 17.5606C30.1755 17.5606 30.1755 17.5606 30.1755 17.5606C30.1755 17.5606 30.1755 17.5606 30.1755 17.5606C30.1755 17.5606 30.1756 17.5605 30.1756 17.5604C30.1756 17.5605 30.1756 17.5605 30.1756 17.5604C30.1756 17.5605 30.1756 17.5605 30.1755 17.5606C30.1758 17.5602 30.1775 17.5572 30.1793 17.5539C29.9896 16.876 29.3099 17.0599 29.3097 17.0602C29.3098 17.0601 29.3097 17.0603 29.3096 17.0603C29.3096 17.0604 29.3095 17.0606 29.3095 17.0606C29.3096 17.0605 29.3095 17.0606 29.3095 17.0606C29.3095 17.0606 29.3095 17.0606 29.3095 17.0606C29.3095 17.0606 29.3095 17.0606 29.3094 17.0607C29.3095 17.0606 29.3095 17.0606 29.3095 17.0606C29.3095 17.0607 29.3095 17.0607 29.3095 17.0607C29.3095 17.0607 29.3094 17.0607 29.3094 17.0607C29.3094 17.0607 29.3094 17.0607 29.3094 17.0607C29.3094 17.0607 29.3094 17.0607 29.3094 17.0607C29.3094 17.0607 29.3094 17.0607 29.3094 17.0607C29.3094 17.0607 29.3094 17.0607 29.3094 17.0607L30.1755 17.5607ZM16.0897 6.46881L16.0897 6.46882L16.9557 6.96882L16.9557 6.96882L16.0897 6.46881Z" fill="black"/>
</svg>
