<svg width="36" height="36" viewBox="0 0 36 36" fill="none" xmlns="http://www.w3.org/2000/svg">
<path d="M10.2222 21.1112V21.1112C6.78578 21.1112 4 18.3254 4 14.889V14.889C4 11.4525 6.78578 8.66675 10.2222 8.66675H16.4444C19.8809 8.66675 22.6667 11.4525 22.6667 14.889V14.889C22.6667 18.3254 19.8809 21.1112 16.4444 21.1112V21.1112" stroke="black"/>
<path d="M19.5557 14.8889V14.8889C16.1193 14.8889 13.3335 17.6747 13.3335 21.1111V21.1111C13.3335 24.5476 16.1193 27.3334 19.5557 27.3334H25.7779C29.2144 27.3334 32.0002 24.5476 32.0002 21.1111V21.1111C32.0002 17.6747 29.2144 14.8889 25.7779 14.8889V14.8889" stroke="black"/>
</svg>
