<svg width="36" height="36" viewBox="0 0 36 36" fill="none" xmlns="http://www.w3.org/2000/svg">
<path d="M10 9H16V8H10V9ZM10 21C6.68629 21 4 18.3137 4 15H3C3 18.866 6.13401 22 10 22V21ZM22 15C22 18.3137 19.3137 21 16 21V22C19.866 22 23 18.866 23 15H22ZM16 9C19.3137 9 22 11.6863 22 15H23C23 11.134 19.866 8 16 8V9ZM10 8C6.13401 8 3 11.134 3 15H4C4 11.6863 6.68629 9 10 9V8ZM26 28H20V29H26V28ZM20 28C16.6863 28 14 25.3137 14 22H13C13 25.866 16.134 29 20 29V28ZM32 22C32 25.3137 29.3137 28 26 28V29C29.866 29 33 25.866 33 22H32ZM26 16C29.3137 16 32 18.6863 32 22H33C33 18.134 29.866 15 26 15V16ZM20 15C16.134 15 13 18.134 13 22H14C14 18.6863 16.6863 16 20 16V15ZM25 16H26V15H25V16ZM11 21H10V22H11V21Z" fill="black"/>
</svg>
