<svg width="37" height="39" viewBox="0 0 37 39" fill="none" xmlns="http://www.w3.org/2000/svg">
<path d="M21.9733 8.82118L22.4063 9.07118L22.4063 9.07118L21.9733 8.82118ZM25.6726 10.957L25.2396 10.707L25.2396 10.707L25.6726 10.957ZM23.7504 14.2863L24.1834 14.5363L24.1834 14.5363L23.7504 14.2863ZM26.3391 18.3458L26.7721 18.5958L26.7721 18.5958L26.3391 18.3458ZM23.1642 31.7045L23.5972 31.9545L23.1642 31.7045ZM12.6611 34.5188L12.9111 34.0858L12.9111 34.0858L12.6611 34.5188ZM11.5541 33.8797L11.3041 34.3128L11.3041 34.3128L11.5541 33.8797ZM7.4758 28.7792L6.99839 28.9278L6.99839 28.9278L7.4758 28.7792ZM4.59086 19.5114L4.11346 19.66L4.11346 19.66L4.59086 19.5114ZM8.41084 18.3188L7.93369 18.4682L7.93369 18.4682L8.41084 18.3188ZM9.4003 21.4789L9.87746 21.3295L9.87746 21.3295L9.4003 21.4789ZM9.71302 21.5135L10.146 21.7635L10.146 21.7635L9.71302 21.5135ZM26.8815 13.1347L27.1315 12.7016L26.8815 13.1347ZM19.4601 8.84987L19.2101 9.28289L19.4601 8.84987ZM20.362 11.5273L19.8909 11.3599L19.8909 11.3599L20.362 11.5273ZM29.1514 17.4046L28.9014 17.8376L29.1514 17.4046ZM27.4497 16.4221L27.0167 16.1721L27.0167 16.1721L27.4497 16.4221ZM5.81062 17.0388L5.63802 16.5695L5.63802 16.5695L5.81062 17.0388ZM24.8909 8.03943L24.6409 8.47244L24.8909 8.03943ZM16.4618 9.82423L16.0288 9.57423L16.0288 9.57423L16.4618 9.82423ZM29.7424 20.3107L30.1755 20.5607L29.7424 20.3107ZM29.7425 20.3107L30.1755 20.5607L29.7425 20.3107ZM16.5227 9.71881L16.0897 9.46881L16.5227 9.71881ZM16.5227 9.71882L16.9557 9.96882L16.5227 9.71882ZM20.4917 12.3874L22.4063 9.07118L21.5403 8.57118L19.6257 11.8874L20.4917 12.3874ZM25.2396 10.707L23.3174 14.0363L24.1834 14.5363L26.1056 11.207L25.2396 10.707ZM23.3174 14.0363L19.473 20.6951L20.339 21.1951L24.1834 14.5363L23.3174 14.0363ZM25.9061 18.0958L23.1723 22.8309L24.0383 23.3309L26.7721 18.5958L25.9061 18.0958ZM29.3094 20.0607L22.7312 31.4545L23.5972 31.9545L30.1755 20.5607L29.3094 20.0607ZM12.9111 34.0858L11.8041 33.4467L11.3041 34.3128L12.4111 34.9519L12.9111 34.0858ZM7.9532 28.6306L5.06827 19.3628L4.11346 19.66L6.99839 28.9278L7.9532 28.6306ZM7.93369 18.4682L8.92314 21.6283L9.87746 21.3295L8.888 18.1694L7.93369 18.4682ZM23.7504 14.2863C24.1834 14.5363 24.1833 14.5365 24.1832 14.5367C24.1832 14.5367 24.1831 14.5369 24.1831 14.5369C24.183 14.5371 24.1829 14.5373 24.1828 14.5374C24.1827 14.5376 24.1827 14.5376 24.1827 14.5376C24.1828 14.5375 24.1831 14.5369 24.1838 14.5358C24.1851 14.5336 24.1875 14.5295 24.1912 14.5236C24.1984 14.5118 24.2103 14.4929 24.2265 14.4683C24.259 14.419 24.3087 14.3473 24.374 14.2634C24.5063 14.0935 24.6947 13.884 24.9259 13.7074C25.1575 13.5304 25.4142 13.4 25.6873 13.3584C25.9504 13.3183 26.2631 13.3549 26.6315 13.5677L27.1315 12.7016C26.5752 12.3804 26.0341 12.294 25.5367 12.3698C25.0492 12.444 24.6387 12.6683 24.3188 12.9127C23.9985 13.1575 23.7508 13.4361 23.585 13.649C23.5013 13.7565 23.4365 13.8499 23.3917 13.9178C23.3693 13.9518 23.3518 13.9796 23.3393 13.9997C23.3331 14.0098 23.3282 14.0181 23.3245 14.0242C23.3227 14.0273 23.3212 14.0298 23.32 14.0319C23.3194 14.0329 23.3189 14.0338 23.3185 14.0345C23.3182 14.0349 23.318 14.0352 23.3179 14.0355C23.3178 14.0357 23.3177 14.0359 23.3176 14.036C23.3175 14.0362 23.3174 14.0363 23.7504 14.2863ZM16.9557 9.96882C16.9439 9.98927 17.1765 9.58582 17.5903 9.30038C17.7912 9.16181 18.02 9.06132 18.2746 9.03874C18.5238 9.01664 18.8339 9.0657 19.2101 9.28289L19.7101 8.41686C19.1729 8.10671 18.6591 8.00072 18.1863 8.04265C17.7189 8.0841 17.3276 8.26675 17.0225 8.47723C16.4242 8.8899 16.1015 9.44825 16.0897 9.46881L16.9557 9.96882ZM19.2101 9.28289C19.7604 9.60062 19.952 9.98917 20.0097 10.3401C20.0718 10.7178 19.984 11.0979 19.8909 11.3599L20.8332 11.6947C20.9535 11.3561 21.0974 10.7916 20.9965 10.1779C20.8912 9.53731 20.5252 8.88745 19.7101 8.41686L19.2101 9.28289ZM26.3391 18.3458C26.7721 18.5958 26.772 18.5959 26.7719 18.5961C26.7719 18.5962 26.7718 18.5963 26.7717 18.5964C26.7716 18.5966 26.7715 18.5968 26.7714 18.5969C26.7713 18.5972 26.7712 18.5974 26.7712 18.5974C26.7711 18.5975 26.7713 18.5972 26.7717 18.5964C26.7726 18.5949 26.7745 18.5918 26.7774 18.5871C26.7832 18.5777 26.793 18.5622 26.8065 18.5418C26.8337 18.501 26.8756 18.4411 26.9311 18.371C27.0438 18.2288 27.2042 18.055 27.402 17.9105C27.5994 17.7664 27.8188 17.6625 28.055 17.6334C28.2835 17.6054 28.5635 17.6425 28.9014 17.8376L29.4014 16.9716C28.8884 16.6754 28.3915 16.5846 27.9331 16.6409C27.4825 16.6963 27.1052 16.889 26.8122 17.103C26.5197 17.3166 26.2961 17.5623 26.1473 17.7501C26.0721 17.845 26.014 17.9277 25.9738 17.9882C25.9536 18.0185 25.9378 18.0435 25.9265 18.0618C25.9209 18.0709 25.9163 18.0784 25.9129 18.0841C25.9112 18.087 25.9098 18.0894 25.9087 18.0913C25.9081 18.0923 25.9076 18.0932 25.9072 18.0939C25.9069 18.0943 25.9067 18.0946 25.9066 18.0949C25.9065 18.0951 25.9064 18.0953 25.9063 18.0954C25.9062 18.0956 25.9061 18.0958 26.3391 18.3458ZM28.9014 17.8376C29.2393 18.0327 29.4115 18.2566 29.5014 18.4685C29.5944 18.6876 29.6141 18.9295 29.5879 19.1726C29.5343 19.6713 29.2988 20.0792 29.3094 20.0607L30.1755 20.5607C30.1862 20.5422 30.5059 19.9882 30.5822 19.2795C30.621 18.9189 30.5993 18.4957 30.4219 18.0778C30.2414 17.6527 29.9143 17.2677 29.4014 16.9716L28.9014 17.8376ZM26.6315 13.5677C27 13.7804 27.1881 14.0329 27.2849 14.2808C27.3854 14.538 27.4008 14.8255 27.3634 15.1146C27.326 15.4032 27.2387 15.6711 27.1577 15.8706C27.1177 15.9691 27.0805 16.048 27.0541 16.1008C27.0409 16.1272 27.0305 16.1469 27.0239 16.1591C27.0206 16.1652 27.0182 16.1694 27.017 16.1716C27.0164 16.1727 27.016 16.1733 27.016 16.1734C27.0159 16.1734 27.016 16.1734 27.0161 16.1731C27.0162 16.173 27.0162 16.1729 27.0163 16.1727C27.0164 16.1727 27.0165 16.1725 27.0165 16.1725C27.0166 16.1723 27.0167 16.1721 27.4497 16.4221C27.8827 16.6721 27.8828 16.6719 27.8829 16.6718C27.883 16.6717 27.8831 16.6715 27.8832 16.6713C27.8834 16.671 27.8836 16.6707 27.8838 16.6703C27.8842 16.6696 27.8847 16.6687 27.8853 16.6677C27.8864 16.6656 27.8879 16.663 27.8897 16.6599C27.8932 16.6536 27.8978 16.6453 27.9034 16.6348C27.9147 16.614 27.93 16.5849 27.9483 16.5485C27.9847 16.4758 28.0331 16.3729 28.0843 16.2467C28.1858 15.9967 28.3033 15.6429 28.3551 15.2431C28.4068 14.8438 28.3958 14.3762 28.2163 13.9169C28.0333 13.4483 27.6879 13.0229 27.1315 12.7016L26.6315 13.5677ZM27.0167 16.1721L25.9061 18.0958L26.7721 18.5958L27.8827 16.6721L27.0167 16.1721ZM5.06827 19.3628C4.83068 18.5996 5.23299 17.784 5.98323 17.5081L5.63802 16.5695C4.38793 17.0294 3.71757 18.3882 4.11346 19.66L5.06827 19.3628ZM8.92314 21.6283C9.09797 22.1867 9.85348 22.2702 10.146 21.7635L9.28001 21.2635C9.42294 21.0159 9.79205 21.0567 9.87746 21.3295L8.92314 21.6283ZM24.6409 8.47244C25.4233 8.92415 25.6913 9.92459 25.2396 10.707L26.1056 11.207C26.8335 9.94629 26.4015 8.33427 25.1409 7.60642L24.6409 8.47244ZM5.98323 17.5081C6.7883 17.212 7.67737 17.6496 7.93369 18.4682L8.888 18.1694C8.46091 16.8054 6.97949 16.0761 5.63802 16.5695L5.98323 17.5081ZM22.4063 9.07118C22.858 8.28879 23.8585 8.02073 24.6409 8.47244L25.1409 7.60642C23.8802 6.87856 22.2682 7.3105 21.5403 8.57118L22.4063 9.07118ZM11.8041 33.4467C9.96074 32.3825 8.58584 30.663 7.9532 28.6306L6.99839 28.9278C7.70575 31.2002 9.24303 33.1228 11.3041 34.3128L11.8041 33.4467ZM20.4917 12.3874C20.6029 12.1949 20.7393 11.9587 20.8332 11.6947L19.8909 11.3599C19.8322 11.525 19.7423 11.6855 19.6257 11.8875L20.4917 12.3874ZM22.7312 31.4545C20.7461 34.8929 16.3494 36.071 12.9111 34.0858L12.4111 34.9519C16.3277 37.2131 21.3359 35.8712 23.5972 31.9545L22.7312 31.4545ZM19.6257 11.8874L15.7737 18.5593L16.6397 19.0593L20.4917 12.3874L19.6257 11.8874ZM10.146 21.7635L16.8948 10.0742L16.0288 9.57423L9.28001 21.2635L10.146 21.7635ZM16.8948 10.0742L16.9557 9.96882L16.0897 9.46882L16.0288 9.57423L16.8948 10.0742ZM30.1755 20.5607C30.1755 20.5607 30.1755 20.5607 30.1755 20.5607C30.1755 20.5607 30.1755 20.5607 30.1755 20.5607C30.1755 20.5607 30.1755 20.5607 30.1755 20.5607C30.1755 20.5607 30.1755 20.5607 30.1755 20.5607C30.1755 20.5607 30.1754 20.5607 30.1754 20.5607C30.1754 20.5607 30.1754 20.5607 30.1754 20.5608C30.1754 20.5608 30.1754 20.5608 30.1754 20.5608C30.1754 20.5607 30.1754 20.5608 30.1754 20.5608C30.1754 20.5608 30.1754 20.5608 30.1754 20.5608C30.1754 20.5608 30.1753 20.5609 30.1753 20.5609C30.1754 20.5608 30.1753 20.561 30.1753 20.5611C30.1752 20.5611 30.1751 20.5613 30.1751 20.5614C30.175 20.5615 29.4953 20.7453 29.3056 20.0675C29.3074 20.0642 29.3091 20.0612 29.309 20.0614C29.3093 20.0608 29.3093 20.0609 29.3093 20.0609C29.3093 20.0609 29.3093 20.0609 29.3093 20.0609C29.3093 20.0609 29.3094 20.0608 29.3094 20.0608C29.3094 20.0608 29.3094 20.0608 29.3094 20.0608C29.3094 20.0608 29.3094 20.0608 29.3094 20.0608C29.3094 20.0608 29.3094 20.0607 29.3094 20.0607C29.3094 20.0607 29.3094 20.0607 29.3094 20.0607C29.3094 20.0607 29.3094 20.0607 29.3094 20.0608C29.3094 20.0608 29.3094 20.0608 29.3094 20.0608C29.3094 20.0608 29.3094 20.0608 29.3094 20.0608C29.3093 20.0609 29.3093 20.0609 29.3093 20.0609C29.3094 20.0608 29.3094 20.0608 29.3094 20.0608C29.3091 20.0612 29.3093 20.0609 29.3094 20.0607C29.4948 20.745 30.1747 20.562 30.1752 20.5612C30.1755 20.5607 30.1754 20.5609 30.1753 20.561C30.1754 20.5609 30.1754 20.5608 30.1754 20.5607C30.1754 20.5608 30.1754 20.5607 30.1754 20.5608C30.1754 20.5608 30.1754 20.5607 30.1755 20.5607C30.1754 20.5607 30.1755 20.5607 30.1755 20.5607C30.1755 20.5607 30.1755 20.5607 30.1755 20.5607C30.1755 20.5607 30.1755 20.5607 30.1755 20.5607C30.1755 20.5607 30.1755 20.5607 30.1755 20.5607C30.1755 20.5607 30.1755 20.5607 30.1755 20.5607C30.1755 20.5607 30.1755 20.5607 30.1755 20.5607C30.1755 20.5607 30.1755 20.5607 30.1755 20.5607C30.1755 20.5607 30.1755 20.5607 30.1755 20.5607C30.1755 20.5607 30.1755 20.5607 30.1755 20.5607C30.1755 20.5607 30.1755 20.5607 30.1755 20.5607C30.1755 20.5607 30.1755 20.5607 30.1755 20.5607L29.3094 20.0607C29.3094 20.0607 29.3094 20.0607 29.3094 20.0607C29.3094 20.0607 29.3094 20.0607 29.3094 20.0607C29.3094 20.0607 29.3094 20.0607 29.3094 20.0607C29.3094 20.0607 29.3094 20.0607 29.3094 20.0607C29.3094 20.0607 29.3094 20.0607 29.3094 20.0607C29.3094 20.0607 29.3094 20.0607 29.3094 20.0607C29.3094 20.0607 29.3094 20.0607 29.3094 20.0607C29.3094 20.0607 29.3094 20.0607 29.3094 20.0607C29.3094 20.0607 29.3094 20.0607 29.3094 20.0607C29.3094 20.0607 29.3094 20.0607 29.3094 20.0607C29.3094 20.0607 29.3094 20.0607 29.3094 20.0607C29.3094 20.0607 29.3095 20.0607 29.3095 20.0607C29.3095 20.0607 29.3095 20.0606 29.3095 20.0606C29.3095 20.0606 29.3095 20.0606 29.3095 20.0606C29.3095 20.0606 29.3095 20.0605 29.3096 20.0604C29.3095 20.0605 29.3094 20.0607 29.3094 20.0608C29.3102 20.0594 29.9901 19.8763 30.1793 20.5539C30.1756 20.5605 30.1758 20.5602 30.1759 20.56C30.1755 20.5606 30.1755 20.5606 30.1756 20.5605C30.1756 20.5605 30.1756 20.5605 30.1755 20.5606C30.1755 20.5606 30.1755 20.5606 30.1755 20.5606C30.1755 20.5606 30.1755 20.5606 30.1755 20.5606C30.1755 20.5607 30.1755 20.5607 30.1755 20.5607C30.1755 20.5607 30.1755 20.5607 30.1755 20.5607C30.1755 20.5607 30.1755 20.5607 30.1755 20.5606C30.1755 20.5606 30.1755 20.5607 30.1755 20.5607C30.1755 20.5606 30.1755 20.5606 30.1755 20.5606C30.1755 20.5606 30.1755 20.5606 30.1755 20.5606C30.1755 20.5606 30.1755 20.5606 30.1755 20.5606C30.1755 20.5606 30.1756 20.5605 30.1756 20.5604C30.1756 20.5605 30.1756 20.5605 30.1756 20.5604C30.1756 20.5605 30.1756 20.5605 30.1755 20.5606C30.1758 20.5602 30.1775 20.5572 30.1793 20.5539C29.9896 19.876 29.3099 20.0599 29.3097 20.0602C29.3098 20.0601 29.3097 20.0603 29.3096 20.0603C29.3096 20.0604 29.3095 20.0606 29.3095 20.0606C29.3096 20.0605 29.3095 20.0606 29.3095 20.0606C29.3095 20.0606 29.3095 20.0606 29.3095 20.0606C29.3095 20.0606 29.3095 20.0606 29.3094 20.0607C29.3095 20.0606 29.3095 20.0606 29.3095 20.0606C29.3095 20.0607 29.3095 20.0607 29.3095 20.0607C29.3095 20.0607 29.3094 20.0607 29.3094 20.0607C29.3094 20.0607 29.3094 20.0607 29.3094 20.0607C29.3094 20.0607 29.3094 20.0607 29.3094 20.0607C29.3094 20.0607 29.3094 20.0607 29.3094 20.0607C29.3094 20.0607 29.3094 20.0607 29.3094 20.0607L30.1755 20.5607ZM16.0897 9.46881L16.0897 9.46882L16.9557 9.96882L16.9557 9.96882L16.0897 9.46881Z" fill="black"/>
<path d="M28.5422 1.1001L27.459 5.39357M34.898 3.73867L31.8553 6.32352M31.7064 10.4403L35.9999 11.5236" stroke="white"/>
</svg>
