<svg width="36" height="36" viewBox="0 0 36 36" fill="none" xmlns="http://www.w3.org/2000/svg">
<path d="M30.4911 19.1999C30.4911 26.5138 24.8986 29.5 18 29.5C11.1014 29.5 5.5089 26.5138 5.5089 19.1999C5.5089 16.4775 5.32287 13.9469 6.65148 11.8426C10.3677 5.95667 15.9182 9.6356 18 9.63551C20.0818 9.63542 25.6324 5.95667 29.3485 11.8426C30.6771 13.9469 30.4911 16.4775 30.4911 19.1999Z" stroke="black"/>
<path d="M5.73145 19.5H30.287" stroke="black"/>
<line x1="18.5" y1="19" x2="18.5" y2="15" stroke="black"/>
<line x1="11.5" y1="19.8889" x2="11.5" y2="17" stroke="black"/>
<line x1="24.5" y1="19.8889" x2="24.5" y2="17" stroke="black"/>
<path d="M20.5 6C20.5 7.38071 19.3807 9.5 18 9.5C16.6193 9.5 15.5 7.38071 15.5 6" stroke="black"/>
</svg>
