<svg width="36" height="36" viewBox="0 0 36 36" fill="none" xmlns="http://www.w3.org/2000/svg">
<path d="M30 8C30 10.2091 28.2091 12 26 12V13C28.7614 13 31 10.7614 31 8H30ZM26 12C23.7909 12 22 10.2091 22 8H21C21 10.7614 23.2386 13 26 13V12ZM22 8C22 5.79086 23.7909 4 26 4V3C23.2386 3 21 5.23858 21 8H22ZM26 4C28.2091 4 30 5.79086 30 8H31C31 5.23858 28.7614 3 26 3V4ZM13 18C13 20.2091 11.2091 22 9 22V23C11.7614 23 14 20.7614 14 18H13ZM9 22C6.79086 22 5 20.2091 5 18H4C4 20.7614 6.23858 23 9 23V22ZM5 18C5 15.7909 6.79086 14 9 14V13C6.23858 13 4 15.2386 4 18H5ZM9 14C11.2091 14 13 15.7909 13 18H14C14 15.2386 11.7614 13 9 13V14ZM30 28C30 30.2091 28.2091 32 26 32V33C28.7614 33 31 30.7614 31 28H30ZM26 32C23.7909 32 22 30.2091 22 28H21C21 30.7614 23.2386 33 26 33V32ZM22 28C22 25.7909 23.7909 24 26 24V23C23.2386 23 21 25.2386 21 28H22ZM26 24C28.2091 24 30 25.7909 30 28H31C31 25.2386 28.7614 23 26 23V24ZM21.7572 9.78514L12.4071 14.9796L12.8928 15.8538L22.2428 10.6593L21.7572 9.78514ZM12.4071 21.0204L21.7572 26.2149L22.2428 25.3407L12.8928 20.1462L12.4071 21.0204Z" fill="black"/>
</svg>
