<svg width="25" height="24" viewBox="0 0 25 24" fill="none" xmlns="http://www.w3.org/2000/svg">
<path d="M21.8932 7.84148C21.7578 7.94499 19.368 9.27223 19.368 12.2234C19.368 15.637 22.409 16.8446 22.5 16.8745C22.486 16.9481 22.0169 18.5284 20.8966 20.1385C19.8977 21.5555 18.8545 22.9701 17.2675 22.9701C15.6804 22.9701 15.272 22.0615 13.4399 22.0615C11.6545 22.0615 11.0197 23 9.56805 23C8.11639 23 7.10349 21.6889 5.93889 20.0787C4.58992 18.1879 3.5 15.2505 3.5 12.4626C3.5 7.991 6.45001 5.61946 9.35334 5.61946C10.896 5.61946 12.182 6.61776 13.1505 6.61776C14.0724 6.61776 15.5101 5.55966 17.2651 5.55966C17.9303 5.55966 20.3202 5.61946 21.8932 7.84148ZM16.4319 3.66657C17.1578 2.81778 17.6712 1.64006 17.6712 0.462346C17.6712 0.29903 17.6572 0.133413 17.6269 0C16.446 0.0437044 15.041 0.775178 14.1938 1.74357C13.5286 2.48885 12.9078 3.66657 12.9078 4.86039C12.9078 5.0398 12.9382 5.21922 12.9522 5.27673C13.0268 5.29053 13.1482 5.30663 13.2696 5.30663C14.3291 5.30663 15.6618 4.60736 16.4319 3.66657Z" fill="white"/>
</svg>
