<svg width="24" height="25" viewBox="0 0 24 25" fill="none" xmlns="http://www.w3.org/2000/svg">
<path d="M11.6014 22.4629C11.6014 23.177 10.8481 23.6415 10.2078 23.3221L1.73248 19.0943C1.40626 18.9315 1.2002 18.5989 1.2002 18.235V7.61133C1.2002 6.89718 1.95349 6.4327 2.59373 6.75208L11.0691 10.9799C11.3953 11.1427 11.6014 11.4753 11.6014 11.8392V22.4629Z" fill="white"/>
<path fill-rule="evenodd" clip-rule="evenodd" d="M11.3538 0.598456C11.3533 0.597962 11.3537 0.597146 11.3544 0.597271V0.597271C11.5615 0.635288 11.8548 0.728607 12.2238 0.874151C12.9575 1.16353 13.9351 1.63684 15.01 2.19903C17.0527 3.26738 19.4184 4.64152 21.065 5.63637C21.2017 5.71894 21.3789 5.67543 21.4621 5.53914V5.53914C21.5456 5.40246 21.5028 5.2243 21.3657 5.14149C19.713 4.14297 17.3363 2.76227 15.2793 1.68646C14.1997 1.12179 13.2002 0.636925 12.4371 0.335957C12.0577 0.18633 11.7227 0.0764384 11.4594 0.0281019C11.329 0.00417196 11.1983 -0.00820298 11.0807 0.00604909C10.9663 0.0199108 10.8135 0.0661912 10.7168 0.208827C10.5908 0.394757 10.6516 0.593071 10.716 0.713575C10.7823 0.837682 10.8909 0.959901 11.0122 1.07538C11.259 1.3103 11.6319 1.58516 12.0719 1.88048C12.8265 2.38704 13.8216 2.98202 14.8204 3.57918C14.9908 3.68108 15.1614 3.78304 15.3308 3.88464C16.5016 4.58652 17.6179 5.26908 18.3326 5.8096C18.3999 5.86048 18.4624 5.90921 18.5201 5.95572C18.7685 6.15603 18.6447 6.41935 18.3446 6.31071V6.31071C18.0068 6.18845 17.6006 5.98126 17.1414 5.71106C16.3507 5.24586 15.4387 4.61571 14.4985 3.96613C14.3463 3.86095 14.1933 3.75527 14.04 3.64969C12.9481 2.89772 11.8385 2.15102 10.8887 1.66548C10.4144 1.423 9.96425 1.23732 9.56555 1.15221C9.17254 1.06831 8.77754 1.07135 8.46326 1.27748C8.30277 1.38274 8.17923 1.53678 8.15947 1.74245C8.14117 1.93287 8.21879 2.10663 8.31354 2.24714C8.50144 2.52579 8.85655 2.81883 9.27751 3.11144C10.0705 3.66261 11.2257 4.29704 12.373 4.9271C12.4624 4.97621 12.5518 5.0253 12.641 5.07432C13.8875 5.75968 15.088 6.43049 15.8332 6.99781C16.2161 7.28931 16.4281 7.51711 16.4956 7.67166C16.5241 7.73696 16.5126 7.75643 16.5123 7.7571C16.5089 7.76497 16.4857 7.80768 16.3733 7.86298C16.1655 7.96523 15.8962 7.98026 15.5471 7.89099C15.1973 7.80153 14.7947 7.61394 14.347 7.34883C13.5205 6.85933 12.5954 6.1397 11.636 5.39346C11.5545 5.33 11.4726 5.26636 11.3906 5.20265C10.3548 4.39816 9.28646 3.58345 8.30763 3.06278C7.3486 2.55265 6.36455 2.26402 5.56508 2.70099C5.37175 2.80666 5.20978 2.94445 5.1251 3.12958C5.03562 3.32522 5.05386 3.5258 5.12949 3.70438C5.20178 3.87508 5.32887 4.0341 5.47792 4.18043C5.62923 4.32898 5.81752 4.47827 6.03035 4.62716C6.86938 5.21416 8.19742 5.86744 9.49542 6.50594L9.51567 6.5159C10.8376 7.16617 12.1264 7.80108 12.9245 8.35942C13.122 8.49762 13.2825 8.62646 13.4031 8.74482C13.5259 8.8654 13.5938 8.96207 13.6241 9.03361C13.651 9.09727 13.643 9.12546 13.635 9.14291C13.6223 9.17086 13.5791 9.23044 13.4441 9.30421C12.9315 9.58438 12.2377 9.44345 11.3395 8.94611C10.482 8.47127 9.53836 7.72844 8.55854 6.95709C8.53036 6.93491 8.50216 6.91271 8.47392 6.89048C7.47587 6.10495 6.44265 5.29781 5.47163 4.78092C4.5113 4.26972 3.52121 3.99319 2.65802 4.41781C2.31666 4.58573 2.07602 4.83021 2.0084 5.1601C1.94325 5.47799 2.05549 5.79935 2.24017 6.09108C2.60816 6.67237 3.36754 7.30088 4.31465 7.89702C6.1513 9.05306 8.83452 10.1733 11.2668 10.6491C11.4236 10.6798 11.5735 10.5745 11.6013 10.4172V10.4172C11.6292 10.2598 11.5242 10.1099 11.3672 10.079C9.01368 9.61684 6.40223 8.52673 4.62416 7.40756C3.692 6.82084 3.0262 6.24897 2.73061 5.78205C2.58351 5.54968 2.55438 5.38498 2.57671 5.27605C2.59657 5.17913 2.67226 5.05605 2.91453 4.93687C3.51042 4.64375 4.27122 4.79787 5.19857 5.29151C6.11522 5.77946 7.10647 6.55134 8.11465 7.34484C8.1498 7.37251 8.18498 7.4002 8.22017 7.42791C9.18229 8.18544 10.1584 8.95399 11.058 9.45212C11.9745 9.95962 12.9222 10.2493 13.7228 9.81176C13.9161 9.70609 14.0781 9.5683 14.1628 9.38317C14.2522 9.18753 14.234 8.98695 14.1584 8.80837C14.0861 8.63767 13.959 8.47865 13.8099 8.33232C13.6586 8.18377 13.4703 8.03448 13.2575 7.88559C12.4185 7.29859 11.0904 6.64531 9.79244 6.0068L9.77219 5.99684C8.45028 5.34658 7.16145 4.71166 6.36338 4.15333C6.16585 4.01513 6.00533 3.88629 5.88477 3.76793C5.76195 3.64735 5.69411 3.55068 5.66382 3.47913C5.63686 3.41548 5.64484 3.38728 5.65282 3.36984C5.6656 3.34189 5.70881 3.28231 5.84378 3.20854C6.35747 2.92777 7.08784 3.06978 8.03473 3.57346C8.96181 4.0666 9.99084 4.84886 11.0343 5.6593C11.1183 5.72456 11.2024 5.79001 11.2866 5.85549C12.2366 6.5946 13.1909 7.33714 14.0509 7.84648C14.5198 8.12416 14.9767 8.34255 15.4031 8.45159C15.8302 8.56082 16.2541 8.56688 16.6298 8.38204C16.8093 8.29378 16.9662 8.16827 17.0449 7.98634C17.1267 7.7972 17.0992 7.60527 17.0274 7.44067C16.8942 7.13541 16.5682 6.82939 16.1851 6.53773C15.3983 5.93871 14.1548 5.24582 12.9209 4.56746C12.8349 4.52016 12.7489 4.47293 12.6631 4.42578C11.5043 3.78929 10.3755 3.16933 9.60911 2.63659C9.1911 2.34604 8.91699 2.10526 8.79483 1.9241C8.77634 1.89668 8.76374 1.87412 8.75517 1.85605C8.73858 1.82111 8.74956 1.78228 8.7819 1.76107V1.76107C8.90534 1.6801 9.1122 1.64726 9.44418 1.71812C9.77046 1.78778 10.1684 1.94751 10.6242 2.18053C11.5348 2.646 12.6138 3.37068 13.7105 4.12596C13.862 4.23034 14.0139 4.3353 14.1657 4.44015C15.1038 5.08839 16.0362 5.73266 16.8467 6.20955C17.3176 6.48663 17.7595 6.71456 18.1467 6.85473C18.5211 6.99025 18.9019 7.06572 19.2185 6.96191C19.3681 6.91285 19.5393 6.81204 19.5971 6.6106C19.6508 6.42358 19.5751 6.25069 19.5019 6.13322C19.3519 5.89273 19.0467 5.62345 18.683 5.34841C17.9386 4.7854 16.7934 4.08631 15.6296 3.38859C15.4585 3.28602 15.287 3.18344 15.116 3.08122C14.1159 2.48321 13.1365 1.89761 12.3957 1.40032C11.9602 1.10799 11.6218 0.855748 11.4126 0.656659C11.391 0.63602 11.3714 0.61662 11.3538 0.598456ZM11.1369 0.582976C11.1369 0.582956 11.1374 0.582772 11.1387 0.582489C11.1375 0.582854 11.1369 0.582997 11.1369 0.582976ZM8.73497 1.80407V1.80407C8.73418 1.80402 8.73576 1.80413 8.73497 1.80407V1.80407ZM19.0355 6.49077C19.0357 6.49127 19.0356 6.49127 19.0355 6.49077V6.49077M19.0716 6.39823C19.0728 6.39733 19.0735 6.39692 19.0735 6.39695C19.0736 6.39697 19.073 6.39742 19.0716 6.39823Z" fill="white"/>
<path fill-rule="evenodd" clip-rule="evenodd" d="M21.9508 7.16645C21.964 7.12375 22.0188 7.12158 22.0361 7.16277C22.0861 7.28183 22.1408 7.44345 22.1977 7.65084C22.3899 8.35162 22.5714 9.43095 22.7349 10.6905C23.0469 13.0935 23.2877 16.1012 23.4207 18.2464C23.4306 18.4062 23.5679 18.5275 23.7277 18.518V18.518C23.8877 18.5085 24.0097 18.3718 23.9998 18.2119C23.8663 16.0599 23.6246 13.0374 23.3102 10.6161C23.1462 9.35343 22.9608 8.24016 22.7572 7.49804C22.6579 7.13611 22.5446 6.82408 22.406 6.63114C22.339 6.53781 22.2289 6.4193 22.0638 6.38805C21.8745 6.35223 21.7256 6.44791 21.6327 6.54774C21.5205 6.6683 21.4476 6.82994 21.3963 6.99653C21.3437 7.16734 21.3064 7.36861 21.2798 7.59025C21.2266 8.03356 21.2131 8.58972 21.2229 9.21086C21.2397 10.2724 21.3257 11.5558 21.4121 12.8454C21.4269 13.0655 21.4416 13.2857 21.4561 13.5051C21.5556 15.0177 21.6393 16.4867 21.6019 17.5975C21.5831 18.155 21.5342 18.6028 21.4492 18.9144C21.4066 19.0704 21.3594 19.1753 21.3146 19.2398V19.2398C21.2851 19.2824 21.2289 19.2754 21.2047 19.2296C21.1819 19.1865 21.1563 19.1266 21.1302 19.0453C21.0352 18.7495 20.9687 18.2889 20.9249 17.6987C20.8498 16.6885 20.8451 15.3722 20.8402 14.0179C20.8395 13.7987 20.8387 13.5785 20.8376 13.3584C20.8298 11.791 20.8068 10.2267 20.6525 9.13232C20.5768 8.59471 20.4638 8.12242 20.275 7.82176C20.178 7.66723 20.039 7.52302 19.8415 7.46776C19.6379 7.4108 19.4393 7.46669 19.2663 7.57253C18.9116 7.78954 18.7133 8.18742 18.5997 8.6358C18.4844 9.09059 18.4425 9.65111 18.4431 10.2675C18.4443 11.4119 18.5934 12.8117 18.7417 14.2047C18.7532 14.3126 18.7646 14.4206 18.7761 14.5283C18.936 16.0383 19.0816 17.5162 19.0393 18.682C19.0181 19.2652 18.9502 19.75 18.824 20.113C18.6977 20.4763 18.5275 20.6787 18.3266 20.7676C18.225 20.8126 18.1809 20.7999 18.1642 20.793C18.1402 20.783 18.0912 20.7492 18.0334 20.6382C17.9135 20.4079 17.831 19.9928 17.7893 19.4078C17.7134 18.3446 17.7793 16.8765 17.8473 15.3612C17.8531 15.2321 17.8589 15.1027 17.8647 14.9731C17.937 13.3399 17.9982 11.684 17.8573 10.526C17.7881 9.95739 17.6647 9.4495 17.4251 9.12991C17.2984 8.96085 17.1276 8.82924 16.9064 8.78627C16.6895 8.74411 16.4679 8.79585 16.253 8.90414C15.8112 9.12685 15.5321 9.51644 15.3655 9.98831C15.2007 10.4553 15.1394 11.0196 15.1383 11.6313C15.1363 12.8483 15.3745 14.3382 15.6077 15.7967L15.6106 15.8144C15.8471 17.2937 16.0776 18.7398 16.0756 19.9054C16.0746 20.4874 16.0152 20.9779 15.8813 21.3572C15.7492 21.7316 15.5516 21.9798 15.2794 22.117C15.1355 22.1895 15.0483 22.1942 15.0002 22.1852C14.9578 22.1773 14.9076 22.152 14.8494 22.0725C14.7179 21.8931 14.6157 21.5324 14.5592 20.9817C14.4515 19.9323 14.5265 18.4197 14.604 16.8569C14.6063 16.8118 14.6085 16.7667 14.6107 16.7215C14.6895 15.1307 14.7655 13.4995 14.6261 12.3505C14.5575 11.7854 14.4313 11.2774 14.1817 10.954C14.05 10.7834 13.8756 10.6534 13.6532 10.6065C13.4348 10.5603 13.2074 10.6022 12.981 10.7025C12.2417 11.0297 11.8418 11.8338 11.6361 12.7877C11.4274 13.7557 11.3991 14.9645 11.4762 16.2364C11.6231 18.6596 12.1573 21.3765 12.6302 23.2431C12.6695 23.3983 12.8277 23.4903 12.9826 23.4499V23.4499C13.1377 23.4095 13.2306 23.2515 13.1912 23.0961C12.7243 21.2521 12.1991 18.5753 12.0552 16.2014C11.9794 14.951 12.0107 13.8025 12.2032 12.9094C12.3988 12.0023 12.7418 11.4415 13.2162 11.2315C13.369 11.1638 13.4692 11.1591 13.5331 11.1726C13.5931 11.1853 13.6557 11.2211 13.7221 11.3071C13.8687 11.4971 13.983 11.8662 14.0502 12.4201C14.1823 13.5091 14.111 15.0839 14.0314 16.693C14.0286 16.749 14.0258 16.805 14.0231 16.8611C13.9468 18.3962 13.8699 19.9463 13.9821 21.0406C14.0392 21.5968 14.1497 22.0982 14.3811 22.414C14.5043 22.5822 14.673 22.7129 14.8935 22.754C15.1082 22.7941 15.3278 22.741 15.5409 22.6335C15.9828 22.4108 16.2619 22.0212 16.4285 21.5494C16.5933 21.0823 16.6546 20.5181 16.6556 19.9064C16.6577 18.6894 16.4195 17.1995 16.1862 15.741L16.1834 15.7233C15.9469 14.244 15.7164 12.7978 15.7184 11.6323C15.7194 11.0503 15.7788 10.5598 15.9126 10.1805C16.0448 9.80612 16.2424 9.55788 16.5146 9.42069C16.6568 9.34904 16.7447 9.34445 16.7955 9.35432C16.8421 9.36336 16.8973 9.39213 16.9606 9.4765C17.101 9.66378 17.2133 10.0351 17.2815 10.5957C17.4154 11.6962 17.3582 13.2992 17.2852 14.9476C17.2793 15.0802 17.2733 15.213 17.2673 15.3459C17.1998 16.8479 17.1323 18.3501 17.2107 19.4489C17.2527 20.0387 17.339 20.5599 17.5186 20.9049C17.6105 21.0815 17.744 21.2451 17.9408 21.3271C18.145 21.4121 18.3601 21.3859 18.5619 21.2966C18.9679 21.1168 19.2185 20.7444 19.3721 20.3026C19.5258 19.8605 19.5969 19.3097 19.6189 18.7029C19.663 17.4885 19.5119 15.968 19.3529 14.4675C19.3418 14.3626 19.3306 14.2577 19.3195 14.1531C19.1701 12.7494 19.0244 11.3793 19.0232 10.267C19.0226 9.66922 19.0641 9.16414 19.1621 8.77766C19.2616 8.38477 19.4064 8.16571 19.5695 8.0659C19.6126 8.03954 19.6424 8.02944 19.6598 8.02584C19.6756 8.02259 19.6824 8.02429 19.6849 8.025C19.69 8.02642 19.7272 8.03949 19.7834 8.12901C19.9011 8.31644 20.0029 8.67926 20.0781 9.21291C20.2259 10.2611 20.2497 11.7839 20.2575 13.3613C20.2586 13.5792 20.2594 13.7982 20.2602 14.0169C20.2649 15.3684 20.2696 16.709 20.3464 17.7415C20.3907 18.3379 20.4605 18.8566 20.5778 19.2219C20.6356 19.4019 20.7143 19.5755 20.8317 19.7008C20.9626 19.8406 21.1477 19.9224 21.3629 19.8751C21.5529 19.8334 21.6927 19.7117 21.7915 19.5693C21.8885 19.4296 21.9574 19.255 22.0089 19.0664C22.1119 18.6887 22.1624 18.1869 22.1816 17.6169C22.2202 16.4726 22.134 14.9746 22.0349 13.4672C22.0203 13.246 22.0055 13.0246 21.9907 12.804C21.9043 11.513 21.8195 10.2471 21.8029 9.20171C21.7932 8.58944 21.8072 8.06371 21.8557 7.65902C21.88 7.45665 21.912 7.29239 21.9508 7.16645V7.16645Z" fill="white"/>
</svg>
