<svg width="24" height="24" viewBox="0 0 24 24" fill="none" xmlns="http://www.w3.org/2000/svg">
<path d="M21.575 12.225C21.575 11.5666 21.5167 10.9416 21.4167 10.3333H12V14.0917H17.3917C17.15 15.325 16.4417 16.3667 15.3917 17.075V19.575H18.6083C20.4917 17.8333 21.575 15.2667 21.575 12.225Z" fill="#4285F4"/>
<path d="M12.0002 22C14.7002 22 16.9585 21.1 18.6085 19.575L15.3919 17.075C14.4919 17.675 13.3502 18.0417 12.0002 18.0417C9.39187 18.0417 7.18353 16.2833 6.39187 13.9083H3.0752V16.4833C4.71686 19.75 8.09187 22 12.0002 22Z" fill="#34A853"/>
<path d="M6.39167 13.9083C6.18334 13.3083 6.075 12.6667 6.075 12C6.075 11.3333 6.19167 10.6917 6.39167 10.0917V7.51666H3.075C2.39167 8.86666 2 10.3833 2 12C2 13.6167 2.39167 15.1333 3.075 16.4833L6.39167 13.9083Z" fill="#FBBC05"/>
<path d="M12.0002 5.95834C13.4752 5.95834 14.7919 6.46667 15.8335 7.45834L18.6835 4.60834C16.9585 2.99167 14.7002 2 12.0002 2C8.09187 2 4.71686 4.25 3.0752 7.51667L6.39187 10.0917C7.18353 7.71667 9.39187 5.95834 12.0002 5.95834Z" fill="#EA4335"/>
</svg>
