<svg width="24" height="24" viewBox="0 0 24 24" fill="none" xmlns="http://www.w3.org/2000/svg">
<path fill-rule="evenodd" clip-rule="evenodd" d="M23 5.13223C22.1893 5.49256 21.3196 5.73719 20.4071 5.84628C21.3393 5.2843 22.0548 4.39174 22.3895 3.33058C21.5165 3.85289 20.5515 4.22975 19.5242 4.43471C18.7004 3.55207 17.5287 3 16.229 3C13.7379 3 11.7161 5.03636 11.7161 7.54545C11.7161 7.90248 11.7555 8.24959 11.8343 8.58017C8.0828 8.39174 4.75802 6.58017 2.53275 3.82975C2.14546 4.50083 1.92227 5.28099 1.92227 6.11405C1.92227 7.69091 2.71983 9.08264 3.93093 9.89587C3.19245 9.87273 2.49664 9.66777 1.88617 9.32727C1.88617 9.34711 1.88617 9.36364 1.88617 9.38347C1.88617 11.5851 3.44189 13.4231 5.50634 13.8397C5.1289 13.9421 4.72848 13.9983 4.31822 13.9983C4.02611 13.9983 3.74385 13.9686 3.46815 13.9157C4.04252 15.7207 5.70983 17.0364 7.68238 17.0727C6.13651 18.2926 4.1935 19.0198 2.07653 19.0198C1.71222 19.0198 1.35447 18.9967 1 18.957C2.99552 20.2463 5.36849 21 7.91869 21C16.2192 21 20.7583 14.0744 20.7583 8.06777C20.7583 7.86942 20.755 7.67438 20.7452 7.47934C21.6281 6.83802 22.3928 6.03802 22.9967 5.12562L23 5.13223Z" fill="white"/>
</svg>
