<svg width="24" height="24" viewBox="0 0 24 24" fill="none" xmlns="http://www.w3.org/2000/svg">
<path d="M19.9157 13.028C19.5277 12.538 19.6387 12.32 19.9157 11.882C19.9207 11.877 23.1238 7.451 23.4538 5.95L23.4558 5.949C23.6198 5.402 23.4558 5 22.6628 5H20.0387C19.3707 5 19.0627 5.345 18.8977 5.731C18.8977 5.731 17.5616 8.929 15.6715 11.002C15.0615 11.601 14.7795 11.793 14.4465 11.793C14.2825 11.793 14.0275 11.601 14.0275 11.054V5.949C14.0275 5.293 13.8405 5 13.2875 5H9.16132C8.7423 5 8.49329 5.306 8.49329 5.591C8.49329 6.213 9.43833 6.356 9.53633 8.106V11.903C9.53633 12.735 9.38533 12.888 9.05031 12.888C8.15828 12.888 5.99321 9.677 4.71016 6.002C4.45115 5.289 4.19815 5.001 3.52512 5.001H0.900031C0.151005 5.001 0 5.346 0 5.732C0 6.414 0.892031 9.805 4.14814 14.285C6.31822 17.343 9.37433 19 12.1544 19C13.8255 19 14.0295 18.632 14.0295 17.999C14.0295 15.077 13.8785 14.801 14.7155 14.801C15.1035 14.801 15.7715 14.993 17.3316 16.468C19.1147 18.217 19.4077 19 20.4057 19H23.0298C23.7778 19 24.1568 18.632 23.9388 17.906C23.4398 16.379 20.0677 13.238 19.9157 13.028V13.028Z" fill="white"/>
</svg>
