<svg width="32" height="32" viewBox="0 0 32 32" fill="none" xmlns="http://www.w3.org/2000/svg">
<g opacity="0.85">
<path d="M28.1065 10.9561C28.1065 10.9561 27.8648 9.24966 27.1203 8.50038C26.1777 7.51423 25.1238 7.50939 24.6404 7.45138C21.1792 7.20001 15.9826 7.20001 15.9826 7.20001H15.9729C15.9729 7.20001 10.7763 7.20001 7.31511 7.45138C6.8317 7.50939 5.77787 7.51423 4.83523 8.50038C4.09078 9.24966 3.85391 10.9561 3.85391 10.9561C3.85391 10.9561 3.60254 12.9622 3.60254 14.9635V16.8392C3.60254 18.8405 3.84908 20.8466 3.84908 20.8466C3.84908 20.8466 4.09078 22.553 4.83039 23.3023C5.77304 24.2885 7.01056 24.2546 7.56165 24.361C9.54362 24.5495 15.9778 24.6075 15.9778 24.6075C15.9778 24.6075 21.1792 24.5978 24.6404 24.3513C25.1238 24.2933 26.1777 24.2885 27.1203 23.3023C27.8648 22.553 28.1065 20.8466 28.1065 20.8466C28.1065 20.8466 28.353 18.8453 28.353 16.8392V14.9635C28.353 12.9622 28.1065 10.9561 28.1065 10.9561ZM13.4205 19.116V12.1598L20.1061 15.65L13.4205 19.116Z" fill="black"/>
</g>
</svg>
