<svg width="16" height="16" viewBox="0 0 16 16" fill="none" xmlns="http://www.w3.org/2000/svg">
<path d="M9.90012 3.47916L10.5999 4.35385C10.6948 4.47246 10.8384 4.5415 10.9903 4.5415H13.5C13.7761 4.5415 14 4.76536 14 5.0415V13.0415C14 13.3176 13.7761 13.5415 13.5 13.5415H2.5C2.22386 13.5415 2 13.3176 2 13.0415V5.0415C2 4.76536 2.22386 4.5415 2.5 4.5415H5.00969C5.16158 4.5415 5.30524 4.47246 5.40012 4.35385L6.09988 3.47916C6.19476 3.36055 6.33842 3.2915 6.49031 3.2915H9.50969C9.66158 3.2915 9.80524 3.36055 9.90012 3.47916Z" stroke="black"/>
<circle cx="8" cy="8.7915" r="3.25" stroke="black"/>
<circle cx="8" cy="8.7915" r="1.75" stroke="black"/>
</svg>
