<svg width="17" height="16" viewBox="0 0 17 16" fill="none" xmlns="http://www.w3.org/2000/svg">
<path d="M5.01004 8.34289L7.42008 4.16859C7.42008 4.16859 7.8877 3.35865 8.65686 3.80273C9.10769 4.06302 9.14024 4.45282 9.08995 4.73089C9.05937 4.90003 8.98321 5.0546 8.89844 5.20506L9.71505 3.79065C9.96338 3.36054 10.5134 3.21317 10.9435 3.46149C11.3736 3.70982 11.521 4.2598 11.2726 4.68991L10.4633 6.09173C10.4633 6.09173 11.0028 5.15719 11.7816 5.60682C12.5604 6.05645 12.0209 6.991 12.0209 6.991L11.5532 7.80094C11.5532 7.80094 12.0209 6.991 12.7373 7.40466C13.4538 7.81832 12.9862 8.62826 12.9862 8.62826L10.2165 13.4256C9.3225 14.974 7.34256 15.5045 5.79416 14.6106L5.32808 14.3415C4.50611 13.8669 3.89303 13.1001 3.61093 12.1939L2.39624 8.29173C2.26288 7.86331 2.4887 7.40554 2.90981 7.25065C3.36171 7.08443 3.86075 7.3301 4.00462 7.7896L4.42123 9.12014C4.44006 9.18026 4.5214 9.18925 4.5529 9.13469L5.01004 8.34289Z" fill="black"/>
<path d="M8.84461 8.89537L10.4633 6.09173M10.4633 6.09173L11.2726 4.68991C11.521 4.2598 11.3736 3.70982 10.9435 3.46149V3.46149C10.5134 3.21317 9.96338 3.36053 9.71505 3.79065L7.28703 7.9961L8.79938 5.37664C8.91822 5.1708 9.04766 4.96479 9.08995 4.73089C9.14024 4.45282 9.10769 4.06302 8.65686 3.80273C7.8877 3.35865 7.42008 4.16859 7.42008 4.16859C7.42008 4.16859 7.42008 4.16859 7.42008 4.16859L5.01005 8.34289L4.5529 9.13469C4.5214 9.18925 4.44006 9.18026 4.42123 9.12014L4.00462 7.7896C3.86075 7.3301 3.36171 7.08443 2.90981 7.25065V7.25065C2.4887 7.40554 2.26288 7.86331 2.39624 8.29173L3.61093 12.1939C3.89303 13.1001 4.50611 13.8669 5.32808 14.3415L5.79416 14.6106C7.34256 15.5045 9.3225 14.974 10.2165 13.4256V13.4256L12.9862 8.62826C12.9862 8.62826 12.9862 8.62826 12.9862 8.62826C12.9862 8.62826 13.4538 7.81832 12.7373 7.40466C12.0209 6.991 11.5532 7.80094 11.5532 7.80094M10.4633 6.09173C10.4633 6.09173 11.0028 5.15719 11.7816 5.60682C12.5604 6.05645 12.0209 6.991 12.0209 6.991C12.0209 6.991 12.0209 6.991 12.0209 6.991L11.5532 7.80094M11.5532 7.80094L10.4022 9.79463" stroke="white" stroke-width="0.4"/>
<line x1="12.7648" y1="0.176778" x2="12.3087" y2="2.40558" stroke="black"/>
<line x1="15.7697" y1="1.44631" x2="14.0676" y2="2.95569" stroke="black"/>
<line x1="13.8715" y1="4.18886" x2="16.1003" y2="4.64495" stroke="black"/>
</svg>
