<svg width="17" height="16" viewBox="0 0 17 16" fill="none" xmlns="http://www.w3.org/2000/svg">
<path d="M8.76095 8.73544L10.3643 5.95831M10.3643 5.95831L11.166 4.56974C11.412 4.14369 11.266 3.59891 10.84 3.35293V3.35293C10.4139 3.10695 9.86914 3.25292 9.62316 3.67897L7.21809 7.84468L8.71446 5.2529C8.8333 5.04705 8.96294 4.84105 9.00456 4.60703C9.05352 4.33181 9.01976 3.94774 8.57497 3.69094C7.81308 3.25106 7.34988 4.05335 7.34988 4.05335C7.34988 4.05335 7.34988 4.05335 7.34988 4.05335L4.96263 8.18819L4.50981 8.9725C4.4786 9.02655 4.39803 9.01764 4.37938 8.95809L3.96671 7.64012C3.8242 7.18497 3.32987 6.94162 2.88225 7.10627V7.10627C2.46511 7.2597 2.24142 7.71314 2.37353 8.13751L3.57673 12.0028C3.85617 12.9005 4.46345 13.66 5.27766 14.1301L5.73933 14.3966C7.2731 15.2821 9.23432 14.7566 10.1198 13.2228V13.2228L12.8634 8.47086C12.8634 8.47086 12.8634 8.47086 12.8634 8.47086C12.8634 8.47086 13.3266 7.66858 12.6169 7.25883C11.9072 6.84907 11.444 7.65136 11.444 7.65136M10.3643 5.95831C10.3643 5.95831 10.8988 5.03259 11.6702 5.47798C12.4416 5.92336 11.9072 6.84907 11.9072 6.84907C11.9072 6.84907 11.9072 6.84907 11.9072 6.84907L11.444 7.65136M11.444 7.65136L10.3038 9.62621" stroke="black"/>
<line x1="12.649" y1="0.10024" x2="12.1972" y2="2.30797" stroke="black"/>
<line x1="15.6242" y1="1.36031" x2="13.9382" y2="2.85542" stroke="black"/>
<line x1="13.7414" y1="4.06881" x2="15.9491" y2="4.52058" stroke="black"/>
</svg>
