<svg width="17" height="16" viewBox="0 0 17 16" fill="none" xmlns="http://www.w3.org/2000/svg">
<path d="M8.78653 5.14745L9.21954 5.39745L8.78653 5.14745ZM9.69485 3.57419L9.26183 3.32419H9.26183L9.69485 3.57419ZM11.1853 4.4347L11.6183 4.6847L11.1853 4.4347ZM10.3802 5.82907L9.94724 5.57907L10.3802 5.82907ZM11.4119 7.48429L10.9789 7.23429L11.4119 7.48429ZM10.0654 12.9831L9.63241 12.7331L10.0654 12.9831ZM5.72629 14.1457L5.47629 14.5787L5.72629 14.1457ZM5.35101 13.9291L5.60101 13.496L5.35101 13.9291ZM3.70709 11.8688L3.22938 12.0165V12.0165L3.70709 11.8688ZM2.53715 8.08368L2.05945 8.23133L2.53715 8.08368ZM4.15454 7.59159L3.67555 7.73501L3.67555 7.73501L4.15454 7.59159ZM4.52978 8.84476L4.0508 8.98818L4.0508 8.98819L4.52978 8.84476ZM4.65611 8.85952L5.08912 9.10952L4.65611 8.85952ZM11.6549 5.34236L11.4049 5.77537L11.6549 5.34236ZM8.66478 3.61602L8.41478 4.04904L8.66478 3.61602ZM9.07176 4.5182L8.5806 4.42464V4.42464L9.07176 4.5182ZM12.5563 7.08541L12.8063 6.6524L12.5563 7.08541ZM11.8707 6.68958L12.3037 6.93958L12.3037 6.93957L11.8707 6.68958ZM7.42867 4.05729L6.99566 3.80729L7.42867 4.05729ZM3.05446 7.04017L3.22617 7.50976L3.22617 7.50976L3.05446 7.04017ZM10.8703 3.25923L11.1203 2.82621L10.8703 3.25923ZM12.7829 8.27621L12.3499 8.02621L12.7829 8.27621ZM12.7831 8.27592L12.3497 8.02659L12.7831 8.27592ZM8.35352 4.89745L6.86856 7.46947L7.73458 7.96947L9.21954 5.39745L8.35352 4.89745ZM9.21954 5.39745L9.31669 5.22918L8.45067 4.72918L8.35352 4.89745L9.21954 5.39745ZM9.31669 5.22918L10.1279 3.82419L9.26183 3.32419L8.45067 4.72918L9.31669 5.22918ZM10.7523 4.1847L9.94724 5.57907L10.8133 6.07907L11.6183 4.6847L10.7523 4.1847ZM9.94724 5.57907L8.359 8.32998L9.22503 8.82998L10.8133 6.07907L9.94724 5.57907ZM10.9789 7.23429L9.84944 9.19048L10.7155 9.69048L11.8449 7.73429L10.9789 7.23429ZM12.3499 8.02621L9.63241 12.7331L10.4984 13.2331L13.2159 8.52621L12.3499 8.02621ZM5.97629 13.7127L5.60101 13.496L5.10101 14.3621L5.47629 14.5787L5.97629 13.7127ZM4.18479 11.7212L3.01485 7.93603L2.05945 8.23133L3.22938 12.0165L4.18479 11.7212ZM3.67555 7.73501L4.0508 8.98818L5.00877 8.70133L4.63353 7.44816L3.67555 7.73501ZM10.3802 5.82907C10.8133 6.07907 10.8132 6.07924 10.8131 6.07941C10.813 6.07946 10.8129 6.07962 10.8129 6.07972C10.8128 6.07992 10.8127 6.08011 10.8126 6.08029C10.8124 6.08064 10.8122 6.08095 10.812 6.0812C10.8117 6.0817 10.8116 6.082 10.8115 6.08211C10.8114 6.08232 10.8117 6.08177 10.8125 6.08051C10.814 6.07799 10.8173 6.07271 10.8222 6.06519C10.8322 6.05001 10.8484 6.02646 10.8702 5.99838C10.9152 5.94013 10.9758 5.87296 11.0452 5.81899C11.1152 5.76446 11.1753 5.73804 11.2227 5.73023C11.2592 5.72421 11.3154 5.72369 11.4049 5.77537L11.9049 4.90935C11.6218 4.7459 11.3323 4.69866 11.06 4.74355C10.7985 4.78667 10.5865 4.90882 10.4311 5.02975C10.2749 5.15124 10.1566 5.28642 10.0791 5.38666C10.0395 5.43782 10.0085 5.48255 9.98666 5.51584C9.97567 5.53254 9.96686 5.54655 9.96029 5.55725C9.957 5.5626 9.95427 5.56714 9.95209 5.5708C9.951 5.57263 9.95005 5.57424 9.94924 5.57562C9.94884 5.57631 9.94847 5.57695 9.94813 5.57752C9.94797 5.57781 9.94781 5.57808 9.94766 5.57834C9.94758 5.57847 9.94748 5.57865 9.94744 5.57872C9.94734 5.5789 9.94724 5.57907 10.3802 5.82907ZM8.41478 4.04904C8.53043 4.1158 8.56255 4.17872 8.5761 4.21882C8.59388 4.27144 8.59646 4.34136 8.5806 4.42464L9.56293 4.61176C9.59884 4.42326 9.61408 4.16688 9.52349 3.89875C9.42868 3.61811 9.23143 3.36583 8.91478 3.18301L8.41478 4.04904ZM11.4119 7.48429C11.8449 7.73429 11.8448 7.73447 11.8447 7.73464C11.8446 7.7347 11.8445 7.73487 11.8445 7.73498C11.8443 7.7352 11.8442 7.73541 11.8441 7.73561C11.8439 7.73601 11.8437 7.73636 11.8435 7.73667C11.8431 7.73729 11.8429 7.73774 11.8427 7.73802C11.8424 7.73858 11.8424 7.73849 11.8428 7.7378C11.8437 7.73641 11.846 7.73269 11.8497 7.72707C11.8573 7.7157 11.87 7.6974 11.8873 7.67538C11.9235 7.62931 11.9715 7.57769 12.0256 7.53747C12.0795 7.49729 12.123 7.48059 12.1552 7.47624C12.1787 7.47307 12.2251 7.47153 12.3063 7.51843L12.8063 6.6524C12.5447 6.50138 12.2767 6.45074 12.0213 6.48525C11.7746 6.51858 11.5748 6.62634 11.4284 6.73535C11.282 6.84433 11.1725 6.96665 11.1012 7.05722C11.0648 7.10352 11.0363 7.14421 11.0161 7.17475C11.0059 7.19009 10.9977 7.20306 10.9915 7.21311C10.9884 7.21815 10.9858 7.22247 10.9837 7.22602C10.9827 7.22779 10.9817 7.22937 10.9809 7.23075C10.9805 7.23144 10.9801 7.23208 10.9798 7.23267C10.9796 7.23297 10.9795 7.23325 10.9793 7.23352C10.9792 7.23365 10.9791 7.23384 10.9791 7.23391C10.979 7.2341 10.9789 7.23429 11.4119 7.48429ZM12.3063 7.51843C12.3873 7.56519 12.4092 7.60602 12.4182 7.62786C12.4305 7.65768 12.4379 7.70331 12.4303 7.76972C12.4138 7.91442 12.3409 8.04182 12.3497 8.02659L13.2165 8.52526C13.2285 8.50446 13.3838 8.23382 13.4239 7.88326C13.4446 7.70204 13.4373 7.47574 13.3426 7.24623C13.2445 7.00874 13.0669 6.80285 12.8063 6.6524L12.3063 7.51843ZM11.4049 5.77537C11.4944 5.82705 11.522 5.87592 11.5351 5.91059C11.552 5.95552 11.5591 6.02075 11.547 6.10872C11.5349 6.19578 11.507 6.28184 11.4791 6.34997C11.4656 6.38283 11.4534 6.40863 11.4452 6.42486C11.4412 6.43291 11.4382 6.4384 11.4368 6.44101C11.4361 6.4423 11.4358 6.44286 11.4359 6.44265C11.436 6.44254 11.4362 6.44223 11.4364 6.44172C11.4366 6.44147 11.4368 6.44117 11.437 6.44081C11.4371 6.44063 11.4372 6.44044 11.4373 6.44024C11.4374 6.44014 11.4374 6.43998 11.4375 6.43993C11.4376 6.43976 11.4377 6.43959 11.8707 6.68958C12.3037 6.93957 12.3038 6.93939 12.3039 6.93921C12.304 6.93915 12.3041 6.93896 12.3041 6.93884C12.3043 6.93858 12.3044 6.9383 12.3046 6.93801C12.3049 6.93744 12.3053 6.9368 12.3057 6.9361C12.3065 6.93471 12.3074 6.93308 12.3084 6.93123C12.3105 6.92751 12.3131 6.92287 12.3161 6.91735C12.3221 6.90631 12.3298 6.89168 12.3388 6.87381C12.3566 6.83822 12.3799 6.78902 12.4044 6.72919C12.4525 6.61194 12.5104 6.44186 12.5375 6.2459C12.5645 6.05084 12.5643 5.80615 12.4709 5.55814C12.3736 5.29988 12.188 5.07279 11.9049 4.90935L11.4049 5.77537ZM11.4377 6.43958L10.9789 7.23429L11.8449 7.73429L12.3037 6.93958L11.4377 6.43958ZM7.86169 4.30729C7.94968 4.15488 8.05939 4.061 8.15083 4.02242C8.22401 3.99153 8.30406 3.98511 8.41478 4.04904L8.91478 3.18301C8.52749 2.95941 8.1181 2.95084 7.76205 3.10109C7.42424 3.24363 7.16491 3.51415 6.99566 3.80729L7.86169 4.30729ZM3.01485 7.93603C2.96055 7.76034 3.05346 7.57292 3.22617 7.50976L2.88275 6.57058C2.20988 6.81662 1.84788 7.54684 2.05945 8.23133L3.01485 7.93603ZM4.0508 8.98819C4.19399 9.46639 4.83952 9.54184 5.08912 9.10952L4.22309 8.60952C4.41196 8.28239 4.90042 8.33949 5.00877 8.70133L4.0508 8.98819ZM10.6203 3.69224C10.7928 3.79179 10.8518 4.01227 10.7523 4.1847L11.6183 4.6847C11.994 4.03398 11.771 3.20191 11.1203 2.82621L10.6203 3.69224ZM3.22617 7.50976C3.41288 7.44149 3.61853 7.54457 3.67555 7.73501L4.63353 7.44816C4.41136 6.7062 3.61016 6.3046 2.88275 6.57058L3.22617 7.50976ZM10.1279 3.82419C10.2274 3.65177 10.4479 3.59269 10.6203 3.69224L11.1203 2.82621C10.4696 2.45052 9.63753 2.67347 9.26183 3.32419L10.1279 3.82419ZM9.63241 12.7331C8.89333 14.0132 7.25642 14.4518 5.97629 13.7127L5.47629 14.5787C7.23472 15.594 9.48321 14.9915 10.4984 13.2331L9.63241 12.7331ZM5.60101 13.496C4.9221 13.1041 4.41628 12.4702 4.18479 11.7212L3.22938 12.0165C3.53532 13.0063 4.20379 13.8441 5.10101 14.3621L5.60101 13.496ZM9.21954 5.39745C9.24813 5.34793 9.28595 5.28378 9.31927 5.22466L8.44809 4.73369C8.41775 4.78753 8.38947 4.83517 8.35352 4.89745L9.21954 5.39745ZM9.31927 5.22466C9.40723 5.06858 9.51572 4.85965 9.56293 4.61176L8.5806 4.42464C8.56522 4.50539 8.52511 4.59703 8.44809 4.73369L9.31927 5.22466ZM12.409 -0.000142664L11.9573 2.20759L12.937 2.40807L13.3887 0.200338L12.409 -0.000142664ZM15.5424 0.986186L13.8564 2.4813L14.5198 3.22951L16.2059 1.73439L15.5424 0.986186ZM13.8913 4.55845L16.099 5.01023L16.2995 4.03053L14.0918 3.57875L13.8913 4.55845ZM5.08912 9.10952L7.86169 4.30729L6.99566 3.80729L4.22309 8.60952L5.08912 9.10952ZM13.2159 8.52621C13.2158 8.52638 13.2157 8.52667 13.2158 8.52645C13.2161 8.52589 13.2164 8.52544 13.2165 8.52526L12.3497 8.02659L12.3499 8.02621L13.2159 8.52621Z" fill="black"/>
</svg>
