<svg width="16" height="16" viewBox="0 0 16 16" fill="none" xmlns="http://www.w3.org/2000/svg">
<path d="M4.5 4H7.5V3H4.5V4ZM10 6.5C10 7.88071 8.88071 9 7.5 9V10C9.433 10 11 8.433 11 6.5H10ZM7.5 4C8.88071 4 10 5.11929 10 6.5H11C11 4.567 9.433 3 7.5 3V4ZM4.5 3C2.567 3 1 4.567 1 6.5H2C2 5.11929 3.11929 4 4.5 4V3ZM11.5 12H8.5V13H11.5V12ZM8.5 12C7.11929 12 6 10.8807 6 9.5H5C5 11.433 6.567 13 8.5 13V12ZM14 9.5C14 10.8807 12.8807 12 11.5 12V13C13.433 13 15 11.433 15 9.5H14ZM8.5 6C6.567 6 5 7.567 5 9.5H6C6 8.11929 7.11929 7 8.5 7V6ZM8.5 7H9V6H8.5V7ZM11.9173 7.03459C13.0993 7.23289 14 8.26175 14 9.5H15C15 7.76526 13.7384 6.32615 12.0827 6.04837L11.9173 7.03459ZM4.08273 8.96541C2.90073 8.76711 2 7.73825 2 6.5H1C1 8.23474 2.26156 9.67385 3.91727 9.95163L4.08273 8.96541ZM7.5 9H7V10H7.5V9Z" fill="black"/>
</svg>
