<svg width="16" height="16" viewBox="0 0 16 16" fill="none" xmlns="http://www.w3.org/2000/svg">
<path d="M4.66667 9.33333V9.33333C3.19391 9.33333 2 8.13943 2 6.66667V6.66667C2 5.19391 3.19391 4 4.66667 4H7.33333C8.80609 4 10 5.19391 10 6.66667V6.66667C10 8.13943 8.80609 9.33333 7.33333 9.33333V9.33333" stroke="black"/>
<path d="M8.66667 6.66675V6.66675C7.19391 6.66675 6 7.86066 6 9.33341V9.33341C6 10.8062 7.19391 12.0001 8.66667 12.0001H11.3333C12.8061 12.0001 14 10.8062 14 9.33341V9.33341C14 7.86066 12.8061 6.66675 11.3333 6.66675V6.66675" stroke="black"/>
</svg>
