<svg width="17" height="16" viewBox="0 0 17 16" fill="none" xmlns="http://www.w3.org/2000/svg">
<path d="M8.78653 5.1472L9.21954 5.3972L9.21954 5.3972L8.78653 5.1472ZM9.69485 3.57395L9.26183 3.32395L9.26183 3.32395L9.69485 3.57395ZM11.1853 4.43446L11.6183 4.68446L11.6183 4.68446L11.1853 4.43446ZM10.3802 5.82883L9.94724 5.57883L9.94724 5.57883L10.3802 5.82883ZM11.4119 7.48404L10.9789 7.23404L10.9789 7.23404L11.4119 7.48404ZM10.0654 12.9828L9.63241 12.7328L10.0654 12.9828ZM5.72629 14.1455L5.47629 14.5785L5.47629 14.5785L5.72629 14.1455ZM5.35101 13.9288L5.60101 13.4958L5.60101 13.4958L5.35101 13.9288ZM3.70709 11.8686L3.22938 12.0163L3.22938 12.0163L3.70709 11.8686ZM2.53715 8.08344L2.05945 8.23109L2.05945 8.23109L2.53715 8.08344ZM4.15454 7.59135L3.67555 7.73477L3.67555 7.73477L4.15454 7.59135ZM4.52978 8.84452L4.0508 8.98794L4.0508 8.98794L4.52978 8.84452ZM4.65611 8.85928L5.08912 9.10928L4.65611 8.85928ZM11.6549 5.34212L11.4049 5.77513L11.6549 5.34212ZM8.66478 3.61578L8.41478 4.0488L8.66478 3.61578ZM9.07176 4.51796L8.5806 4.4244L8.5806 4.4244L9.07176 4.51796ZM12.5563 7.08517L12.8063 6.65216L12.8063 6.65216L12.5563 7.08517ZM11.8707 6.68934L12.3037 6.93934L12.3037 6.93933L11.8707 6.68934ZM7.42867 4.05705L6.99566 3.80705L7.42867 4.05705ZM3.05446 7.03993L3.22617 7.50952L3.22617 7.50952L3.05446 7.03993ZM10.8703 3.25898L11.1203 2.82597L10.8703 3.25898ZM12.7829 8.27597L12.3499 8.02597L12.7829 8.27597ZM12.7831 8.27568L12.3497 8.02635L12.7831 8.27568ZM8.35352 4.8972L6.86856 7.46923L7.73458 7.96923L9.21954 5.3972L8.35352 4.8972ZM9.21954 5.39721L9.31669 5.22893L8.45067 4.72893L8.35352 4.8972L9.21954 5.39721ZM9.31669 5.22893L10.1279 3.82395L9.26183 3.32395L8.45067 4.72893L9.31669 5.22893ZM10.7523 4.18446L9.94724 5.57883L10.8133 6.07883L11.6183 4.68446L10.7523 4.18446ZM9.94724 5.57883L8.359 8.32973L9.22503 8.82973L10.8133 6.07883L9.94724 5.57883ZM10.9789 7.23404L9.84944 9.19024L10.7155 9.69024L11.8449 7.73404L10.9789 7.23404ZM12.3499 8.02597L9.63241 12.7328L10.4984 13.2328L13.2159 8.52597L12.3499 8.02597ZM5.97629 13.7125L5.60101 13.4958L5.10101 14.3618L5.47629 14.5785L5.97629 13.7125ZM4.18479 11.721L3.01485 7.93579L2.05945 8.23109L3.22938 12.0163L4.18479 11.721ZM3.67555 7.73477L4.0508 8.98794L5.00877 8.70109L4.63353 7.44792L3.67555 7.73477ZM10.3802 5.82883C10.8133 6.07883 10.8132 6.079 10.8131 6.07916C10.813 6.07921 10.8129 6.07938 10.8129 6.07948C10.8128 6.07968 10.8127 6.07987 10.8126 6.08005C10.8124 6.0804 10.8122 6.0807 10.812 6.08096C10.8117 6.08146 10.8116 6.08176 10.8115 6.08187C10.8114 6.08208 10.8117 6.08153 10.8125 6.08027C10.814 6.07775 10.8173 6.07247 10.8222 6.06494C10.8322 6.04976 10.8484 6.02622 10.8702 5.99814C10.9152 5.93989 10.9758 5.87272 11.0452 5.81875C11.1152 5.76421 11.1753 5.7378 11.2227 5.72999C11.2592 5.72396 11.3154 5.72345 11.4049 5.77513L11.9049 4.9091C11.6218 4.74566 11.3323 4.69842 11.06 4.74331C10.7985 4.78642 10.5865 4.90858 10.4311 5.02951C10.2749 5.15099 10.1566 5.28618 10.0791 5.38642C10.0395 5.43757 10.0085 5.48231 9.98666 5.5156C9.97567 5.5323 9.96686 5.5463 9.96029 5.557C9.957 5.56236 9.95427 5.5669 9.95209 5.57056C9.951 5.57239 9.95005 5.574 9.94924 5.57538C9.94884 5.57607 9.94847 5.5767 9.94813 5.57728C9.94797 5.57757 9.94781 5.57784 9.94766 5.5781C9.94758 5.57823 9.94748 5.57841 9.94744 5.57848C9.94734 5.57865 9.94724 5.57883 10.3802 5.82883ZM8.41478 4.0488C8.53043 4.11556 8.56255 4.17847 8.5761 4.21858C8.59388 4.2712 8.59646 4.34112 8.5806 4.4244L9.56293 4.61152C9.59884 4.42302 9.61408 4.16664 9.52349 3.89851C9.42868 3.61787 9.23143 3.36558 8.91478 3.18277L8.41478 4.0488ZM11.4119 7.48404C11.8449 7.73404 11.8448 7.73422 11.8447 7.7344C11.8446 7.73446 11.8445 7.73463 11.8445 7.73474C11.8443 7.73496 11.8442 7.73517 11.8441 7.73537C11.8439 7.73577 11.8437 7.73612 11.8435 7.73643C11.8431 7.73705 11.8429 7.73749 11.8427 7.73778C11.8424 7.73834 11.8424 7.73825 11.8428 7.73756C11.8437 7.73617 11.846 7.73245 11.8497 7.72683C11.8573 7.71546 11.87 7.69715 11.8873 7.67514C11.9235 7.62906 11.9715 7.57745 12.0256 7.53723C12.0795 7.49705 12.123 7.48035 12.1552 7.476C12.1787 7.47283 12.2251 7.47129 12.3063 7.51818L12.8063 6.65216C12.5447 6.50114 12.2767 6.4505 12.0213 6.48501C11.7746 6.51834 11.5748 6.6261 11.4284 6.73511C11.282 6.84409 11.1725 6.96641 11.1012 7.05697C11.0648 7.10328 11.0363 7.14397 11.0161 7.17451C11.0059 7.18985 10.9977 7.20281 10.9915 7.21287C10.9884 7.21791 10.9858 7.22223 10.9837 7.22578C10.9827 7.22755 10.9817 7.22913 10.9809 7.23051C10.9805 7.2312 10.9801 7.23184 10.9798 7.23243C10.9796 7.23272 10.9795 7.23301 10.9793 7.23328C10.9792 7.23341 10.9791 7.2336 10.9791 7.23367C10.979 7.23386 10.9789 7.23404 11.4119 7.48404ZM12.3063 7.51818C12.3873 7.56494 12.4092 7.60578 12.4182 7.62762C12.4305 7.65744 12.4379 7.70307 12.4303 7.76948C12.4138 7.91417 12.3409 8.04158 12.3497 8.02635L13.2165 8.52501C13.2285 8.50422 13.3838 8.23358 13.4239 7.88301C13.4446 7.7018 13.4373 7.4755 13.3426 7.24599C13.2445 7.0085 13.0669 6.80261 12.8063 6.65216L12.3063 7.51818ZM11.4049 5.77513C11.4944 5.82681 11.522 5.87567 11.5351 5.91035C11.552 5.95528 11.5591 6.02051 11.547 6.10847C11.5349 6.19554 11.507 6.2816 11.4791 6.34973C11.4656 6.38258 11.4534 6.40839 11.4452 6.42462C11.4412 6.43267 11.4382 6.43816 11.4368 6.44076C11.4361 6.44206 11.4358 6.44262 11.4359 6.4424C11.436 6.44229 11.4362 6.44199 11.4364 6.44148C11.4366 6.44123 11.4368 6.44092 11.437 6.44057C11.4371 6.44039 11.4372 6.4402 11.4373 6.44C11.4374 6.4399 11.4374 6.43973 11.4375 6.43968C11.4376 6.43952 11.4377 6.43935 11.8707 6.68934C12.3037 6.93933 12.3038 6.93915 12.3039 6.93897C12.304 6.93891 12.3041 6.93872 12.3041 6.93859C12.3043 6.93833 12.3044 6.93806 12.3046 6.93777C12.3049 6.93719 12.3053 6.93656 12.3057 6.93586C12.3065 6.93447 12.3074 6.93284 12.3084 6.93099C12.3105 6.92727 12.3131 6.92263 12.3161 6.9171C12.3221 6.90607 12.3298 6.89143 12.3388 6.87357C12.3566 6.83798 12.3799 6.78878 12.4044 6.72894C12.4525 6.6117 12.5104 6.44162 12.5375 6.24566C12.5645 6.0506 12.5643 5.80591 12.4709 5.5579C12.3736 5.29964 12.188 5.07255 11.9049 4.9091L11.4049 5.77513ZM11.4377 6.43934L10.9789 7.23404L11.8449 7.73404L12.3037 6.93934L11.4377 6.43934ZM7.86169 4.30705C7.94968 4.15464 8.05939 4.06076 8.15083 4.02217C8.22401 3.99129 8.30406 3.98487 8.41478 4.0488L8.91478 3.18277C8.52749 2.95916 8.1181 2.9506 7.76205 3.10084C7.42424 3.24339 7.16491 3.5139 6.99566 3.80705L7.86169 4.30705ZM3.01485 7.93579C2.96055 7.7601 3.05346 7.57267 3.22617 7.50952L2.88275 6.57034C2.20988 6.81638 1.84788 7.5466 2.05945 8.23109L3.01485 7.93579ZM4.0508 8.98794C4.19399 9.46615 4.83952 9.5416 5.08912 9.10928L4.22309 8.60928C4.41196 8.28215 4.90042 8.33924 5.00877 8.70109L4.0508 8.98794ZM10.6203 3.692C10.7927 3.79155 10.8518 4.01203 10.7523 4.18446L11.6183 4.68446C11.994 4.03374 11.771 3.20167 11.1203 2.82597L10.6203 3.692ZM3.22617 7.50952C3.41288 7.44125 3.61853 7.54433 3.67555 7.73477L4.63353 7.44792C4.41136 6.70596 3.61016 6.30435 2.88275 6.57034L3.22617 7.50952ZM10.1279 3.82395C10.2274 3.65152 10.4479 3.59245 10.6203 3.692L11.1203 2.82597C10.4696 2.45028 9.63753 2.67323 9.26183 3.32395L10.1279 3.82395ZM9.63241 12.7328C8.89333 14.0129 7.25642 14.4516 5.97629 13.7125L5.47629 14.5785C7.23472 15.5937 9.48321 14.9912 10.4984 13.2328L9.63241 12.7328ZM5.60101 13.4958C4.9221 13.1038 4.41628 12.4699 4.18479 11.721L3.22938 12.0163C3.53532 13.0061 4.20379 13.8438 5.10101 14.3618L5.60101 13.4958ZM9.21954 5.3972C9.24813 5.34769 9.28595 5.28354 9.31927 5.22442L8.44809 4.73345C8.41775 4.78729 8.38947 4.83493 8.35352 4.8972L9.21954 5.3972ZM9.31927 5.22442C9.40723 5.06834 9.51572 4.85941 9.56293 4.61152L8.5806 4.4244C8.56521 4.50515 8.52511 4.59679 8.44809 4.73345L9.31927 5.22442ZM5.08912 9.10928L7.86169 4.30705L6.99566 3.80705L4.22309 8.60928L5.08912 9.10928ZM13.2159 8.52597C13.2158 8.52613 13.2157 8.52643 13.2158 8.5262C13.2161 8.52564 13.2164 8.5252 13.2165 8.52501L12.3497 8.02635L12.3499 8.02597L13.2159 8.52597Z" fill="black"/>
<path d="M12.8988 0.100098L12.447 2.30783M15.8741 1.36029L14.188 2.8554M13.9915 4.0686L16.1992 4.52038" stroke="white"/>
</svg>
