<svg width="16" height="16" viewBox="0 0 16 16" fill="none" xmlns="http://www.w3.org/2000/svg">
<path d="M13.4961 9.08565C13.4961 12.2202 11.0354 13.5 8 13.5C4.9646 13.5 2.50392 12.2202 2.50392 9.08565C2.50392 7.91891 2.42206 6.8344 3.00665 5.93255C4.64179 3.41 7.08399 4.98668 8 4.98665C8.91601 4.98661 11.3582 3.41 12.9933 5.93255C13.5779 6.8344 13.4961 7.91891 13.4961 9.08565Z" stroke="black"/>
<path d="M2.33765 9.5H13.671" stroke="black"/>
<line x1="7.83765" y1="9" x2="7.83765" y2="7" stroke="black"/>
<line x1="4.83765" y1="9.33325" x2="4.83765" y2="7.99992" stroke="black"/>
<line x1="10.8376" y1="9.33325" x2="10.8376" y2="7.99992" stroke="black"/>
<path d="M9.5 3C9.5 3.82843 8.82843 4.5 8 4.5C7.17157 4.5 6.5 3.82843 6.5 3" stroke="black"/>
</svg>
