<svg width="16" height="16" viewBox="0 0 16 16" fill="none" xmlns="http://www.w3.org/2000/svg">
<path d="M13 3.5C13 4.32843 12.3284 5 11.5 5V6C12.8807 6 14 4.88071 14 3.5H13ZM11.5 5C10.6716 5 10 4.32843 10 3.5H9C9 4.88071 10.1193 6 11.5 6V5ZM10 3.5C10 2.67157 10.6716 2 11.5 2V1C10.1193 1 9 2.11929 9 3.5H10ZM11.5 2C12.3284 2 13 2.67157 13 3.5H14C14 2.11929 12.8807 1 11.5 1V2ZM5.03265 9.43579L9.47709 11.9358L9.96735 11.0642L5.52291 8.56421L5.03265 9.43579ZM9.47709 4.06421L5.03265 6.56421L5.52291 7.43579L9.96735 4.93579L9.47709 4.06421ZM5 8C5 8.82843 4.32843 9.5 3.5 9.5V10.5C4.88071 10.5 6 9.38071 6 8H5ZM3.5 9.5C2.67157 9.5 2 8.82843 2 8H1C1 9.38071 2.11929 10.5 3.5 10.5V9.5ZM2 8C2 7.17157 2.67157 6.5 3.5 6.5V5.5C2.11929 5.5 1 6.61929 1 8H2ZM3.5 6.5C4.32843 6.5 5 7.17157 5 8H6C6 6.61929 4.88071 5.5 3.5 5.5V6.5ZM13 12.5C13 13.3284 12.3284 14 11.5 14V15C12.8807 15 14 13.8807 14 12.5H13ZM11.5 14C10.6716 14 10 13.3284 10 12.5H9C9 13.8807 10.1193 15 11.5 15V14ZM10 12.5C10 11.6716 10.6716 11 11.5 11V10C10.1193 10 9 11.1193 9 12.5H10ZM11.5 11C12.3284 11 13 11.6716 13 12.5H14C14 11.1193 12.8807 10 11.5 10V11Z" fill="black"/>
</svg>
